<svg xmlns="http://www.w3.org/2000/svg">
<defs>
<font id="GTSectraDisplay-Light" horiz-adv-x="620" >
  <font-face 
    font-family="GT Sectra Display Light"
    font-weight="300"
    font-stretch="normal"
    units-per-em="1000"
    panose-1="0 0 4 0 0 0 0 0 0 0"
    ascent="750"
    descent="-250"
    x-height="460"
    cap-height="700"
    bbox="-460 -245 1122 915"
    underline-thickness="50"
    underline-position="-100"
    unicode-range="U+000D-FB02"
  />
<missing-glyph horiz-adv-x="625" 
d="M462 -29l-30 1l-24 18h-14l-8 8l7 76l-4 47l-61 1l-3 -52l-2 -56v-20l-15 -6l-8 6l-30 -10h-32l-1 11l11 11l50 21l-6 96l-98 -6l-147 140l-4 115l-13 10l-10 36v26l15 8l-3 78l92 -62l9 47l10 36l22 35l28 35l39 29l78 29h22l-68 22l4 17h7l79 -20l-4 51l16 12h32l19 -5
l29 -25l32 -8l32 -10l15 -13v-20l-20 -31l30 -28l28 -32l18 -34l15 -41l9 -54l-3 -41l-8 -35l-12 -31l-3 -156l-21 -7l-50 70l-27 -7l-19 -140l-32 4l-7 -4l-4 -94l30 -19l16 -14zM208 540h5l36 24h32l18 -12l8 3l4 14l7 5l10 -4v-18h8l10 22l11 8l-5 6l-3 8l1 21l-30 -10
l-10 -8l-8 5l4 21l14 10l11 11l38 -2l12 13l-4 8h-49l-45 -13l-53 -26l-29 -23l-25 -34l29 12l13 -15l-17 -20l-10 -3zM388 608l3 17l-7 17l-8 -9v-19zM436 564h13l6 6l-9 18l17 28l-15 9v5l-25 7v-20l-13 -5v-9l-9 -6l-3 -12l5 -6l19 11l8 -2zM515 406l18 12h23l6 11l-18 6
l-5 9l9 42h7l14 -20l17 -1l-8 37l-19 50l-20 36l-23 28l-34 21h-11l17 -19l25 -10l11 -11l3 -33l-25 13l-15 -29l12 -8v-19l15 3l-12 26l15 -5l10 -20l-5 -12l-8 -7h-23l-3 11l-12 2l1 -22h-14l14 -18l-7 -10l-21 5l-3 -27l41 6l8 17l22 -2l6 -28l-16 -13v-15zM461 514l2 7
l-2 9l-8 -4v-9zM184 498l59 12l-4 12zM366 491l3 4l-48 25l-4 -12zM72 254v180l57 -32l7 10l-68 38v18l59 -34l43 -28l28 -14l3 10l-103 64l-13 7l-41 33l2 -78l19 -17v-5h-21l19 -14l1 -11l-20 7l18 -18l-4 -7l3 -97zM227 432l11 5l16 12l6 12l2 13l-22 -4l6 -10l-12 -13
l-14 -1l-6 8l1 4l14 2l-13 6l2 7l-20 -1l3 -19l14 -15zM329 430l18 10l6 9l5 20l-30 2l7 -5l1 -11l-7 -11h-12l-5 7l11 8l-15 2v6l-23 4l3 -17l8 -14l20 -9zM201 130l18 4l2 40l41 -3l3 9l-44 6v16l48 -6l1 9l-47 7l1 22l43 -3l3 6l-45 9l3 94h74l11 10h-79l2 9h74l8 7h-82

<glyph glyph-name="fi" unicode="fi" horiz-adv-x="521" 
d="M25 0v5l70 5v445h-70v5h70v13q0 44 1 60.5t7.5 37t20.5 36.5l89 103h228v-85h-5l-65 26h-203l-4 -11q-9 -26 -9 -110v-19v-51h217l54 10h5v-460l70 -5v-5h-200v5l70 5v445h-216v-445l116 -5v-5h-246z" />
    <glyph glyph-name="fl" unicode="fl" horiz-adv-x="516" 
d="M25 0v5l70 5v445h-70v5h70v13q0 44 1 60.5t7.5 37t20.5 36.5l89 103h218v-700l70 -5v-5h-200v5l70 5v445h-216v-445l116 -5v-5h-246zM155 460h216v191h-203l-4 -11q-9 -26 -9 -110v-19v-51z" />
    <glyph glyph-name="f_f" unicode="ff" horiz-adv-x="569" 
d="M25 0v5l70 5v445h-70v5h70v4q0 58 4.5 81.5t24.5 46.5l89 103h121l-51 -59h-115l-4 -11q-9 -26 -9 -110v-19v-36h216v13q0 44 1 60.5t7.5 37t20.5 36.5l89 103h105v-59h-150l-4 -11q-9 -26 -9 -110v-19v-51h124v-5h-124v-445l116 -5v-5h-246v5l70 5v445h-216v-445l116 -5
v-5h-246z" />
    <glyph glyph-name="f_f_i" unicode="ffi" horiz-adv-x="797" 
d="M25 0v5l70 5v445h-70v5h70v4q0 58 4.5 81.5t24.5 46.5l89 103h121l-51 -59h-115l-4 -11q-9 -26 -9 -110v-19v-36h216v13q0 44 1 60.5t7.5 37t20.5 36.5l89 103h228v-85h-5l-65 26h-203l-4 -11q-9 -26 -9 -110v-19v-51h217l54 10h5v-460l70 -5v-5h-200v5l70 5v445h-216
v-445l116 -5v-5h-246v5l70 5v445h-216v-445l116 -5v-5h-246z" />
    <glyph glyph-name="f_f_l" unicode="ffl" horiz-adv-x="792" 
d="M25 0v5l70 5v445h-70v5h70v4q0 58 4.5 81.5t24.5 46.5l89 103h121l-51 -59h-115l-4 -11q-9 -26 -9 -110v-19v-36h216v13q0 44 1 60.5t7.5 37t20.5 36.5l89 103h218v-700l70 -5v-5h-200v5l70 5v445h-216v-445l116 -5v-5h-246v5l70 5v445h-216v-445l116 -5v-5h-246z
M431 460h216v191h-203l-4 -11q-9 -26 -9 -110v-19v-51z" />
    <glyph glyph-name="T_h.liga" unicode="Th" horiz-adv-x="1005" 
d="M161 0v5l92 5v680h-172l-61 -181h-5v191h539l55 15h5v-354l184 114q59 0 83.5 -33t24.5 -114v-318l82 -5v-5h-196v5l54 5v324q0 52 -16 73.5t-55 21.5q-7 0 -13.5 -0.5t-13 -2.5t-11.5 -3t-12.5 -4.5t-11.5 -5t-13 -7t-12.5 -7.5t-14.5 -9t-15 -9l-44 -26v-345l55 -5v-5
h-185v5l70 5v680h-231v-680l92 -5v-5h-254z" />
    <glyph glyph-name="f_b.liga" unicode="fb" horiz-adv-x="805" 
d="M531 -15q-95 0 -151 38v628h-212l-4 -11q-9 -26 -9 -110v-19v-51h124v-5h-124v-445l116 -5v-5h-246v5l70 5v445h-70v5h70v13q0 44 1 60.5t7.5 37t20.5 36.5l89 103h227v-329l155 94q71 0 120.5 -57t49.5 -154q0 -69 -18 -120.5t-52.5 -82.5t-73.5 -48.5t-90 -27.5z
M552 -1q60 0 104 67.5t44 172.5q0 83 -32.5 136.5t-98.5 53.5q-6 0 -11.5 -0.5t-10 -1t-10 -2.5t-9 -3t-9.5 -4l-9 -4.5t-10 -5.5t-9.5 -5.5t-11 -6.5t-11.5 -7l-28 -17v-318q34 -55 112 -55z" />
    <glyph glyph-name="f_f_b.liga" unicode="ffb" horiz-adv-x="1081" 
d="M807 -15q-95 0 -151 38v628h-212l-4 -11q-9 -26 -9 -110v-19v-51h124v-5h-124v-445l116 -5v-5h-246v5l70 5v445h-216v-445l116 -5v-5h-246v5l70 5v445h-70v5h70v4q0 58 4.5 81.5t24.5 46.5l89 103h121l-51 -59h-115l-4 -11q-9 -26 -9 -110v-19v-36h216v13q0 44 1 60.5
t7.5 37t20.5 36.5l89 103h227v-329l155 94q71 0 120.5 -57t49.5 -154q0 -69 -18 -120.5t-52.5 -82.5t-73.5 -48.5t-90 -27.5zM828 -1q60 0 104 67.5t44 172.5q0 83 -32.5 136.5t-98.5 53.5q-6 0 -11.5 -0.5t-10 -1t-10 -2.5t-9 -3t-9.5 -4l-9 -4.5t-10 -5.5t-9.5 -5.5
t-11 -6.5t-11.5 -7l-28 -17v-318q34 -55 112 -55z" />
    <glyph glyph-name="f_f_h.liga" unicode="ffh" horiz-adv-x="1098" 
d="M25 0v5l70 5v445h-70v5h70v4q0 58 4.5 81.5t24.5 46.5l89 103h121l-51 -59h-115l-4 -11q-9 -26 -9 -110v-19v-36h216v13q0 44 1 60.5t7.5 37t20.5 36.5l89 103h218v-349l184 114q63 0 85.5 -35t22.5 -112v-318l82 -5v-5h-196v5l54 5v324q0 54 -17 74.5t-54 20.5
q-7 0 -13.5 -0.5t-13 -2.5t-11.5 -3t-12.5 -4.5t-11.5 -5t-13 -7t-12.5 -7.5t-14.5 -9t-15 -9l-44 -26v-345l55 -5v-5h-185v5l70 5v641h-203l-4 -11q-9 -26 -9 -110v-19v-51h124v-5h-124v-445l116 -5v-5h-246v5l70 5v445h-216v-445l116 -5v-5h-246z" />
    <glyph glyph-name="f_f_j.liga" unicode="ffj" horiz-adv-x="777" 
d="M522 -236v63h114l2 12q9 59 9 98v518h-216v-445l116 -5v-5h-246v5l70 5v445h-216v-445l116 -5v-5h-246v5l70 5v445h-70v5h70v4q0 58 4.5 81.5t24.5 46.5l89 103h121l-51 -59h-115l-4 -11q-9 -26 -9 -110v-19v-36h216v13q0 44 1 60.5t7.5 37t20.5 36.5l89 103h228v-85h-5
l-65 26h-203l-4 -11q-9 -26 -9 -110v-19v-51h217l54 10h5v-518q0 -37 -26 -72l-88 -116h-71z" />
    <glyph glyph-name="f_f_k.liga" unicode="ffk" horiz-adv-x="1047" 
d="M25 0v5l70 5v445h-70v5h70v4q0 58 4.5 81.5t24.5 46.5l89 103h121l-51 -59h-115l-4 -11q-9 -26 -9 -110v-19v-36h215v13q0 44 1 60.5t7.5 37t20.5 36.5l89 103h218v-454l231 194l-72 5v5h152v-5l-67 -5l-229 -192l52 7l220 -256l49 -4v-5h-123l-213 249v-239l70 -5v-5
h-200v5l70 5v641h-203l-4 -11q-9 -26 -9 -110v-19v-51h124v-5h-124v-445l116 -5v-5h-246v5l70 5v445h-215v-445l116 -5v-5h-246z" />
    <glyph glyph-name="f_h.liga" unicode="fh" horiz-adv-x="822" 
d="M25 0v5l70 5v445h-70v5h70v13q0 44 1 60.5t7.5 37t20.5 36.5l89 103h218v-349l184 114q63 0 85.5 -35t22.5 -112v-318l82 -5v-5h-196v5l54 5v324q0 54 -17 74.5t-54 20.5q-7 0 -13.5 -0.5t-13 -2.5t-11.5 -3t-12.5 -4.5t-11.5 -5t-13 -7t-12.5 -7.5t-14.5 -9t-15 -9
l-44 -26v-345l55 -5v-5h-185v5l70 5v641h-203l-4 -11q-9 -26 -9 -110v-19v-51h124v-5h-124v-445l116 -5v-5h-246z" />
    <glyph glyph-name="f_j.liga" unicode="fj" horiz-adv-x="501" 
d="M246 -236v63h114l2 12q9 59 9 98v518h-216v-445l116 -5v-5h-246v5l70 5v445h-70v5h70v13q0 44 1 60.5t7.5 37t20.5 36.5l89 103h228v-85h-5l-65 26h-203l-4 -11q-9 -26 -9 -110v-19v-51h217l54 10h5v-518q0 -37 -26 -72l-88 -116h-71z" />
    <glyph glyph-name="f_k.liga" unicode="fk" horiz-adv-x="772" 
d="M25 0v5l70 5v445h-70v5h70v13q0 44 1 60.5t7.5 37t20.5 36.5l89 103h218v-454l231 194l-72 5v5h152v-5l-67 -5l-229 -192l52 7l220 -256l49 -4v-5h-123l-213 249v-239l70 -5v-5h-200v5l70 5v641h-203l-4 -11q-9 -26 -9 -110v-19v-51h124v-5h-124v-445l116 -5v-5h-246z
" />
    <glyph glyph-name="f_t.liga" unicode="ft" horiz-adv-x="587" 
d="M460 -15q-62 0 -81.5 30t-19.5 90v350h-204v-445l116 -5v-5h-246v5l70 5v445h-70v5h70v19q0 58 4.5 81.5t24.5 46.5l89 103h121l-51 -59h-115l-4 -11q-9 -26 -9 -110v-19v-51h204v83l60 38v-121h151v-5h-151v-353q0 -72 63 -72q47 0 95 28l3 -4z" />
    <glyph glyph-name="f_y.liga" unicode="fy" horiz-adv-x="785" 
d="M363 -235v70h87l104 198l-53 -30l-168 452h-178v-445l116 -5v-5h-246v5l70 5v445h-70v5h70v13q0 44 1 60.5t7.5 37t20.5 36.5l89 103h105v-59h-150l-4 -11q-9 -26 -9 -110v-19v-51h311v-5l-60 -5l151 -406l144 406l-75 5v5h154v-5l-67 -5l-149 -418l-116 -267h-85z" />
    <glyph glyph-name="g_g.liga" unicode="gg" horiz-adv-x="936" 
d="M203 -241q-95 0 -139 32t-44 102v17l113 85q-90 20 -90 96v10l96 70q-44 15 -71 49.5t-27 80.5q0 121 177 173q49 0 88.5 -21t59.5 -57l58 78h29v-74h-75l-9 -10q13 -25 13 -57q0 -125 -177 -173q-33 0 -60 9l-47 -45q0 -74 72 -74h144q50 0 78.5 -26t28.5 -63
q0 -62 -60.5 -116.5t-157.5 -85.5zM642 -241q-89 0 -131 32t-42 102v17l103 85q-90 20 -90 96v10l96 70q-44 15 -71 49.5t-27 80.5q0 121 177 173q49 0 88.5 -21t59.5 -57l58 78h39v-74h-85l-9 -10q13 -25 13 -57q0 -125 -177 -173q-33 0 -60 9l-47 -45q0 -74 72 -74h161
q50 0 78.5 -26t28.5 -63q0 -62 -65.5 -116.5t-169.5 -85.5zM221 178q45 0 70.5 34.5t25.5 93.5q0 34 -9 65.5t-36.5 58t-69.5 26.5q-45 0 -70.5 -34.5t-25.5 -93.5q0 -34 9 -65.5t36.5 -58t69.5 -26.5zM660 178q45 0 70.5 34.5t25.5 93.5q0 34 -9 65.5t-36.5 58t-69.5 26.5
q-45 0 -70.5 -34.5t-25.5 -93.5q0 -34 9 -65.5t36.5 -58t69.5 -26.5zM198 -221q63 1 113 44.5t50 98.5q0 73 -93 73h-129q-54 -42 -54 -108q0 -48 30.5 -78.5t82.5 -29.5zM637 -221q70 1 125 44.5t55 98.5q0 73 -93 73h-146q-44 -42 -44 -108q0 -48 28 -78.5t75 -29.5z" />
    <glyph glyph-name="k_y.liga" unicode="ky" horiz-adv-x="936" 
d="M514 -235v70h87l104 198l-53 -30l-165 447h-82l-229 -192l52 7l220 -256l49 -4v-5h-123l-213 249v-239l70 -5v-5h-200v5l70 5v679l-69 -14l-2 5l126 35h5v-459l231 194l-72 5v5h297v-5l-60 -5l151 -406l144 406l-75 5v5h154v-5l-67 -5l-149 -418l-116 -267h-85z" />
    <glyph glyph-name="t_t.liga" unicode="tt" horiz-adv-x="583" 
d="M186 -15q-56 0 -78.5 27t-22.5 93v350h-80v5h80v83l60 38v-121h210v83l60 38v-121h151v-5h-151v-353q0 -72 63 -72q45 0 95 28l3 -4l-120 -69q-56 0 -78.5 27t-22.5 93v350h-210v-358q0 -67 53 -67q43 0 93 28l3 -4z" />
    <glyph glyph-name="t_y.liga" unicode="ty" horiz-adv-x="714" 
d="M292 -235v70h87l104 198l-53 -30l-168 452h-117v-353q0 -72 63 -72q49 0 85 23l3 -4l-110 -64q-62 0 -81.5 30t-19.5 90v350h-80v5h80v83l60 38v-121h250v-5l-60 -5l151 -406l144 406l-75 5v5h154v-5l-67 -5l-149 -418l-116 -267h-85z" />
    <glyph glyph-name=".notdef" horiz-adv-x="625" 
d="M462 -29l-30 1l-24 18h-14l-8 8l7 76l-4 47l-61 1l-3 -52l-2 -56v-20l-15 -6l-8 6l-30 -10h-32l-1 11l11 11l50 21l-6 96l-98 -6l-147 140l-4 115l-13 10l-10 36v26l15 8l-3 78l92 -62l9 47l10 36l22 35l28 35l39 29l78 29h22l-68 22l4 17h7l79 -20l-4 51l16 12h32l19 -5
l29 -25l32 -8l32 -10l15 -13v-20l-20 -31l30 -28l28 -32l18 -34l15 -41l9 -54l-3 -41l-8 -35l-12 -31l-3 -156l-21 -7l-50 70l-27 -7l-19 -140l-32 4l-7 -4l-4 -94l30 -19l16 -14zM208 540h5l36 24h32l18 -12l8 3l4 14l7 5l10 -4v-18h8l10 22l11 8l-5 6l-3 8l1 21l-30 -10
l-10 -8l-8 5l4 21l14 10l11 11l38 -2l12 13l-4 8h-49l-45 -13l-53 -26l-29 -23l-25 -34l29 12l13 -15l-17 -20l-10 -3zM388 608l3 17l-7 17l-8 -9v-19zM436 564h13l6 6l-9 18l17 28l-15 9v5l-25 7v-20l-13 -5v-9l-9 -6l-3 -12l5 -6l19 11l8 -2zM515 406l18 12h23l6 11l-18 6
l-5 9l9 42h7l14 -20l17 -1l-8 37l-19 50l-20 36l-23 28l-34 21h-11l17 -19l25 -10l11 -11l3 -33l-25 13l-15 -29l12 -8v-19l15 3l-12 26l15 -5l10 -20l-5 -12l-8 -7h-23l-3 11l-12 2l1 -22h-14l14 -18l-7 -10l-21 5l-3 -27l41 6l8 17l22 -2l6 -28l-16 -13v-15zM461 514l2 7
l-2 9l-8 -4v-9zM184 498l59 12l-4 12zM366 491l3 4l-48 25l-4 -12zM72 254v180l57 -32l7 10l-68 38v18l59 -34l43 -28l28 -14l3 10l-103 64l-13 7l-41 33l2 -78l19 -17v-5h-21l19 -14l1 -11l-20 7l18 -18l-4 -7l3 -97zM227 432l11 5l16 12l6 12l2 13l-22 -4l6 -10l-12 -13
l-14 -1l-6 8l1 4l14 2l-13 6l2 7l-20 -1l3 -19l14 -15zM329 430l18 10l6 9l5 20l-30 2l7 -5l1 -11l-7 -11h-12l-5 7l11 8l-15 2v6l-23 4l3 -17l8 -14l20 -9zM201 130l18 4l2 40l41 -3l3 9l-44 6v16l48 -6l1 9l-47 7l1 22l43 -3l3 6l-45 9l3 94h74l11 10h-79l2 9h74l8 7h-82
l2 22l117 4l140 -4v11l-4 7h-205l-66 -3l-7 -9l-6 -44l-48 20l-11 -4l57 -27l1 -45l-5 -73v-91zM529 386h5l5 7v7l-10 -4v-10zM350 336h53l4 30l-54 5zM173 231l-1 60l4 40l-66 39v-7l-2 -13l1 -27v-48zM510 300l8 2l20 15l13 13l11 18l-7 5h-14l-10 3l-14 7l-17 -3l-6 -48z
M437 346l44 4l4 9h-48v-13zM449 142l12 79l4 36l-15 3l-1 8l20 1l5 3l-28 16l2 5l30 -6l-30 15l5 5l21 -5l4 10l3 19l-54 1l-1 -24v-6l-2 -31l19 -3l-8 -61l-48 3l-8 -6l51 -5l-2 -9h-49l-4 -5l53 -7l-6 -35zM291 302h73v10h-73v-10zM559 234v78l-6 -3l-33 -27zM364 271v10
l-72 7l-6 -13zM286 250h68v6l-68 4v-10zM172 189l4 14l-74 50l20 -23zM350 161v53l-64 4v-51z" />
    <glyph glyph-name=".null" horiz-adv-x="0" 
 />
    <glyph glyph-name="nonmarkingreturn" horiz-adv-x="333" 
 />
    <glyph glyph-name="CR" unicode="&#xd;" horiz-adv-x="320" 
 />
    <glyph glyph-name="space" unicode=" " horiz-adv-x="240" 
 />
    <glyph glyph-name="exclam" unicode="!" horiz-adv-x="237" 
d="M111 189l-25 203l-5 318h75l-5 -317l-25 -204h-15zM102 -4l-18 4l-4 39l6 31l49 3l19 -3l3 -37l-6 -33z" />
    <glyph glyph-name="quotedbl" unicode="&#x22;" horiz-adv-x="335" 
d="M95 463l-46 184l15 58h65l15 -58l-46 -184h-3zM241 463l-46 184l15 58h65l15 -58l-46 -184h-3z" />
    <glyph glyph-name="numbersign" unicode="#" horiz-adv-x="602" 
d="M153 0l25 207h-138l2 20h139l24 199h-140l3 20h139l26 209h20l-26 -209h180l26 209h20l-26 -209h135l-2 -20h-135l-25 -199h137l-2 -20h-137l-25 -207h-20l25 207h-180l-25 -207h-20zM200 227h181l24 199h-180z" />
    <glyph glyph-name="dollar" unicode="$" horiz-adv-x="510" 
d="M465 196q0 -139 -190 -200v-76h-10v72q-3 -1 -12 -3.5t-14 -3.5q-108 0 -194 57v149h5l39 -101q75 -77 171 -77h5v314l-94 51q-58 32 -87 64t-29 86q0 73 56.5 120.5t153.5 66.5v66h10v-66q105 -4 173 -44v-147h-5l-44 114q-56 51 -124 58v-294l60 -32q66 -36 98 -77
t32 -97zM222 431l43 -23v289h-11q-65 0 -104.5 -36.5t-39.5 -91.5q0 -45 27 -76t85 -62zM275 14q62 4 98.5 41t36.5 97q0 51 -29.5 89.5t-96.5 75.5l-9 5v-308z" />
    <glyph glyph-name="percent" unicode="%" horiz-adv-x="806" 
d="M198 358q-69 0 -108.5 46.5t-39.5 121.5q0 76 41.5 119.5t134.5 59.5q69 0 109 -47t40 -122q0 -154 -177 -178zM155 -5l494 710h24l-492 -710h-26zM219 370q50 0 75.5 42.5t25.5 108.5q0 78 -28 124.5t-87 46.5q-50 0 -75.5 -42.5t-25.5 -108.5q0 -78 28 -124.5t87 -46.5
zM579 -6q-69 0 -108.5 46.5t-39.5 121.5q0 76 41.5 119.5t134.5 59.5q69 0 109 -47t40 -122q0 -154 -177 -178zM600 6q50 0 75.5 42.5t25.5 108.5q0 78 -28 124.5t-87 46.5q-50 0 -75.5 -42.5t-25.5 -108.5q0 -78 28 -124.5t87 -46.5z" />
    <glyph glyph-name="ampersand" unicode="&#x26;" horiz-adv-x="652" 
d="M237 -15q-79 0 -135.5 44t-55.5 113q1 71 44 120.5t120 94.5q-80 96 -99.5 127.5t-19.5 66.5q0 62 45 100.5t139 66.5q78 0 122 -40.5t44 -97.5q0 -52 -39.5 -97t-122.5 -94l161 -194l136 162l-68 5v5h139v-5l-60 -5l-141 -169l148 -178l63 -5v-5h-150l-109 130
q-67 -78 -161 -145zM274 395q59 37 78 83t19 107q0 53 -30.5 84t-79.5 31q-47 0 -75 -30.5t-28 -84.5q0 -33 22.5 -69.5t93.5 -120.5zM245 46q41 0 72 20.5t75 71.5l-177 214q-103 -61 -103 -162q0 -60 39 -102t94 -42z" />
    <glyph glyph-name="quotesingle" unicode="'" horiz-adv-x="185" 
d="M95 463l-46 184l15 58h65l15 -58l-46 -184h-3z" />
    <glyph glyph-name="parenleft" unicode="(" horiz-adv-x="269" 
d="M250 -233q-113 124 -159 232t-46 244q0 135 46.5 243t158.5 232l4 -3q-158 -170 -158 -472q0 -303 158 -473z" />
    <glyph glyph-name="parenright" unicode=")" horiz-adv-x="269" 
d="M19 -233l-4 3q158 170 158 473q0 302 -158 472l4 3q112 -124 158.5 -232t46.5 -243q0 -136 -46 -244t-159 -232z" />
    <glyph glyph-name="asterisk" unicode="*" horiz-adv-x="381" 
d="M131 439l-49 35l104 97l-141 16l18 58l124 -70l-27 140h60l-27 -140l124 70l19 -57l-142 -17l105 -96l-48 -36l-61 129z" />
    <glyph glyph-name="plus" unicode="+" 
d="M300 0v245h-248v20h248v250h20v-250h248v-20h-248v-245h-20z" />
    <glyph glyph-name="comma" unicode="," horiz-adv-x="213" 
d="M90 -138l-3 1q10 23 29.5 68t29.5 67l-35 -2l-22 4l-4 48l7 37l57 4l25 -4l4 -44l-7 -41z" />
    <glyph glyph-name="hyphen" unicode="-" horiz-adv-x="370" 
d="M33 267v20h305v-20h-305z" />
    <glyph glyph-name="period" unicode="." horiz-adv-x="203" 
d="M96 -4l-22 4l-4 47l7 38l59 4l23 -4l4 -44l-7 -41z" />
    <glyph glyph-name="slash" unicode="/" horiz-adv-x="454" 
d="M-10 -230l453 948h21l-451 -948h-23z" />
    <glyph glyph-name="zero" unicode="0" horiz-adv-x="539" 
d="M249 -15q-97 0 -153 66t-56 172q0 107 59 168t190 84q97 0 153.5 -66t56.5 -172q0 -108 -60 -171t-190 -81zM279 2q74 0 112 60t38 154q0 109 -42 174.5t-128 65.5q-73 0 -111 -60t-38 -152q0 -111 41.5 -176.5t127.5 -65.5z" />
    <glyph glyph-name="one" unicode="1" horiz-adv-x="404" 
d="M25 0v5l153 5v423l-142 -54l-2 5l199 88h5v-462l145 -5v-5h-358z" />
    <glyph glyph-name="two" unicode="2" horiz-adv-x="421" 
d="M24 0l-4 5l84 63q109 82 147.5 146.5t38.5 124.5q0 117 -99 117q-27 0 -76 -20l-25 -111h-53v78l170 82q81 0 117.5 -35.5t35.5 -90.5q-1 -127 -213 -268l-39 -26h283v-4l-22 -61h-345z" />
    <glyph glyph-name="three" unicode="3" horiz-adv-x="440" 
d="M26 -230v65h214q43 36 61.5 69t18.5 73q0 70 -57 113.5t-147 43.5v9l43 20q73 32 104.5 72.5t31.5 99.5q0 52 -28.5 85.5t-72.5 33.5q-42 0 -83 -22l-34 -117h-52v95l209 75q53 0 89.5 -36t36.5 -88q0 -109 -168 -189q83 -5 138 -48.5t55 -105.5q0 -113 -154 -192
l-107 -56h-98z" />
    <glyph glyph-name="four" unicode="4" horiz-adv-x="508" 
d="M299 -234v234h-283l-6 9l302 457h78v-5l-366 -451h275v199l60 33v-232h139v-10h-139v-234h-60z" />
    <glyph glyph-name="five" unicode="5" horiz-adv-x="450" 
d="M45 -230v65h172q68 41 99 91.5t31 122.5q0 125 -104 125q-33 0 -59 -8.5t-72 -33.5l-44 -24l-3 3l35 359h320l-4 -60h-310l-28 -289l181 99q72 0 112.5 -37.5t40.5 -104.5q0 -79 -46 -137t-154 -114l-110 -57h-57z" />
    <glyph glyph-name="six" unicode="6" horiz-adv-x="518" 
d="M295 447q85 0 129 -60.5t44 -137.5q0 -91 -54 -163.5t-172 -100.5q-94 0 -145.5 82.5t-51.5 193.5q0 71 18.5 138.5t56.5 131.5t106 114t159 75l3 -7q-68 -20 -118 -51.5t-80 -68t-48.5 -84t-25 -93.5t-6.5 -101v-18zM269 11q67 0 100 47.5t33 148.5q0 90 -31.5 142
t-81.5 52q-10 0 -19 -2t-20.5 -7.5t-18.5 -9t-21.5 -14t-20 -15t-23.5 -19.5t-24 -19l-32 -26q5 -127 50 -202.5t109 -75.5z" />
    <glyph glyph-name="seven" unicode="7" horiz-adv-x="453" 
d="M98 -230v5l305 630h-383v65h408l5 -5l-279 -695h-56z" />
    <glyph glyph-name="eight" unicode="8" horiz-adv-x="500" 
d="M365 315q85 -71 85 -145q0 -72 -53.5 -116.5t-162.5 -68.5q-78 0 -131 46.5t-53 129.5q0 107 162 192l-60 51q-83 71 -83 145q0 59 43 96.5t140 69.5q184 0 184 -144q0 -55 -39 -100t-113 -88zM135 592q0 -48 29 -90.5t100 -101.5l15 -13q53 43 72 83t19 90
q0 59 -34 97.5t-94 38.5q-49 0 -78 -27.5t-29 -76.5zM259 5q50 0 87.5 30.5t37.5 100.5q0 45 -23 77.5t-85 85.5l-59 50q-101 -72 -101 -167q0 -76 44.5 -126.5t98.5 -50.5z" />
    <glyph glyph-name="nine" unicode="9" horiz-adv-x="513" 
d="M256 485q86 0 141.5 -79.5t55.5 -204.5q0 -159 -92.5 -280t-247.5 -165l-3 7q131 40 204.5 143.5t73.5 250.5v12l-180 -146q-76 0 -127 57.5t-51 146.5q0 92 59 161t167 97zM346 146l42 33q-2 49 -12 96t-29 89t-51.5 68t-73.5 26q-58 0 -92 -50t-34 -142
q0 -88 32.5 -140t91.5 -52q8 0 15 1t12.5 2.5t13 6t12.5 7t15 10l16 12t20 15.5t22 18z" />
    <glyph glyph-name="colon" unicode=":" horiz-adv-x="218" 
d="M101 387l-22 4l-4 47l7 38l59 4l23 -4l4 -44l-7 -41zM101 -4l-22 4l-4 47l7 38l59 4l23 -4l4 -44l-7 -41z" />
    <glyph glyph-name="semicolon" unicode=";" horiz-adv-x="238" 
d="M101 387l-22 4l-4 47l7 38l59 4l23 -4l4 -44l-7 -41zM80 -138l-3 1q10 23 29.5 68t29.5 67l-35 -2l-22 4l-4 48l7 37l57 4l25 -4l4 -44l-7 -41z" />
    <glyph glyph-name="less" unicode="&#x3c;" 
d="M570 45l-520 236v10l520 237v-21l-493 -221l493 -220v-21z" />
    <glyph glyph-name="equal" unicode="=" 
d="M52 330v20h516v-20h-516zM52 140v20h516v-20h-516z" />
    <glyph glyph-name="greater" unicode="&#x3e;" 
d="M50 45v21l493 220l-493 221v21l520 -237v-10z" />
    <glyph glyph-name="question" unicode="?" horiz-adv-x="397" 
d="M148 200l-22 140l43 32q62 46 87.5 86t25.5 104q0 135 -135 142l-29 -109h-53v100l82 15q99 0 149.5 -45.5t50.5 -100.5q0 -117 -107 -169l-77 -38v-157h-15zM140 -4l-18 4l-4 39l6 31l49 3l19 -3l3 -37l-6 -33z" />
    <glyph glyph-name="at" unicode="@" horiz-adv-x="888" 
d="M432 -114q-170 0 -276 104.5t-106 267.5q0 141 89 250t237 161l93 31q176 0 275 -81.5t99 -208.5q0 -131 -89.5 -225.5t-205.5 -94.5l-47 67l22 104l-138 -173q-51 4 -89.5 48t-38.5 112q0 78 45 140t121 99l107 51l95 -68l-73 -374q83 0 157 85t74 214q0 123 -81 204
t-215 81q-96 0 -181.5 -48t-140.5 -140.5t-55 -208.5q0 -172 106 -267.5t260 -95.5q88 0 191 63l3 -4q-54 -33 -122 -59t-116 -34zM411 139l114 134l37 172l-87 60q-58 -29 -94.5 -73t-49 -82.5t-12.5 -76.5q0 -113 92 -134z" />
    <glyph glyph-name="A" unicode="A" horiz-adv-x="692" 
d="M5 0v5l82 5l242 673l40 27l238 -700l80 -5v-5h-245v4l88 6l-83 249h-260l-88 -249l90 -6v-4h-184zM191 269h253l-122 367z" />
    <glyph glyph-name="B" unicode="B" horiz-adv-x="614" 
d="M30 0v5l92 5v680l-92 5v5h309q91 0 141.5 -44t50.5 -110q0 -74 -61.5 -124t-133.5 -52q115 -1 176.5 -48t61.5 -122q0 -96 -71 -148t-191 -52h-282zM192 374h120q70 0 107 48t37 123q0 67 -38 108.5t-105 41.5l-121 -5v-316zM299 5q107 0 153.5 51.5t46.5 136.5
q0 81 -50.5 126t-129.5 45h-127v-354z" />
    <glyph glyph-name="C" unicode="C" horiz-adv-x="664" 
d="M377 -15q-139 0 -238 95.5t-99 258.5q0 162 95.5 262t249.5 114q127 0 229 -53v-150h-5l-51 123q-72 70 -177 70q-111 0 -186 -92t-75 -260q0 -70 16 -131.5t48 -112.5t86.5 -81t125.5 -30q47 0 90.5 20t71.5 49l51 134h5v-150q-109 -51 -237 -66z" />
    <glyph glyph-name="D" unicode="D" horiz-adv-x="718" 
d="M30 0v5l102 5v680l-102 5v5h309q154 0 246.5 -89.5t92.5 -249.5q0 -159 -89 -260t-248 -101h-311zM346 5q113 0 182.5 96.5t69.5 255.5q0 158 -65 248t-202 90l-129 -5v-680z" />
    <glyph glyph-name="E" unicode="E" horiz-adv-x="599" 
d="M30 0v5l92 5v680l-92 5v5h530v-176h-5l-61 166h-302v-319h184l40 114h5v-237h-5l-40 113h-184v-351h311l61 170h5v-180h-539z" />
    <glyph glyph-name="F" unicode="F" horiz-adv-x="575" 
d="M30 0v5l92 5v680l-92 5v5h530v-181h-5l-61 171h-302v-332h184l40 130h5v-270h-5l-40 130h-184v-338l92 -5v-5h-254z" />
    <glyph glyph-name="G" unicode="G" horiz-adv-x="716" 
d="M381 -15q-147 0 -244 94.5t-97 261.5q0 159 96 261t255 113q68 0 129 -16.5t94 -37.5v-149h-5l-51 123q-70 70 -170 70q-124 0 -196 -102t-72 -263q0 -142 70.5 -244.5t196.5 -102.5q56 0 101 22t69 53v229l-85 7v5h219v-5l-64 -7v-249q-124 -63 -246 -63z" />
    <glyph glyph-name="H" unicode="H" horiz-adv-x="743" 
d="M30 0v5l92 5v680l-92 5v5h254v-5l-92 -5v-321h359v321l-92 5v5h254v-5l-92 -5v-680l92 -5v-5h-254v5l92 5v349h-359v-349l92 -5v-5h-254z" />
    <glyph glyph-name="I" unicode="I" horiz-adv-x="314" 
d="M30 0v5l92 5v680l-92 5v5h254v-5l-92 -5v-680l92 -5v-5h-254z" />
    <glyph glyph-name="J" unicode="J" horiz-adv-x="315" 
d="M0 -175v70h117l4 19q7 31 7 174v602l-107 5v5h269v-5l-92 -5v-609q0 -54 -8.5 -83.5t-33.5 -59.5l-94 -113h-62z" />
    <glyph glyph-name="K" unicode="K" horiz-adv-x="672" 
d="M591 10l71 -5v-5h-153l-317 355v-345l92 -5v-5h-254v5l92 5v680l-92 5v5h254v-5l-92 -5v-321l351 321l-90 5v5h183v-5l-80 -5l-349 -325l56 11z" />
    <glyph glyph-name="L" unicode="L" horiz-adv-x="549" 
d="M30 0v5l92 5v680l-92 5v5h254v-5l-92 -5v-680h281l61 175h5v-185h-509z" />
    <glyph glyph-name="M" unicode="M" horiz-adv-x="889" 
d="M30 0v5l92 5v680l-92 5v5h168l257 -636l236 636h168v-5l-92 -5v-680l92 -5v-5h-241v5l79 5v678l-256 -693h-36l-273 691v-676l82 -5v-5h-184z" />
    <glyph glyph-name="N" unicode="N" horiz-adv-x="695" 
d="M563 -5l-431 687v-672l92 -5v-5h-194v5l92 5v680l-92 5v5h172l381 -605v595l-91 5v5h193v-5l-92 -5v-695h-30z" />
    <glyph glyph-name="O" unicode="O" horiz-adv-x="752" 
d="M366 -15q-141 0 -233.5 102t-92.5 249q0 162 87 260t258 119q141 0 234 -102t93 -249q0 -162 -87.5 -260t-258.5 -119zM397 3q107 0 171 92.5t64 241.5q0 155 -79 257.5t-198 102.5q-107 0 -171 -92.5t-64 -241.5q0 -155 79 -257.5t198 -102.5z" />
    <glyph glyph-name="P" unicode="P" horiz-adv-x="565" 
d="M30 0v5l92 5v680l-92 5v5h310q92 0 151 -48t59 -132q0 -46 -19 -81t-55 -58t-72 -36.5t-86 -26.5h-126v-308l102 -5v-5h-264zM192 328h100q80 0 130.5 52t50.5 132t-40.5 131.5t-124.5 51.5l-116 -5v-362z" />
    <glyph glyph-name="Q" unicode="Q" horiz-adv-x="752" 
d="M491 -46l133 -109l49 -5v-5h-136l-171 150q-141 0 -233.5 102t-92.5 249q0 162 87 260t258 119q141 0 234 -102t93 -249q0 -161 -86.5 -259t-255.5 -120zM120 363q0 -155 79 -257.5t198 -102.5q107 0 171 92.5t64 241.5q0 155 -79 257.5t-198 102.5q-107 0 -171 -92.5
t-64 -241.5z" />
    <glyph glyph-name="R" unicode="R" horiz-adv-x="640" 
d="M30 0v5l92 5v680l-92 5v5h302q87 0 147.5 -41.5t60.5 -131.5q0 -153 -257 -194h-91v-323l86 -5v-5h-248zM192 343h70q97 0 149 47.5t52 129.5q0 85 -45 129t-119 46l-107 -5v-347zM504 0l-221 333l98 -23l200 -300l54 -5v-5h-131z" />
    <glyph glyph-name="S" unicode="S" horiz-adv-x="510" 
d="M239 -15q-108 0 -194 57v149h5l39 -101q75 -77 171 -77q68 0 109 38t41 101q0 51 -29.5 89.5t-96.5 75.5l-113 61q-58 32 -87 64t-29 86q0 73 56.5 120.5t153.5 66.5q106 0 183 -44v-147h-5l-44 114q-64 59 -145 59q-65 0 -104.5 -36.5t-39.5 -91.5q0 -45 27 -76t85 -62
l113 -61q66 -36 98 -77t32 -97q0 -152 -226 -211z" />
    <glyph glyph-name="T" unicode="T" horiz-adv-x="566" 
d="M156 0v5l92 5v680h-172l-61 -181h-5v191h546v-191h-5l-61 181h-172v-680l92 -5v-5h-254z" />
    <glyph glyph-name="U" unicode="U" horiz-adv-x="664" 
d="M340 -15q-239 0 -239 264v441l-91 5v5h253v-5l-92 -5v-451q0 -98 51 -162t147 -64q80 0 129 65t49 161v451l-92 5v5h199v-5l-92 -5v-448q0 -106 -49.5 -172.5t-172.5 -84.5z" />
    <glyph glyph-name="V" unicode="V" horiz-adv-x="692" 
d="M334 -11l-249 701l-80 5v5h245v-4l-88 -6l219 -628l213 628l-91 6v4h184v-5l-82 -5l-231 -679z" />
    <glyph glyph-name="W" unicode="W" horiz-adv-x="975" 
d="M305 -1l-227 691l-68 5v5h231v-5l-88 -5l189 -581l139 433l-48 148l-68 5v5h231v-5l-88 -5l189 -581l187 581l-94 5v5h175v-5l-70 -5l-221 -686l-14 -5l-173 526l-168 -521z" />
    <glyph glyph-name="X" unicode="X" horiz-adv-x="695" 
d="M10 0v5l106 5l202 311l-231 369l-75 5v5h244v-5l-86 -5l196 -313l201 313l-117 5v5h235v-5l-106 -5l-207 -322l226 -358l74 -5v-5h-248v5l90 5l-190 302l-196 -302l117 -5v-5h-235z" />
    <glyph glyph-name="Y" unicode="Y" horiz-adv-x="679" 
d="M196 0v5l115 5v263l-229 417l-77 5v5h251v-5l-94 -5l212 -387l211 387l-104 5v5h193v-5l-77 -5l-216 -397v-283l115 -5v-5h-300z" />
    <glyph glyph-name="Z" unicode="Z" horiz-adv-x="548" 
d="M20 0v5l414 685h-309l-74 -176h-5v186h472v-5l-414 -685h322l76 180h5v-190h-487z" />
    <glyph glyph-name="bracketleft" unicode="[" horiz-adv-x="302" 
d="M85 -230v945h182v-5l-137 -5v-449v-476l137 -5v-5h-182z" />
    <glyph glyph-name="backslash" unicode="\" horiz-adv-x="434" 
d="M431 -230l-451 948h21l453 -948h-23z" />
    <glyph glyph-name="bracketright" unicode="]" horiz-adv-x="302" 
d="M35 -230v5l137 5v506v419l-137 5v5h182v-945h-182z" />
    <glyph glyph-name="asciicircum" unicode="^" horiz-adv-x="351" 
d="M50 460l123 245h6l122 -245h-15l-110 228l-111 -228h-15z" />
    <glyph glyph-name="underscore" unicode="_" horiz-adv-x="565" 
d="M5 -95v20h555v-20h-555z" />
    <glyph glyph-name="grave" unicode="`" horiz-adv-x="600" 
d="M279 542l-132 168h72l65 -168h-5z" />
    <glyph glyph-name="a" unicode="a" horiz-adv-x="439" 
d="M156 -15q-59 0 -92.5 30.5t-33.5 83.5q0 57 53 99l212 72v51q0 30 -2 45.5t-11 35.5t-31 28.5t-59 8.5q-26 0 -70 -13l-25 -101h-54v67l171 83q48 0 77 -9.5t42.5 -32t17.5 -45.5t4 -62v-219q0 -42 20 -94l58 8l1 -4l-120 -22l-18 89zM172 31q41 0 90 35l33 24v175
l-150 -58q-50 -38 -50 -91q0 -38 21.5 -61.5t55.5 -23.5z" />
    <glyph glyph-name="b" unicode="b" horiz-adv-x="506" 
d="M232 -15q-95 0 -151 38v666l-69 -14l-2 5l126 35h5v-334l155 94q71 0 120.5 -57t49.5 -154q0 -69 -18 -120.5t-52.5 -82.5t-73.5 -48.5t-90 -27.5zM253 -1q60 0 104 67.5t44 172.5q0 83 -32.5 136.5t-98.5 53.5q-6 0 -11.5 -0.5t-10 -1t-10 -2.5t-9 -3t-9.5 -4l-9 -4.5
t-10 -5.5t-9.5 -5.5t-11 -6.5t-11.5 -7l-28 -17v-318q34 -55 112 -55z" />
    <glyph glyph-name="c" unicode="c" horiz-adv-x="422" 
d="M249 -15q-93 0 -153.5 61.5t-60.5 167.5q0 114 66 180.5t161 80.5q27 0 65.5 -16.5t60.5 -34.5v-76h-48l-43 102q-23 8 -47 8q-71 0 -114 -49t-43 -150q0 -95 48 -159.5t123 -64.5q69 0 130 54l3 -4q-57 -55 -148 -100z" />
    <glyph glyph-name="d" unicode="d" horiz-adv-x="534" 
d="M215 -15q-78 0 -129 66.5t-51 155.5q0 104 57 175.5t169 92.5q55 0 99 -26v240l-69 -14l-2 5l126 35h5v-606q0 -44 19 -90l74 9l1 -4l-133 -29l-20 91zM234 31q25 0 41.5 8t57.5 36l27 19v318q-37 50 -102 50q-77 -1 -117.5 -60t-40.5 -161q0 -87 37.5 -148.5t96.5 -61.5
z" />
    <glyph glyph-name="e" unicode="e" horiz-adv-x="448" 
d="M410 84l3 -3q-84 -65 -158 -96q-90 0 -155 60t-65 168q0 110 57.5 175.5t149.5 86.5q164 0 164 -180v-21h-312q-1 -8 -1 -26q0 -98 52.5 -155.5t134.5 -57.5q56 0 130 49zM223 454q-58 0 -91 -45.5t-38 -129.5h242q0 82 -24 128.5t-89 46.5z" />
    <glyph glyph-name="f" unicode="f" horiz-adv-x="293" 
d="M25 0v5l70 5v445h-70v5h70v13q0 44 1 60.5t7.5 37t20.5 36.5l89 103h105v-59h-150l-4 -11q-9 -26 -9 -110v-19v-51h124v-5h-124v-445l116 -5v-5h-246z" />
    <glyph glyph-name="g" unicode="g" horiz-adv-x="468" 
d="M203 -241q-95 0 -139 32t-44 102v17l113 85q-90 20 -90 96v10l96 70q-44 15 -71 49.5t-27 80.5q0 121 177 173q49 0 88.5 -21t59.5 -57l58 78h39v-74h-85l-9 -10q13 -25 13 -57q0 -125 -177 -173q-33 0 -60 9l-47 -45q0 -74 72 -74h161q50 0 78.5 -26t28.5 -63
q0 -62 -65.5 -116.5t-169.5 -85.5zM221 178q45 0 70.5 34.5t25.5 93.5q0 34 -9 65.5t-36.5 58t-69.5 26.5q-45 0 -70.5 -34.5t-25.5 -93.5q0 -34 9 -65.5t36.5 -58t69.5 -26.5zM198 -221q70 1 125 44.5t55 98.5q0 73 -93 73h-146q-54 -42 -54 -108q0 -48 30.5 -78.5
t82.5 -29.5z" />
    <glyph glyph-name="h" unicode="h" horiz-adv-x="552" 
d="M31 0v5l70 5v679l-69 -14l-2 5l126 35h5v-354l184 114q31 0 52.5 -10t32 -23t16 -36t6.5 -38t1 -40v-318l82 -5v-5h-196v5l54 5v324q0 54 -17 74.5t-54 20.5q-7 0 -13.5 -0.5t-13 -2.5t-11.5 -3t-12.5 -4.5t-11.5 -5t-13 -7t-12.5 -7.5t-14.5 -9t-15 -9l-44 -26v-345
l55 -5v-5h-185z" />
    <glyph glyph-name="i" unicode="i" horiz-adv-x="254" 
d="M115 609l-20 4l-4 43l7 34l53 4l21 -4l4 -40l-7 -37zM34 0v5l70 5v436l-73 -19l-1 4l129 39h5v-460l70 -5v-5h-200z" />
    <glyph glyph-name="j" unicode="j" horiz-adv-x="239" 
d="M115 609l-20 4l-4 43l7 34l53 4l21 -4l4 -40l-7 -37zM-20 -236v63h114l2 12q9 58 9 98v509l-73 -19l-1 4l129 39h5v-518q0 -37 -26 -72l-88 -116h-71z" />
    <glyph glyph-name="k" unicode="k" horiz-adv-x="502" 
d="M31 0v5l70 5v679l-69 -14l-2 5l126 35h5v-460l231 195l-72 5v5h152v-5l-67 -5l-229 -192l52 7l220 -256l49 -4v-5h-123l-213 249v-239l70 -5v-5h-200z" />
    <glyph glyph-name="l" unicode="l" horiz-adv-x="246" 
d="M31 0v5l70 5v679l-69 -14l-2 5l126 35h5v-705l70 -5v-5h-200z" />
    <glyph glyph-name="m" unicode="m" horiz-adv-x="827" 
d="M34 0v5l70 5v436l-73 -19l-1 4l129 39h5v-109l174 114q108 0 108 -114l174 114q63 0 85.5 -35t22.5 -112v-318l82 -5v-5h-196v5l54 5v324q0 54 -17 74.5t-54 20.5t-107 -45l-44 -29v-345l55 -5v-5h-169v5l54 5v324q0 54 -17 74.5t-54 20.5t-107 -45l-44 -29v-345l55 -5
v-5h-185z" />
    <glyph glyph-name="n" unicode="n" horiz-adv-x="555" 
d="M34 0v5l70 5v436l-73 -19l-1 4l129 39h5v-109l184 114q63 0 85.5 -35t22.5 -112v-318l82 -5v-5h-196v5l54 5v324q0 54 -17 74.5t-54 20.5q-7 0 -13.5 -0.5t-13 -2.5t-11.5 -3t-12.5 -4.5t-11.5 -5t-13 -7t-12.5 -7.5t-14.5 -9t-15 -9l-44 -26v-345l55 -5v-5h-185z" />
    <glyph glyph-name="o" unicode="o" horiz-adv-x="507" 
d="M242 -15q-91 0 -149 66.5t-58 167.5q0 207 229 256q92 0 150 -66.5t58 -167.5q0 -210 -230 -256zM266 2q67 0 103.5 61t36.5 156q0 107 -46.5 172t-119.5 65q-67 0 -103 -59t-36 -156q0 -99 46.5 -169t118.5 -70z" />
    <glyph glyph-name="p" unicode="p" horiz-adv-x="509" 
d="M17 -230v5l72 5v666l-73 -19l-1 4l129 39h5v-94l149 99q76 0 126 -62.5t50 -149.5q0 -107 -57 -179.5t-169 -98.5q-63 0 -99 31v-236l107 -5v-5h-239zM255 -2q68 1 111 64t43 167q0 84 -35.5 142t-97.5 58q-13 0 -22.5 -1.5t-21 -7t-17 -8.5t-21.5 -13.5t-23 -15.5
l-22 -14v-314q35 -58 106 -57z" />
    <glyph glyph-name="q" unicode="q" horiz-adv-x="497" 
d="M253 -230v5l107 5v301l-145 -96q-74 0 -127 59.5t-53 155.5q0 111 67.5 186t166.5 89q43 0 69 -7.5t58 -26.5l19 29h5v-690l72 -5v-5h-239zM233 35q29 0 48 7.5t51 27.5l28 18v310q-33 64 -102 64q-64 0 -111 -57.5t-47 -168.5q0 -84 33.5 -142.5t99.5 -58.5z" />
    <glyph glyph-name="r" unicode="r" horiz-adv-x="343" 
d="M34 0v5l70 5v436l-73 -19l-1 4l129 39h5v-147l108 147h56v-73h-103l-61 -82v-305l96 -5v-5h-226z" />
    <glyph glyph-name="s" unicode="s" horiz-adv-x="358" 
d="M170 -15q-68 0 -140 46v118h5l46 -98q50 -46 101 -46q46 0 69.5 22.5t23.5 55.5q0 40 -18.5 62t-69.5 53l-71 43q-48 30 -62 48q-20 25 -20 61q0 44 35.5 72.5t109.5 52.5q76 0 136 -37v-119h-5l-41 99q-42 40 -102 40q-37 0 -60 -20.5t-23 -52.5q0 -23 12.5 -41.5
t26 -27.5t42.5 -27l76 -45q49 -29 68 -55.5t18 -65.5q-1 -98 -157 -138z" />
    <glyph glyph-name="t" unicode="t" horiz-adv-x="313" 
d="M186 -15q-62 0 -81.5 30t-19.5 90v350h-80v5h80v83l60 38v-121h151v-5h-151v-353q0 -72 63 -72q47 0 95 28l3 -4z" />
    <glyph glyph-name="u" unicode="u" horiz-adv-x="527" 
d="M195 -15q-66 0 -88 33.5t-22 111.5v318l-74 -10l-1 5l130 22h5v-341q0 -97 66 -97q39 0 100 39l56 33v349l-74 -10l-1 5l130 22h5v-341q0 -49 15 -109l59 7l1 -5l-119 -22l-16 97z" />
    <glyph glyph-name="v" unicode="v" horiz-adv-x="516" 
d="M244 -15l-178 465l-61 5v5h192v-5l-60 -5l152 -419l146 419l-78 5v5h154v-5l-65 -5l-153 -432z" />
    <glyph glyph-name="w" unicode="w" horiz-adv-x="807" 
d="M239 -15l-173 465l-61 5v5h192v-5l-60 -5l148 -418l112 334l-31 84l-61 5v5h192v-5l-61 -5l149 -418l140 418l-78 5v5h155v-5l-65 -5l-148 -433l-50 -32l-137 366l-113 -334z" />
    <glyph glyph-name="x" unicode="x" horiz-adv-x="509" 
d="M10 0v5l80 5l149 202l-149 238l-58 5v5h171v-5l-35 -5l116 -186l128 186l-96 5v5h188v-5l-80 -5l-133 -195l153 -245l58 -5v-5h-171v5l35 5l-121 192l-142 -192l92 -5v-5h-185z" />
    <glyph glyph-name="y" unicode="y" horiz-adv-x="516" 
d="M94 -235v70h87l103 198l-52 -30l-166 447l-61 5v5h192v-5l-60 -5l151 -406l144 406l-75 5v5h154v-5l-67 -5l-149 -418l-116 -267h-85z" />
    <glyph glyph-name="z" unicode="z" horiz-adv-x="431" 
d="M35 0v4l298 449h-205l-61 -132h-5v139h344v-5l-295 -448h225l58 129h5v-136h-364z" />
    <glyph glyph-name="braceleft" unicode="{" horiz-adv-x="328" 
d="M240 -230q-55 0 -89.5 38.5t-34.5 101.5v287l-66 42q43 15 54.5 50.5t11.5 93.5v192q0 63 32.5 101.5t83.5 38.5h48v-5h-52q-67 0 -67 -110v-216q0 -90 -74 -127l74 -45v-327q0 -58 21.5 -84t53.5 -26h52v-5h-48z" />
    <glyph glyph-name="bar" unicode="|" horiz-adv-x="240" 
d="M110 -245v963h20v-963h-20z" />
    <glyph glyph-name="braceright" unicode="}" horiz-adv-x="328" 
d="M48 -230v5h52q67 0 67 110v226q0 90 74 127l-74 45v317q0 58 -21.5 84t-53.5 26h-52v5h48q55 0 89.5 -38.5t34.5 -101.5v-277l66 -42q-43 -15 -54.5 -50.5t-11.5 -93.5v-202q0 -63 -32.5 -101.5t-83.5 -38.5h-48z" />
    <glyph glyph-name="asciitilde" unicode="~" horiz-adv-x="668" 
d="M50 202l39 80l93 12l387 -53l44 74h5l-39 -75l-93 -17l-386 57l-45 -78h-5z" />
    <glyph glyph-name="uni00A0" unicode="&#xa0;" horiz-adv-x="163" 
 />
    <glyph glyph-name="exclamdown" unicode="&#xa1;" horiz-adv-x="227" 
d="M97 395l-19 3l-3 37l6 33l49 4l18 -4l4 -39l-6 -31zM76 -242l5 317l25 204h15l25 -203l5 -318h-75z" />
    <glyph glyph-name="cent" unicode="&#xa2;" horiz-adv-x="427" 
d="M402 85q-56 -53 -144 -98v-67h-10v65q-91 2 -149.5 63.5t-58.5 165.5q0 107 60 173t148 85v68h10v-66q2 0 5 0.5t4 0.5q27 0 65.5 -16.5t60.5 -34.5v-76h-48l-43 102q-23 8 -47 8q-71 0 -114 -49t-43 -150q0 -95 48 -159.5t123 -64.5q69 0 130 54z" />
    <glyph glyph-name="sterling" unicode="&#xa3;" horiz-adv-x="537" 
d="M492 155h5v-155h-457v5l92 10v348h-92v5h92v112q0 101 40.5 151.5t159.5 83.5q101 0 142 -49v-141h-5l-44 119q-25 28 -47.5 39.5t-58.5 11.5q-62 0 -94.5 -39.5t-32.5 -115.5v-172h186v-5h-186v-220q0 -66 -6.5 -89.5t-28.5 -43.5h278z" />
    <glyph glyph-name="currency" unicode="&#xa4;" 
d="M106 138l-14 14l71 71q-51 56 -51 132t51 132l-71 71l14 14l71 -71q57 52 133 52t133 -52l71 71l14 -14l-71 -71q51 -56 51 -132t-51 -132l71 -71l-14 -14l-71 71q-57 -52 -133 -52t-133 52zM310 174q73 0 125.5 53.5t52.5 127.5t-52.5 127.5t-125.5 53.5t-125.5 -53.5
t-52.5 -127.5t52.5 -127.5t125.5 -53.5z" />
    <glyph glyph-name="yen" unicode="&#xa5;" horiz-adv-x="665" 
d="M645 700v-5l-77 -5l-194 -397v-20h109v-5h-109v-89h109v-5h-109v-164l115 -5v-5h-300v5l115 5v164h-102v5h102v89h-102v5h102v1l-207 416l-77 5v5h251v-5l-94 -5l191 -387l188 387l-104 5v5h193z" />
    <glyph glyph-name="brokenbar" unicode="&#xa6;" horiz-adv-x="240" 
d="M110 288v430h20v-430h-20zM110 -245v430h20v-430h-20z" />
    <glyph glyph-name="section" unicode="&#xa7;" horiz-adv-x="500" 
d="M460 225q0 -116 -126 -171l86 -61v-44q0 -146 -178 -194q-74 0 -155 46v128h5l46 -108q58 -46 116 -46q54 0 86 39t32 105v17l-157 112q-93 67 -127 112.5t-34 94.5q0 97 101 148q-65 64 -65 139q0 136 185 173q104 0 142 -49v-107h-5l-42 94q-37 45 -111 45
q-57 0 -87.5 -30.5t-30.5 -87.5q0 -48 35 -91t128 -109l156 -111v-44zM329 58q83 42 83 137v15l-153 109q-59 42 -99 79q-55 -31 -55 -103q0 -42 30.5 -81.5t123.5 -105.5z" />
    <glyph glyph-name="dieresis" unicode="&#xa8;" horiz-adv-x="600" 
d="M150 597l-18 4l-4 39l7 30l47 4l19 -4l4 -36l-7 -33zM310 597l-18 4l-4 39l7 30l47 4l19 -4l4 -36l-7 -33z" />
    <glyph glyph-name="copyright" unicode="&#xa9;" horiz-adv-x="832" 
d="M417 -15q-154 2 -260.5 102t-106.5 269q0 153 97.5 243.5t267.5 115.5q154 -2 260.5 -102t106.5 -269q0 -153 -97.5 -243.5t-267.5 -115.5zM415 0q133 0 227 93.5t94 250.5q0 87 -31.5 158t-80 112.5t-102.5 63.5t-105 22q-133 0 -227 -94t-94 -250q0 -87 31.5 -158
t80 -112.5t102.5 -63.5t105 -22zM428 140q-91 0 -154.5 54t-63.5 148q0 95 60.5 151.5t164.5 65.5q81 0 144 -30v-95h-6l-40 80q-41 37 -97 37q-65 0 -107.5 -52t-42.5 -148q0 -87 39.5 -144t116.5 -57q55 0 91 36l40 86h6v-96q-72 -28 -151 -36z" />
    <glyph glyph-name="ordfeminine" unicode="&#xaa;" horiz-adv-x="406" 
d="M149 313q-48 0 -76.5 24.5t-28.5 67.5q0 47 44 81l174 57v45q0 23 -1.5 35t-8.5 27t-24.5 21.5t-46.5 6.5q-21 0 -55 -10l-20 -84h-51v56l144 67q75 0 97.5 -28t22.5 -91v-176q0 -34 16 -74l46 6l1 -4l-103 -19l-16 70zM166 353q31 0 71 26l26 18l-1 140l-117 -43
q-40 -30 -40 -73q0 -31 17 -49.5t44 -18.5z" />
    <glyph glyph-name="guillemotleft" unicode="&#xab;" horiz-adv-x="402" 
d="M196 15l-181 220l182 220h5l-132 -220l132 -220h-6zM366 15l-181 220l182 220h5l-132 -220l132 -220h-6z" />
    <glyph glyph-name="logicalnot" unicode="&#xac;" 
d="M547 179v156h-494v20h514v-176h-20z" />
    <glyph glyph-name="uni00AD" unicode="&#xad;" horiz-adv-x="370" 
d="M33 267v20h305v-20h-305z" />
    <glyph glyph-name="registered" unicode="&#xae;" horiz-adv-x="592" 
d="M295 685q106 -1 179 -69.5t73 -184.5q0 -105 -66.5 -167t-183.5 -79q-106 1 -179 69.5t-73 184.5q0 105 66.5 167t183.5 79zM295 197q87 0 148.5 64t61.5 170q0 78 -35.5 135.5t-81.5 82t-91 24.5q-87 0 -148.5 -64t-61.5 -170q0 -113 67 -177.5t141 -64.5zM337 420
l74 -112l21 -2v-4h-68l-83 129h-31v-123l32 -2v-4h-110v4l33 2v258l-33 2v4h135q37 0 62.5 -16t25.5 -50q0 -63 -107 -74zM250 436h24q34 0 52.5 18t18.5 49q0 30 -16.5 47.5t-41.5 17.5l-37 -2v-130z" />
    <glyph glyph-name="macron" unicode="&#xaf;" horiz-adv-x="600" 
d="M110 620v20h280v-20h-280z" />
    <glyph glyph-name="degree" unicode="&#xb0;" horiz-adv-x="427" 
d="M213 446q-63 0 -108 45t-45 108q0 62 37 97.5t117 56.5q63 0 108 -45t45 -108q0 -62 -37 -97.5t-117 -56.5zM213 469q59 0 95 38t36 92q0 53 -38.5 92t-91.5 39q-59 0 -95 -38t-36 -92q0 -53 38.5 -92t91.5 -39z" />
    <glyph glyph-name="plusminus" unicode="&#xb1;" 
d="M295 141v243h-248v20h248v252h20v-252h248v-20h-248v-243h-20zM48 0v20h525v-20h-525z" />
    <glyph glyph-name="uni00B2" unicode="&#xb2;" horiz-adv-x="362" 
d="M83 453h238v-7l-18 -46h-269l-5 6l60 60q80 78 113.5 129.5t33.5 99.5q0 37 -19.5 58.5t-46.5 21.5q-20 0 -51 -9l-22 -85h-53v63l137 50q62 0 92.5 -26.5t30.5 -66.5q0 -55 -38.5 -101t-126.5 -108z" />
    <glyph glyph-name="uni00B3" unicode="&#xb3;" horiz-adv-x="334" 
d="M42 398v53h139q39 31 39 69q0 34 -30.5 57t-84.5 22l-1 8l32 16q43 22 57 41.5t14 48.5q0 27 -16 43.5t-40 16.5q-12 0 -39 -8l-22 -72h-49v55l141 46q44 0 65.5 -20.5t21.5 -46.5q0 -60 -109 -95q54 -1 88 -26t34 -59t-24.5 -58.5t-75.5 -49.5l-87 -41h-53z" />
    <glyph glyph-name="acute" unicode="&#xb4;" horiz-adv-x="600" 
d="M147 542l65 168h72l-132 -168h-5z" />
    <glyph glyph-name="uni00B5" unicode="&#xb5;" 
d="M443 10q12 -1 37 -2.5t38 -2.5v-5h-94l-41 74v18l-172 -107q-80 0 -100 55v-70l75 -200h-85v690h60v-336q0 -97 66 -97q17 0 34 5.5t28 11.5t38 22l56 33v361h60v-450z" />
    <glyph glyph-name="paragraph" unicode="&#xb6;" horiz-adv-x="455" 
d="M174 -159v569q-62 0 -103 35t-41 94q0 44 36 80t109 81h240v-5l-51 -5v-849h-20v849h-150v-849h-20z" />
    <glyph glyph-name="periodcentered" unicode="&#xb7;" horiz-adv-x="203" 
d="M81 357l-22 4l-4 47l7 38l59 4l23 -4l4 -44l-7 -41z" />
    <glyph glyph-name="cedilla" unicode="&#xb8;" horiz-adv-x="600" 
d="M180 -241l21 30h74q35 23 35 71q0 54 -70 60l51 80h6l-33 -53q34 -2 58.5 -21.5t24.5 -51.5q0 -58 -76 -89l-68 -26h-23z" />
    <glyph glyph-name="uni00B9" unicode="&#xb9;" horiz-adv-x="290" 
d="M41 400v6l84 4v348l-85 -27l-2 6l139 53h6v-380l84 -4v-6h-226z" />
    <glyph glyph-name="ordmasculine" unicode="&#xba;" horiz-adv-x="459" 
d="M219 313q-75 0 -123 53t-48 135q0 87 49 136.5t142 69.5q76 0 124 -53.5t48 -134.5q0 -167 -192 -206zM239 328q53 0 81.5 47t28.5 124q0 87 -36.5 139t-94.5 52q-53 0 -81 -46t-28 -124q0 -81 37 -136.5t93 -55.5z" />
    <glyph glyph-name="guillemotright" unicode="&#xbb;" horiz-adv-x="402" 
d="M30 15l132 220l-132 220h5l182 -220l-181 -220h-6zM200 15l132 220l-132 220h5l182 -220l-181 -220h-6z" />
    <glyph glyph-name="onequarter" unicode="&#xbc;" horiz-adv-x="745" 
d="M130 -50l387 760h24l-385 -760h-26zM41 315v6l84 4v348l-85 -27l-2 6l139 53h6v-380l84 -4v-6h-226zM580 0v124h-166l-5 7l181 254h74v-6l-244 -246h160v92l58 33v-126h81v-8h-81v-124h-58z" />
    <glyph glyph-name="onehalf" unicode="&#xbd;" horiz-adv-x="743" 
d="M517 710h24l-385 -760h-26zM41 321l84 4v348l-85 -27l-2 6l139 53h6v-380l84 -4v-6h-226v6zM464 53h238v-7l-18 -46h-269l-5 6l60 60q80 78 113.5 129.5t33.5 99.5q0 37 -19.5 58.5t-46.5 21.5q-20 0 -51 -9l-22 -85h-53v63l137 50q62 0 92.5 -26.5t30.5 -66.5
q0 -55 -38.5 -101t-126.5 -108z" />
    <glyph glyph-name="threequarters" unicode="&#xbe;" horiz-adv-x="789" 
d="M174 -50l387 760h24l-385 -760h-26zM42 313v53h139q39 31 39 69q0 34 -30.5 57t-84.5 22l-1 8l32 16q43 22 57 41.5t14 48.5q0 27 -16 43.5t-40 16.5q-12 0 -39 -8l-22 -72h-49v55l141 46q44 0 65.5 -20.5t21.5 -46.5q0 -60 -109 -95q54 -1 88 -26t34 -59t-24.5 -58.5
t-75.5 -49.5l-87 -41h-53zM624 0v124h-166l-5 7l181 254h74v-6l-244 -246h160v92l58 33v-126h81v-8h-81v-124h-58z" />
    <glyph glyph-name="questiondown" unicode="&#xbf;" horiz-adv-x="362" 
d="M226 469l18 -4l4 -39l-6 -31l-49 -3l-19 3l-3 37l6 33zM218 265l22 -140l-43 -32q-62 -46 -87.5 -86t-25.5 -104q0 -135 135 -142l29 109h53v-100l-82 -15q-99 0 -149.5 45.5t-50.5 100.5q0 117 107 169l77 38v157h15z" />
    <glyph glyph-name="Agrave" unicode="&#xc0;" horiz-adv-x="692" 
d="M359 767l-119 133h77l47 -133h-5zM5 0v5l82 5l242 673l40 27l238 -700l80 -5v-5h-245v4l88 6l-83 249h-260l-88 -249l90 -6v-4h-184zM191 269h253l-122 367z" />
    <glyph glyph-name="Aacute" unicode="&#xc1;" horiz-adv-x="692" 
d="M348 767l47 133h77l-119 -133h-5zM5 0v5l82 5l242 673l40 27l238 -700l80 -5v-5h-245v4l88 6l-83 249h-260l-88 -249l90 -6v-4h-184zM191 269h253l-122 367z" />
    <glyph glyph-name="Acircumflex" unicode="&#xc2;" horiz-adv-x="692" 
d="M217 767l127 141h4l127 -141h-5l-124 88l-124 -88h-5zM5 0v5l82 5l242 673l40 27l238 -700l80 -5v-5h-245v4l88 6l-83 249h-260l-88 -249l90 -6v-4h-184zM191 269h253l-122 367z" />
    <glyph glyph-name="Atilde" unicode="&#xc3;" horiz-adv-x="692" 
d="M188 771l24 95l63 22l196 -87l27 90h5l-24 -95l-63 -22l-196 88l-27 -91h-5zM5 0v5l82 5l242 673l40 27l238 -700l80 -5v-5h-245v4l88 6l-83 249h-260l-88 -249l90 -6v-4h-184zM191 269h253l-122 367z" />
    <glyph glyph-name="Adieresis" unicode="&#xc4;" horiz-adv-x="692" 
d="M223 799l-18 4l-4 39l7 30l47 4l19 -4l4 -36l-7 -33zM435 799l-18 4l-4 39l7 30l47 4l19 -4l4 -36l-7 -33zM5 0v5l82 5l242 673l40 27l238 -700l80 -5v-5h-245v4l88 6l-83 249h-260l-88 -249l90 -6v-4h-184zM191 269h253l-122 367z" />
    <glyph glyph-name="Aring" unicode="&#xc5;" horiz-adv-x="692" 
d="M345 729q-41 0 -69.5 22.5t-28.5 68.5q0 21 5.5 35.5t21.5 25.5t25.5 15.5t35.5 14.5q7 3 10 4q41 0 70 -23t29 -68q0 -27 -13.5 -45.5t-29 -26.5t-45.5 -19q-7 -3 -11 -4zM345 745q33 0 53.5 21t20.5 56t-20.5 56t-53.5 21t-53 -21t-20 -56t20 -56t53 -21zM5 0v5l82 5
l242 673l40 27l238 -700l80 -5v-5h-245v4l88 6l-83 249h-260l-88 -249l90 -6v-4h-184zM191 269h253l-122 367z" />
    <glyph glyph-name="AE" unicode="&#xc6;" horiz-adv-x="940" 
d="M5 0v5l82 5l416 690h403v-176h-5l-61 166h-266v-348h148l40 114h5v-237h-5l-40 113h-148v-322h275l61 170h5v-180h-503v5l92 5v322h-210l-194 -322l90 -6v-4h-185zM300 342h204v344z" />
    <glyph glyph-name="Ccedilla" unicode="&#xc7;" horiz-adv-x="664" 
d="M381 705q-111 0 -186 -92t-75 -260q0 -89 23.5 -162.5t79.5 -127t138 -63.5h1q22 -2 34 -2q47 0 90.5 20t71.5 49l51 134h5v-150q-109 -51 -237 -66q-16 0 -24 1l-24 -39q34 -2 58.5 -21.5t24.5 -51.5q0 -58 -76 -89l-68 -26h-23l21 30h74q35 23 35 71q0 54 -70 60l42 66
q-129 11 -218 105t-89 248q0 162 95.5 262t249.5 114q127 0 229 -53v-150h-5l-51 123q-72 70 -177 70z" />
    <glyph glyph-name="Egrave" unicode="&#xc8;" horiz-adv-x="599" 
d="M333 767l-119 133h77l47 -133h-5zM30 0v5l92 5v680l-92 5v5h530v-176h-5l-61 166h-302v-319h184l40 114h5v-237h-5l-40 113h-184v-351h311l61 170h5v-180h-539z" />
    <glyph glyph-name="Eacute" unicode="&#xc9;" horiz-adv-x="599" 
d="M322 767l47 133h77l-119 -133h-5zM30 0v5l92 5v680l-92 5v5h530v-176h-5l-61 166h-302v-319h184l40 114h5v-237h-5l-40 113h-184v-351h311l61 170h5v-180h-539z" />
    <glyph glyph-name="Ecircumflex" unicode="&#xca;" horiz-adv-x="599" 
d="M191 767l127 141h4l127 -141h-5l-124 88l-124 -88h-5zM30 0v5l92 5v680l-92 5v5h530v-176h-5l-61 166h-302v-319h184l40 114h5v-237h-5l-40 113h-184v-351h311l61 170h5v-180h-539z" />
    <glyph glyph-name="Edieresis" unicode="&#xcb;" horiz-adv-x="599" 
d="M197 799l-18 4l-4 39l7 30l47 4l19 -4l4 -36l-7 -33zM409 799l-18 4l-4 39l7 30l47 4l19 -4l4 -36l-7 -33zM30 0v5l92 5v680l-92 5v5h530v-176h-5l-61 166h-302v-319h184l40 114h5v-237h-5l-40 113h-184v-351h311l61 170h5v-180h-539z" />
    <glyph glyph-name="Igrave" unicode="&#xcc;" horiz-adv-x="314" 
d="M170 767l-119 133h77l47 -133h-5zM30 0v5l92 5v680l-92 5v5h254v-5l-92 -5v-680l92 -5v-5h-254z" />
    <glyph glyph-name="Iacute" unicode="&#xcd;" horiz-adv-x="314" 
d="M159 767l47 133h77l-119 -133h-5zM30 0v5l92 5v680l-92 5v5h254v-5l-92 -5v-680l92 -5v-5h-254z" />
    <glyph glyph-name="Icircumflex" unicode="&#xce;" horiz-adv-x="314" 
d="M28 767l127 141h4l127 -141h-5l-124 88l-124 -88h-5zM30 0v5l92 5v680l-92 5v5h254v-5l-92 -5v-680l92 -5v-5h-254z" />
    <glyph glyph-name="Idieresis" unicode="&#xcf;" horiz-adv-x="314" 
d="M34 799l-18 4l-4 39l7 30l47 4l19 -4l4 -36l-7 -33zM246 799l-18 4l-4 39l7 30l47 4l19 -4l4 -36l-7 -33zM30 0v5l92 5v680l-92 5v5h254v-5l-92 -5v-680l92 -5v-5h-254z" />
    <glyph glyph-name="Eth" unicode="&#xd0;" horiz-adv-x="718" 
d="M339 700q154 0 246.5 -89.5t92.5 -249.5q0 -159 -89 -260t-248 -101h-311v5l102 5v354h-92v5h92v321l-102 5v5h309zM346 5q113 0 182.5 96.5t69.5 255.5q0 158 -65 248t-202 90l-129 -5v-321h148v-5h-148v-354z" />
    <glyph glyph-name="Ntilde" unicode="&#xd1;" horiz-adv-x="695" 
d="M220 771l24 95l63 22l196 -87l27 90h5l-24 -95l-63 -22l-196 88l-27 -91h-5zM563 -5l-431 687v-672l92 -5v-5h-194v5l92 5v680l-92 5v5h172l381 -605v595l-91 5v5h193v-5l-92 -5v-695h-30z" />
    <glyph glyph-name="Ograve" unicode="&#xd2;" horiz-adv-x="752" 
d="M394 767l-119 133h77l47 -133h-5zM366 -15q-141 0 -233.5 102t-92.5 249q0 162 87 260t258 119q141 0 234 -102t93 -249q0 -162 -87.5 -260t-258.5 -119zM397 3q107 0 171 92.5t64 241.5q0 155 -79 257.5t-198 102.5q-107 0 -171 -92.5t-64 -241.5q0 -155 79 -257.5
t198 -102.5z" />
    <glyph glyph-name="Oacute" unicode="&#xd3;" horiz-adv-x="752" 
d="M383 767l47 133h77l-119 -133h-5zM366 -15q-141 0 -233.5 102t-92.5 249q0 162 87 260t258 119q141 0 234 -102t93 -249q0 -162 -87.5 -260t-258.5 -119zM397 3q107 0 171 92.5t64 241.5q0 155 -79 257.5t-198 102.5q-107 0 -171 -92.5t-64 -241.5q0 -155 79 -257.5
t198 -102.5z" />
    <glyph glyph-name="Ocircumflex" unicode="&#xd4;" horiz-adv-x="752" 
d="M252 767l127 141h4l127 -141h-5l-124 88l-124 -88h-5zM366 -15q-141 0 -233.5 102t-92.5 249q0 162 87 260t258 119q141 0 234 -102t93 -249q0 -162 -87.5 -260t-258.5 -119zM397 3q107 0 171 92.5t64 241.5q0 155 -79 257.5t-198 102.5q-107 0 -171 -92.5t-64 -241.5
q0 -155 79 -257.5t198 -102.5z" />
    <glyph glyph-name="Otilde" unicode="&#xd5;" horiz-adv-x="752" 
d="M223 771l24 95l63 22l196 -87l27 90h5l-24 -95l-63 -22l-196 88l-27 -91h-5zM366 -15q-141 0 -233.5 102t-92.5 249q0 162 87 260t258 119q141 0 234 -102t93 -249q0 -162 -87.5 -260t-258.5 -119zM397 3q107 0 171 92.5t64 241.5q0 155 -79 257.5t-198 102.5
q-107 0 -171 -92.5t-64 -241.5q0 -155 79 -257.5t198 -102.5z" />
    <glyph glyph-name="Odieresis" unicode="&#xd6;" horiz-adv-x="752" 
d="M258 799l-18 4l-4 39l7 30l47 4l19 -4l4 -36l-7 -33zM470 799l-18 4l-4 39l7 30l47 4l19 -4l4 -36l-7 -33zM366 -15q-141 0 -233.5 102t-92.5 249q0 162 87 260t258 119q141 0 234 -102t93 -249q0 -162 -87.5 -260t-258.5 -119zM397 3q107 0 171 92.5t64 241.5
q0 155 -79 257.5t-198 102.5q-107 0 -171 -92.5t-64 -241.5q0 -155 79 -257.5t198 -102.5z" />
    <glyph glyph-name="multiply" unicode="&#xd7;" 
d="M127 32l-14 14l182 183l-182 183l14 14l183 -183l181 182l14 -14l-181 -182l183 -182l-14 -14l-183 182z" />
    <glyph glyph-name="Oslash" unicode="&#xd8;" horiz-adv-x="752" 
d="M603 630q109 -104 109 -266t-87.5 -260t-258.5 -119q-117 0 -205 74l-57 -74h-12l62 80q-54 49 -84 119.5t-30 151.5q0 162 87 260t258 119q122 0 212 -80l62 80h10zM120 363q0 -147 72 -249l367 472q-80 111 -204 111q-107 0 -171 -92.5t-64 -241.5zM397 3
q107 0 171 92.5t64 241.5q0 142 -68 242l-366 -472q80 -104 199 -104z" />
    <glyph glyph-name="Ugrave" unicode="&#xd9;" horiz-adv-x="664" 
d="M368 767l-119 133h77l47 -133h-5zM340 -15q-239 0 -239 264v441l-91 5v5h253v-5l-92 -5v-451q0 -98 51 -162t147 -64q80 0 129 65t49 161v451l-92 5v5h199v-5l-92 -5v-448q0 -106 -49.5 -172.5t-172.5 -84.5z" />
    <glyph glyph-name="Uacute" unicode="&#xda;" horiz-adv-x="664" 
d="M357 767l47 133h77l-119 -133h-5zM340 -15q-239 0 -239 264v441l-91 5v5h253v-5l-92 -5v-451q0 -98 51 -162t147 -64q80 0 129 65t49 161v451l-92 5v5h199v-5l-92 -5v-448q0 -106 -49.5 -172.5t-172.5 -84.5z" />
    <glyph glyph-name="Ucircumflex" unicode="&#xdb;" horiz-adv-x="664" 
d="M226 767l127 141h4l127 -141h-5l-124 88l-124 -88h-5zM340 -15q-239 0 -239 264v441l-91 5v5h253v-5l-92 -5v-451q0 -98 51 -162t147 -64q80 0 129 65t49 161v451l-92 5v5h199v-5l-92 -5v-448q0 -106 -49.5 -172.5t-172.5 -84.5z" />
    <glyph glyph-name="Udieresis" unicode="&#xdc;" horiz-adv-x="664" 
d="M232 799l-18 4l-4 39l7 30l47 4l19 -4l4 -36l-7 -33zM444 799l-18 4l-4 39l7 30l47 4l19 -4l4 -36l-7 -33zM340 -15q-239 0 -239 264v441l-91 5v5h253v-5l-92 -5v-451q0 -98 51 -162t147 -64q80 0 129 65t49 161v451l-92 5v5h199v-5l-92 -5v-448q0 -106 -49.5 -172.5
t-172.5 -84.5z" />
    <glyph glyph-name="Yacute" unicode="&#xdd;" horiz-adv-x="679" 
d="M372 767l47 133h77l-119 -133h-5zM196 0v5l115 5v263l-229 417l-77 5v5h251v-5l-94 -5l212 -387l211 387l-104 5v5h193v-5l-77 -5l-216 -397v-283l115 -5v-5h-300z" />
    <glyph glyph-name="Thorn" unicode="&#xde;" horiz-adv-x="568" 
d="M30 0v5l92 5v680l-92 5v5h265v-5l-103 -5v-141h147q94 0 154 -47.5t60 -131.5q0 -46 -19.5 -81.5t-55.5 -58.5t-73.5 -37.5t-86.5 -25.5h-126v-157l102 -5v-5h-264zM192 177h99q80 0 131 53t51 132q0 77 -40.5 127t-124.5 50h-116v-362z" />
    <glyph glyph-name="germandbls" unicode="&#xdf;" horiz-adv-x="534" 
d="M353 -15q-65 0 -141 41v123h5l46 -98q54 -46 110 -46q44 0 67.5 28t23.5 70q0 32 -16.5 57.5t-53.5 54.5l-61 49q-45 35 -66 63t-24 69l62 27q40 17 65 57t25 95q0 48 -28.5 87t-85.5 39q-61 0 -93.5 -43t-32.5 -128v-530h-130v5l70 5v440h-70v5l70 5v30q0 28 5 54
t17 54.5t35.5 52t56.5 37.5l72 30q79 0 129 -35.5t50 -97.5q0 -59 -44 -106.5t-118 -65.5q5 -29 22 -50.5t57 -51.5l65 -52q38 -30 55 -55.5t17 -61.5q0 -52 -47.5 -98t-113.5 -59z" />
    <glyph glyph-name="agrave" unicode="&#xe0;" horiz-adv-x="439" 
d="M217 542l-132 168h72l65 -168h-5zM156 -15q-59 0 -92.5 30.5t-33.5 83.5q0 57 53 99l212 72v51q0 30 -2 45.5t-11 35.5t-31 28.5t-59 8.5q-26 0 -70 -13l-25 -101h-54v67l171 83q48 0 77 -9.5t42.5 -32t17.5 -45.5t4 -62v-219q0 -42 20 -94l58 8l1 -4l-120 -22l-18 89z
M172 31q41 0 90 35l33 24v175l-150 -58q-50 -38 -50 -91q0 -38 21.5 -61.5t55.5 -23.5z" />
    <glyph glyph-name="aacute" unicode="&#xe1;" horiz-adv-x="439" 
d="M215 542l65 168h72l-132 -168h-5zM156 -15q-59 0 -92.5 30.5t-33.5 83.5q0 57 53 99l212 72v51q0 30 -2 45.5t-11 35.5t-31 28.5t-59 8.5q-26 0 -70 -13l-25 -101h-54v67l171 83q48 0 77 -9.5t42.5 -32t17.5 -45.5t4 -62v-219q0 -42 20 -94l58 8l1 -4l-120 -22l-18 89z
M172 31q41 0 90 35l33 24v175l-150 -58q-50 -38 -50 -91q0 -38 21.5 -61.5t55.5 -23.5z" />
    <glyph glyph-name="acircumflex" unicode="&#xe2;" horiz-adv-x="439" 
d="M91 542l127 168h4l127 -168h-5l-124 98l-124 -98h-5zM156 -15q-59 0 -92.5 30.5t-33.5 83.5q0 57 53 99l212 72v51q0 30 -2 45.5t-11 35.5t-31 28.5t-59 8.5q-26 0 -70 -13l-25 -101h-54v67l171 83q48 0 77 -9.5t42.5 -32t17.5 -45.5t4 -62v-219q0 -42 20 -94l58 8l1 -4
l-120 -22l-18 89zM172 31q41 0 90 35l33 24v175l-150 -58q-50 -38 -50 -91q0 -38 21.5 -61.5t55.5 -23.5z" />
    <glyph glyph-name="atilde" unicode="&#xe3;" horiz-adv-x="439" 
d="M290 578l-196 88l-27 -91h-5l24 95l63 22l196 -87l27 90h5l-24 -95zM156 -15q-59 0 -92.5 30.5t-33.5 83.5q0 57 53 99l212 72v51q0 30 -2 45.5t-11 35.5t-31 28.5t-59 8.5q-26 0 -70 -13l-25 -101h-54v67l171 83q48 0 77 -9.5t42.5 -32t17.5 -45.5t4 -62v-219
q0 -42 20 -94l58 8l1 -4l-120 -22l-18 89zM172 31q41 0 90 35l33 24v175l-150 -58q-50 -38 -50 -91q0 -38 21.5 -61.5t55.5 -23.5z" />
    <glyph glyph-name="adieresis" unicode="&#xe4;" horiz-adv-x="439" 
d="M123 597l-18 4l-4 39l7 30l47 4l19 -4l4 -36l-7 -33zM283 597l-18 4l-4 39l7 30l47 4l19 -4l4 -36l-7 -33zM156 -15q-59 0 -92.5 30.5t-33.5 83.5q0 57 53 99l212 72v51q0 30 -2 45.5t-11 35.5t-31 28.5t-59 8.5q-26 0 -70 -13l-25 -101h-54v67l171 83q48 0 77 -9.5
t42.5 -32t17.5 -45.5t4 -62v-219q0 -42 20 -94l58 8l1 -4l-120 -22l-18 89zM172 31q41 0 90 35l33 24v175l-150 -58q-50 -38 -50 -91q0 -38 21.5 -61.5t55.5 -23.5z" />
    <glyph glyph-name="aring" unicode="&#xe5;" horiz-adv-x="439" 
d="M219 539q-41 0 -69.5 22.5t-28.5 68.5q0 21 5.5 35.5t21.5 25.5t25.5 15.5t35.5 14.5q7 3 10 4q41 0 70 -23t29 -68q0 -27 -13.5 -45.5t-29 -26.5t-45.5 -19q-7 -3 -11 -4zM219 555q33 0 53.5 21t20.5 56t-20.5 56t-53.5 21t-53 -21t-20 -56t20 -56t53 -21zM156 -15
q-59 0 -92.5 30.5t-33.5 83.5q0 57 53 99l212 72v51q0 30 -2 45.5t-11 35.5t-31 28.5t-59 8.5q-26 0 -70 -13l-25 -101h-54v67l171 83q48 0 77 -9.5t42.5 -32t17.5 -45.5t4 -62v-219q0 -42 20 -94l58 8l1 -4l-120 -22l-18 89zM172 31q41 0 90 35l33 24v175l-150 -58
q-50 -38 -50 -91q0 -38 21.5 -61.5t55.5 -23.5z" />
    <glyph glyph-name="ae" unicode="&#xe6;" horiz-adv-x="697" 
d="M658 84l4 -6q-77 -57 -164 -93q-65 0 -117.5 29.5t-76.5 89.5l-148 -119q-59 0 -92.5 30.5t-33.5 83.5q0 57 53 99l205 72v51q0 23 -0.5 35.5t-5.5 30.5t-14 27.5t-27 17t-44 7.5q-29 0 -73 -13l-25 -101h-54v67l167 83q67 0 96 -17.5t36 -71.5q50 60 161 89
q149 0 149 -180v-26h-295q-1 -9 -1 -26q0 -102 45.5 -155t119.5 -53q60 0 135 49zM481 454q-113 0 -122 -180h225q0 39 -4 68.5t-14.5 56.5t-32 41t-52.5 14zM255 73l47 37q-14 39 -14 88v67l-143 -58q-50 -38 -50 -90q0 -39 21.5 -62.5t54.5 -23.5q15 0 31.5 7.5t24 13
t28.5 21.5z" />
    <glyph glyph-name="ccedilla" unicode="&#xe7;" horiz-adv-x="422" 
d="M226 -53q34 -2 58.5 -21.5t24.5 -51.5q0 -58 -76 -89l-68 -26h-23l21 30h74q35 23 35 71q0 54 -70 60l41 65q-91 2 -149.5 63.5t-58.5 165.5q0 114 66 180.5t161 80.5q27 0 65.5 -16.5t60.5 -34.5v-76h-48l-43 102q-23 8 -47 8q-71 0 -114 -49t-43 -150q0 -95 48 -159.5
t123 -64.5q69 0 130 54l3 -4q-58 -56 -147 -100z" />
    <glyph glyph-name="egrave" unicode="&#xe8;" horiz-adv-x="448" 
d="M246 542h-5l-132 168h72zM410 84l3 -3q-84 -65 -158 -96q-90 0 -155 60t-65 168q0 110 57.5 175.5t149.5 86.5q164 0 164 -180v-21h-312q-1 -8 -1 -26q0 -98 52.5 -155.5t134.5 -57.5q56 0 130 49zM223 454q-58 0 -91 -45.5t-38 -129.5h242q0 82 -24 128.5t-89 46.5z" />
    <glyph glyph-name="eacute" unicode="&#xe9;" horiz-adv-x="448" 
d="M376 710l-132 -168h-5l65 168h72zM410 84l3 -3q-84 -65 -158 -96q-90 0 -155 60t-65 168q0 110 57.5 175.5t149.5 86.5q164 0 164 -180v-21h-312q-1 -8 -1 -26q0 -98 52.5 -155.5t134.5 -57.5q56 0 130 49zM223 454q-58 0 -91 -45.5t-38 -129.5h242q0 82 -24 128.5
t-89 46.5z" />
    <glyph glyph-name="ecircumflex" unicode="&#xea;" horiz-adv-x="448" 
d="M244 640l-124 -98h-5l127 168h4l127 -168h-5zM410 84l3 -3q-84 -65 -158 -96q-90 0 -155 60t-65 168q0 110 57.5 175.5t149.5 86.5q164 0 164 -180v-21h-312q-1 -8 -1 -26q0 -98 52.5 -155.5t134.5 -57.5q56 0 130 49zM223 454q-58 0 -91 -45.5t-38 -129.5h242
q0 82 -24 128.5t-89 46.5z" />
    <glyph glyph-name="edieresis" unicode="&#xeb;" horiz-adv-x="448" 
d="M147 597l-18 4l-4 39l7 30l47 4l19 -4l4 -36l-7 -33zM307 597l-18 4l-4 39l7 30l47 4l19 -4l4 -36l-7 -33zM410 84l3 -3q-84 -65 -158 -96q-90 0 -155 60t-65 168q0 110 57.5 175.5t149.5 86.5q164 0 164 -180v-21h-312q-1 -8 -1 -26q0 -98 52.5 -155.5t134.5 -57.5
q56 0 130 49zM223 454q-58 0 -91 -45.5t-38 -129.5h242q0 82 -24 128.5t-89 46.5z" />
    <glyph glyph-name="igrave" unicode="&#xec;" horiz-adv-x="254" 
d="M131 542l-132 168h72l65 -168h-5zM34 0v5l70 5v436l-73 -19l-1 4l129 39h5v-460l70 -5v-5h-200z" />
    <glyph glyph-name="iacute" unicode="&#xed;" horiz-adv-x="254" 
d="M129 542l65 168h72l-132 -168h-5zM34 0v5l70 5v436l-73 -19l-1 4l129 39h5v-460l70 -5v-5h-200z" />
    <glyph glyph-name="icircumflex" unicode="&#xee;" horiz-adv-x="254" 
d="M5 542l127 168h4l127 -168h-5l-124 98l-124 -98h-5zM34 0v5l70 5v436l-73 -19l-1 4l129 39h5v-460l70 -5v-5h-200z" />
    <glyph glyph-name="idieresis" unicode="&#xef;" horiz-adv-x="254" 
d="M37 597l-18 4l-4 39l7 30l47 4l19 -4l4 -36l-7 -33zM197 597l-18 4l-4 39l7 30l47 4l19 -4l4 -36l-7 -33zM34 0v5l70 5v436l-73 -19l-1 4l129 39h5v-460l70 -5v-5h-200z" />
    <glyph glyph-name="eth" unicode="&#xf0;" horiz-adv-x="489" 
d="M272 636q84 -66 130.5 -164.5t46.5 -210.5q0 -70 -22.5 -131.5t-69.5 -103t-110 -41.5q-116 28 -169 100t-53 166q0 56 18.5 105.5t60.5 84t100 34.5l176 -101q-17 159 -121 256l-137 -67v6l133 65q-66 57 -153 81l2 5q92 -26 163 -80l107 52v-6zM220 12q74 0 118.5 92
t44.5 211q0 17 -2 51l-44 23q-76 40 -121 40q-60 0 -92.5 -56.5t-32.5 -160.5t31.5 -152t97.5 -48z" />
    <glyph glyph-name="ntilde" unicode="&#xf1;" horiz-adv-x="555" 
d="M348 578l-196 88l-27 -91h-5l24 95l63 22l196 -87l27 90h5l-24 -95zM34 0v5l70 5v436l-73 -19l-1 4l129 39h5v-109l184 114q63 0 85.5 -35t22.5 -112v-318l82 -5v-5h-196v5l54 5v324q0 54 -17 74.5t-54 20.5q-7 0 -13.5 -0.5t-13 -2.5t-11.5 -3t-12.5 -4.5t-11.5 -5
t-13 -7t-12.5 -7.5t-14.5 -9t-15 -9l-44 -26v-345l55 -5v-5h-185z" />
    <glyph glyph-name="ograve" unicode="&#xf2;" horiz-adv-x="507" 
d="M251 542l-132 168h72l65 -168h-5zM242 -15q-91 0 -149 66.5t-58 167.5q0 207 229 256q92 0 150 -66.5t58 -167.5q0 -210 -230 -256zM266 2q67 0 103.5 61t36.5 156q0 107 -46.5 172t-119.5 65q-67 0 -103 -59t-36 -156q0 -99 46.5 -169t118.5 -70z" />
    <glyph glyph-name="oacute" unicode="&#xf3;" horiz-adv-x="507" 
d="M249 542l65 168h72l-132 -168h-5zM242 -15q-91 0 -149 66.5t-58 167.5q0 207 229 256q92 0 150 -66.5t58 -167.5q0 -210 -230 -256zM266 2q67 0 103.5 61t36.5 156q0 107 -46.5 172t-119.5 65q-67 0 -103 -59t-36 -156q0 -99 46.5 -169t118.5 -70z" />
    <glyph glyph-name="ocircumflex" unicode="&#xf4;" horiz-adv-x="507" 
d="M125 542l127 168h4l127 -168h-5l-124 98l-124 -98h-5zM242 -15q-91 0 -149 66.5t-58 167.5q0 207 229 256q92 0 150 -66.5t58 -167.5q0 -210 -230 -256zM266 2q67 0 103.5 61t36.5 156q0 107 -46.5 172t-119.5 65q-67 0 -103 -59t-36 -156q0 -99 46.5 -169t118.5 -70z
" />
    <glyph glyph-name="otilde" unicode="&#xf5;" horiz-adv-x="507" 
d="M324 578l-196 88l-27 -91h-5l24 95l63 22l196 -87l27 90h5l-24 -95zM242 -15q-91 0 -149 66.5t-58 167.5q0 207 229 256q92 0 150 -66.5t58 -167.5q0 -210 -230 -256zM266 2q67 0 103.5 61t36.5 156q0 107 -46.5 172t-119.5 65q-67 0 -103 -59t-36 -156q0 -99 46.5 -169
t118.5 -70z" />
    <glyph glyph-name="odieresis" unicode="&#xf6;" horiz-adv-x="507" 
d="M157 597l-18 4l-4 39l7 30l47 4l19 -4l4 -36l-7 -33zM317 597l-18 4l-4 39l7 30l47 4l19 -4l4 -36l-7 -33zM242 -15q-91 0 -149 66.5t-58 167.5q0 207 229 256q92 0 150 -66.5t58 -167.5q0 -210 -230 -256zM266 2q67 0 103.5 61t36.5 156q0 107 -46.5 172t-119.5 65
q-67 0 -103 -59t-36 -156q0 -99 46.5 -169t118.5 -70z" />
    <glyph glyph-name="divide" unicode="&#xf7;" 
d="M295 384l-18 4l-4 39l6 31l49 3l19 -3l3 -37l-6 -33zM47 235v20h526v-20h-526zM295 26l-18 4l-4 39l6 31l49 3l19 -3l3 -37l-6 -33z" />
    <glyph glyph-name="oslash" unicode="&#xf8;" horiz-adv-x="507" 
d="M411 412q61 -67 61 -171q0 -210 -230 -256q-85 0 -140 57l-44 -52h-13l50 59q-60 66 -60 170q0 207 229 256q84 0 140 -56l52 61h11zM101 241q0 -82 33 -145l235 280q-47 80 -129 80q-67 0 -103 -59t-36 -156zM266 2q67 0 103.5 61t36.5 156q0 88 -33 149l-234 -282
q48 -84 127 -84z" />
    <glyph glyph-name="ugrave" unicode="&#xf9;" horiz-adv-x="527" 
d="M261 542l-132 168h72l65 -168h-5zM195 -15q-66 0 -88 33.5t-22 111.5v318l-74 -10l-1 5l130 22h5v-341q0 -97 66 -97q39 0 100 39l56 33v349l-74 -10l-1 5l130 22h5v-341q0 -49 15 -109l59 7l1 -5l-119 -22l-16 97z" />
    <glyph glyph-name="uacute" unicode="&#xfa;" horiz-adv-x="527" 
d="M259 542l65 168h72l-132 -168h-5zM195 -15q-66 0 -88 33.5t-22 111.5v318l-74 -10l-1 5l130 22h5v-341q0 -97 66 -97q39 0 100 39l56 33v349l-74 -10l-1 5l130 22h5v-341q0 -49 15 -109l59 7l1 -5l-119 -22l-16 97z" />
    <glyph glyph-name="ucircumflex" unicode="&#xfb;" horiz-adv-x="527" 
d="M135 542l127 168h4l127 -168h-5l-124 98l-124 -98h-5zM195 -15q-66 0 -88 33.5t-22 111.5v318l-74 -10l-1 5l130 22h5v-341q0 -97 66 -97q39 0 100 39l56 33v349l-74 -10l-1 5l130 22h5v-341q0 -49 15 -109l59 7l1 -5l-119 -22l-16 97z" />
    <glyph glyph-name="udieresis" unicode="&#xfc;" horiz-adv-x="527" 
d="M167 597l-18 4l-4 39l7 30l47 4l19 -4l4 -36l-7 -33zM327 597l-18 4l-4 39l7 30l47 4l19 -4l4 -36l-7 -33zM195 -15q-66 0 -88 33.5t-22 111.5v318l-74 -10l-1 5l130 22h5v-341q0 -97 66 -97q39 0 100 39l56 33v349l-74 -10l-1 5l130 22h5v-341q0 -49 15 -109l59 7l1 -5
l-119 -22l-16 97z" />
    <glyph glyph-name="yacute" unicode="&#xfd;" horiz-adv-x="516" 
d="M253 542l65 168h72l-132 -168h-5zM94 -235v70h87l103 198l-52 -30l-166 447l-61 5v5h192v-5l-60 -5l151 -406l144 406l-75 5v5h154v-5l-67 -5l-149 -418l-116 -267h-85z" />
    <glyph glyph-name="thorn" unicode="&#xfe;" horiz-adv-x="509" 
d="M17 -230v5l72 5v910l-73 -19l-1 4l129 39h5v-338l149 99q76 0 126 -62.5t50 -149.5q0 -107 -57 -179.5t-169 -98.5q-63 0 -99 31v-236l107 -5v-5h-239zM255 -2q68 1 111 64t43 167q0 84 -35.5 142t-97.5 58q-13 0 -22.5 -1.5t-21 -7t-17 -8.5t-21.5 -13.5t-23 -15.5
l-22 -14v-314q35 -58 106 -57z" />
    <glyph glyph-name="ydieresis" unicode="&#xff;" horiz-adv-x="516" 
d="M161 597l-18 4l-4 39l7 30l47 4l19 -4l4 -36l-7 -33zM321 597l-18 4l-4 39l7 30l47 4l19 -4l4 -36l-7 -33zM94 -235v70h87l103 198l-52 -30l-166 447l-61 5v5h192v-5l-60 -5l151 -406l144 406l-75 5v5h154v-5l-67 -5l-149 -418l-116 -267h-85z" />
    <glyph glyph-name="Amacron" unicode="&#x100;" horiz-adv-x="692" 
d="M206 800v20h280v-20h-280zM5 0v5l82 5l242 673l40 27l238 -700l80 -5v-5h-245v4l88 6l-83 249h-260l-88 -249l90 -6v-4h-184zM191 269h253l-122 367z" />
    <glyph glyph-name="amacron" unicode="&#x101;" horiz-adv-x="439" 
d="M80 620v20h280v-20h-280zM156 -15q-59 0 -92.5 30.5t-33.5 83.5q0 57 53 99l212 72v51q0 30 -2 45.5t-11 35.5t-31 28.5t-59 8.5q-26 0 -70 -13l-25 -101h-54v67l171 83q48 0 77 -9.5t42.5 -32t17.5 -45.5t4 -62v-219q0 -42 20 -94l58 8l1 -4l-120 -22l-18 89zM172 31
q41 0 90 35l33 24v175l-150 -58q-50 -38 -50 -91q0 -38 21.5 -61.5t55.5 -23.5z" />
    <glyph glyph-name="Abreve" unicode="&#x102;" horiz-adv-x="692" 
d="M357 754q-51 0 -84 35t-49 82l4 3q15 -29 45.5 -53.5t72.5 -24.5q67 0 117 79l4 -3q-25 -71 -110 -118zM5 0v5l82 5l242 673l40 27l238 -700l80 -5v-5h-245v4l88 6l-83 249h-260l-88 -249l90 -6v-4h-184zM191 269h253l-122 367z" />
    <glyph glyph-name="abreve" unicode="&#x103;" horiz-adv-x="439" 
d="M224 566q-58 0 -96 39.5t-54 92.5l4 3q18 -31 52 -56t81 -26q25 0 46.5 7.5t38.5 22.5t26 26t21 27l4 -3q-11 -32 -41.5 -68.5t-81.5 -64.5zM156 -15q-59 0 -92.5 30.5t-33.5 83.5q0 57 53 99l212 72v51q0 30 -2 45.5t-11 35.5t-31 28.5t-59 8.5q-26 0 -70 -13l-25 -101
h-54v67l171 83q48 0 77 -9.5t42.5 -32t17.5 -45.5t4 -62v-219q0 -42 20 -94l58 8l1 -4l-120 -22l-18 89zM172 31q41 0 90 35l33 24v175l-150 -58q-50 -38 -50 -91q0 -38 21.5 -61.5t55.5 -23.5z" />
    <glyph glyph-name="Aogonek" unicode="&#x104;" horiz-adv-x="692" 
d="M534 0l-61 -128v-43q0 -65 120 -65v-5q-85 0 -122.5 25t-37.5 77v34l96 117l-82 247h-260l-88 -249l90 -6v-4h-184v5l82 5l242 673l40 27l238 -700l80 -5v-5h-153zM191 269h253l-122 367z" />
    <glyph glyph-name="aogonek" unicode="&#x105;" horiz-adv-x="439" 
d="M267 -171q0 -65 120 -65v-5q-85 0 -122.5 25t-37.5 77v34l86 104l-17 85l-140 -99q-59 0 -92.5 30.5t-33.5 83.5q0 57 53 99l212 72v51q0 30 -2 45.5t-11 35.5t-31 28.5t-59 8.5q-26 0 -70 -13l-25 -101h-54v67l171 83q48 0 77 -9.5t42.5 -32t17.5 -45.5t4 -62v-219
q0 -42 20 -94l58 8l1 -4l-108 -20l-59 -125v-43zM295 90v175l-150 -58q-50 -38 -50 -91q0 -38 21.5 -61.5t55.5 -23.5q41 0 90 35z" />
    <glyph glyph-name="Cacute" unicode="&#x106;" horiz-adv-x="664" 
d="M374 767l47 133h77l-119 -133h-5zM377 -15q-139 0 -238 95.5t-99 258.5q0 162 95.5 262t249.5 114q127 0 229 -53v-150h-5l-51 123q-72 70 -177 70q-111 0 -186 -92t-75 -260q0 -70 16 -131.5t48 -112.5t86.5 -81t125.5 -30q47 0 90.5 20t71.5 49l51 134h5v-150
q-109 -51 -237 -66z" />
    <glyph glyph-name="cacute" unicode="&#x107;" horiz-adv-x="422" 
d="M233 542l65 168h72l-132 -168h-5zM249 -15q-93 0 -153.5 61.5t-60.5 167.5q0 114 66 180.5t161 80.5q27 0 65.5 -16.5t60.5 -34.5v-76h-48l-43 102q-23 8 -47 8q-71 0 -114 -49t-43 -150q0 -95 48 -159.5t123 -64.5q69 0 130 54l3 -4q-57 -55 -148 -100z" />
    <glyph glyph-name="Ccircumflex" unicode="&#x108;" horiz-adv-x="664" 
d="M243 767l127 141h4l127 -141h-5l-124 88l-124 -88h-5zM377 -15q-139 0 -238 95.5t-99 258.5q0 162 95.5 262t249.5 114q127 0 229 -53v-150h-5l-51 123q-72 70 -177 70q-111 0 -186 -92t-75 -260q0 -70 16 -131.5t48 -112.5t86.5 -81t125.5 -30q47 0 90.5 20t71.5 49
l51 134h5v-150q-109 -51 -237 -66z" />
    <glyph glyph-name="ccircumflex" unicode="&#x109;" horiz-adv-x="422" 
d="M109 542l127 168h4l127 -168h-5l-124 98l-124 -98h-5zM249 -15q-93 0 -153.5 61.5t-60.5 167.5q0 114 66 180.5t161 80.5q27 0 65.5 -16.5t60.5 -34.5v-76h-48l-43 102q-23 8 -47 8q-71 0 -114 -49t-43 -150q0 -95 48 -159.5t123 -64.5q69 0 130 54l3 -4
q-57 -55 -148 -100z" />
    <glyph glyph-name="Cdotaccent" unicode="&#x10a;" horiz-adv-x="664" 
d="M362 800l-20 4l-4 43l7 34l53 4l21 -4l4 -40l-7 -37zM377 -15q-139 0 -238 95.5t-99 258.5q0 162 95.5 262t249.5 114q127 0 229 -53v-150h-5l-51 123q-72 70 -177 70q-111 0 -186 -92t-75 -260q0 -70 16 -131.5t48 -112.5t86.5 -81t125.5 -30q47 0 90.5 20t71.5 49
l51 134h5v-150q-109 -51 -237 -66z" />
    <glyph glyph-name="cdotaccent" unicode="&#x10b;" horiz-adv-x="422" 
d="M219 598l-20 4l-4 43l7 34l53 4l21 -4l4 -40l-7 -37zM249 -15q-93 0 -153.5 61.5t-60.5 167.5q0 114 66 180.5t161 80.5q27 0 65.5 -16.5t60.5 -34.5v-76h-48l-43 102q-23 8 -47 8q-71 0 -114 -49t-43 -150q0 -95 48 -159.5t123 -64.5q69 0 130 54l3 -4
q-57 -55 -148 -100z" />
    <glyph glyph-name="Ccaron" unicode="&#x10c;" horiz-adv-x="664" 
d="M370 759l-127 141h5l124 -88l124 88h5l-127 -141h-4zM377 -15q-139 0 -238 95.5t-99 258.5q0 162 95.5 262t249.5 114q127 0 229 -53v-150h-5l-51 123q-72 70 -177 70q-111 0 -186 -92t-75 -260q0 -70 16 -131.5t48 -112.5t86.5 -81t125.5 -30q47 0 90.5 20t71.5 49
l51 134h5v-150q-109 -51 -237 -66z" />
    <glyph glyph-name="ccaron" unicode="&#x10d;" horiz-adv-x="422" 
d="M235 542l-126 168h5l124 -98l124 98h5l-126 -168h-6zM249 -15q-93 0 -153.5 61.5t-60.5 167.5q0 114 66 180.5t161 80.5q27 0 65.5 -16.5t60.5 -34.5v-76h-48l-43 102q-23 8 -47 8q-71 0 -114 -49t-43 -150q0 -95 48 -159.5t123 -64.5q69 0 130 54l3 -4
q-57 -55 -148 -100z" />
    <glyph glyph-name="Dcaron" unicode="&#x10e;" horiz-adv-x="718" 
d="M317 759l-127 141h5l124 -88l124 88h5l-127 -141h-4zM30 0v5l102 5v680l-102 5v5h309q154 0 246.5 -89.5t92.5 -249.5q0 -159 -89 -260t-248 -101h-311zM346 5q113 0 182.5 96.5t69.5 255.5q0 158 -65 248t-202 90l-129 -5v-680z" />
    <glyph glyph-name="dcaron" unicode="&#x10f;" horiz-adv-x="575" 
d="M215 -15q-78 0 -129 66.5t-51 155.5q0 104 57 175.5t169 92.5q55 0 99 -26v240l-69 -14l-2 5l126 35h5v-606q0 -44 19 -90l74 9l1 -4l-133 -29l-20 91zM482 463l-3 1q10 26 29.5 78t29.5 78l-36 -2l-23 4l-4 47l7 37l59 4l25 -4l4 -44l-8 -40zM234 31q25 0 41.5 8
t57.5 36l27 19v318q-37 50 -102 50q-77 -1 -117.5 -60t-40.5 -161q0 -87 37.5 -148.5t96.5 -61.5z" />
    <glyph glyph-name="Dcroat" unicode="&#x110;" horiz-adv-x="718" 
d="M339 700q154 0 246.5 -89.5t92.5 -249.5q0 -159 -89 -260t-248 -101h-311v5l102 5v354h-92v5h92v321l-102 5v5h309zM346 5q113 0 182.5 96.5t69.5 255.5q0 158 -65 248t-202 90l-129 -5v-321h148v-5h-148v-354z" />
    <glyph glyph-name="dcroat" unicode="&#x111;" horiz-adv-x="534" 
d="M513 28l1 -4l-133 -29l-20 91l-146 -101q-78 0 -129 66.5t-51 155.5q0 104 57 175.5t169 92.5q55 0 99 -26v134h-113v5h113v101l-69 -14l-2 5l126 35h5v-127h77v-5h-77v-474q0 -44 19 -90zM360 94v318q-37 50 -102 50q-77 -1 -117.5 -60t-40.5 -161q0 -87 37.5 -148.5
t96.5 -61.5q25 0 41.5 8t57.5 36z" />
    <glyph glyph-name="Emacron" unicode="&#x112;" horiz-adv-x="599" 
d="M180 800v20h280v-20h-280zM30 0v5l92 5v680l-92 5v5h530v-176h-5l-61 166h-302v-319h184l40 114h5v-237h-5l-40 113h-184v-351h311l61 170h5v-180h-539z" />
    <glyph glyph-name="emacron" unicode="&#x113;" horiz-adv-x="448" 
d="M384 640v-20h-280v20h280zM410 84l3 -3q-84 -65 -158 -96q-90 0 -155 60t-65 168q0 110 57.5 175.5t149.5 86.5q164 0 164 -180v-21h-312q-1 -8 -1 -26q0 -98 52.5 -155.5t134.5 -57.5q56 0 130 49zM223 454q-58 0 -91 -45.5t-38 -129.5h242q0 82 -24 128.5t-89 46.5z
" />
    <glyph glyph-name="Ebreve" unicode="&#x114;" horiz-adv-x="599" 
d="M331 754q-51 0 -84 35t-49 82l4 3q15 -29 45.5 -53.5t72.5 -24.5q67 0 117 79l4 -3q-25 -71 -110 -118zM30 0v5l92 5v680l-92 5v5h530v-176h-5l-61 166h-302v-319h184l40 114h5v-237h-5l-40 113h-184v-351h311l61 170h5v-180h-539z" />
    <glyph glyph-name="ebreve" unicode="&#x115;" horiz-adv-x="448" 
d="M248 566q-58 0 -96 39.5t-54 92.5l4 3q18 -31 52 -56t81 -26q25 0 46.5 7.5t38.5 22.5t26 26t21 27l4 -3q-11 -32 -41.5 -68.5t-81.5 -64.5zM410 84l3 -3q-84 -65 -158 -96q-90 0 -155 60t-65 168q0 110 57.5 175.5t149.5 86.5q164 0 164 -180v-21h-312q-1 -8 -1 -26
q0 -98 52.5 -155.5t134.5 -57.5q56 0 130 49zM223 454q-58 0 -91 -45.5t-38 -129.5h242q0 82 -24 128.5t-89 46.5z" />
    <glyph glyph-name="Edotaccent" unicode="&#x116;" horiz-adv-x="599" 
d="M301 800l-20 4l-4 43l7 34l53 4l21 -4l4 -40l-7 -37zM30 0v5l92 5v680l-92 5v5h530v-176h-5l-61 166h-302v-319h184l40 114h5v-237h-5l-40 113h-184v-351h311l61 170h5v-180h-539z" />
    <glyph glyph-name="edotaccent" unicode="&#x117;" horiz-adv-x="448" 
d="M225 598l-20 4l-4 43l7 34l53 4l21 -4l4 -40l-7 -37zM410 84l3 -3q-84 -65 -158 -96q-90 0 -155 60t-65 168q0 110 57.5 175.5t149.5 86.5q164 0 164 -180v-21h-312q-1 -8 -1 -26q0 -98 52.5 -155.5t134.5 -57.5q56 0 130 49zM223 454q-58 0 -91 -45.5t-38 -129.5h242
q0 82 -24 128.5t-89 46.5z" />
    <glyph glyph-name="Eogonek" unicode="&#x118;" horiz-adv-x="599" 
d="M451 -171q0 -65 120 -65v-5q-85 0 -122.5 25t-37.5 77v34l87 105h-468v5l92 5v680l-92 5v5h530v-176h-5l-61 166h-302v-319h184l40 114h5v-237h-5l-40 113h-184v-351h311l61 170h5v-180h-57l-61 -128v-43z" />
    <glyph glyph-name="eogonek" unicode="&#x119;" horiz-adv-x="448" 
d="M214 -171q0 -65 120 -65v-5q-85 0 -122.5 25t-37.5 77v34l74 90q-88 2 -150.5 62t-62.5 166q0 110 57.5 175.5t149.5 86.5q164 0 164 -180v-21h-312q-1 -8 -1 -26q0 -98 52.5 -155.5t134.5 -57.5q56 0 130 49l3 -3q-80 -61 -142 -89l-57 -120v-43zM223 454
q-58 0 -91 -45.5t-38 -129.5h242q0 82 -24 128.5t-89 46.5z" />
    <glyph glyph-name="Ecaron" unicode="&#x11a;" horiz-adv-x="599" 
d="M318 759l-127 141h5l124 -88l124 88h5l-127 -141h-4zM30 0v5l92 5v680l-92 5v5h530v-176h-5l-61 166h-302v-319h184l40 114h5v-237h-5l-40 113h-184v-351h311l61 170h5v-180h-539z" />
    <glyph glyph-name="ecaron" unicode="&#x11b;" horiz-adv-x="448" 
d="M247 542h-6l-126 168h5l124 -98l124 98h5zM410 84l3 -3q-84 -65 -158 -96q-90 0 -155 60t-65 168q0 110 57.5 175.5t149.5 86.5q164 0 164 -180v-21h-312q-1 -8 -1 -26q0 -98 52.5 -155.5t134.5 -57.5q56 0 130 49zM223 454q-58 0 -91 -45.5t-38 -129.5h242
q0 82 -24 128.5t-89 46.5z" />
    <glyph glyph-name="Gcircumflex" unicode="&#x11c;" horiz-adv-x="716" 
d="M261 767l127 141h4l127 -141h-5l-124 88l-124 -88h-5zM381 -15q-147 0 -244 94.5t-97 261.5q0 159 96 261t255 113q68 0 129 -16.5t94 -37.5v-149h-5l-51 123q-70 70 -170 70q-124 0 -196 -102t-72 -263q0 -142 70.5 -244.5t196.5 -102.5q56 0 101 22t69 53v229l-85 7v5
h219v-5l-64 -7v-249q-124 -63 -246 -63z" />
    <glyph glyph-name="gcircumflex" unicode="&#x11d;" horiz-adv-x="468" 
d="M105 542l127 168h4l127 -168h-5l-124 98l-124 -98h-5zM203 -241q-95 0 -139 32t-44 102v17l113 85q-90 20 -90 96v10l96 70q-44 15 -71 49.5t-27 80.5q0 121 177 173q49 0 88.5 -21t59.5 -57l58 78h39v-74h-85l-9 -10q13 -25 13 -57q0 -125 -177 -173q-33 0 -60 9
l-47 -45q0 -74 72 -74h161q50 0 78.5 -26t28.5 -63q0 -62 -65.5 -116.5t-169.5 -85.5zM221 178q45 0 70.5 34.5t25.5 93.5q0 34 -9 65.5t-36.5 58t-69.5 26.5q-45 0 -70.5 -34.5t-25.5 -93.5q0 -34 9 -65.5t36.5 -58t69.5 -26.5zM198 -221q70 1 125 44.5t55 98.5
q0 73 -93 73h-146q-54 -42 -54 -108q0 -48 30.5 -78.5t82.5 -29.5z" />
    <glyph glyph-name="Gbreve" unicode="&#x11e;" horiz-adv-x="716" 
d="M401 754q-51 0 -84 35t-49 82l4 3q15 -29 45.5 -53.5t72.5 -24.5q67 0 117 79l4 -3q-25 -71 -110 -118zM381 -15q-147 0 -244 94.5t-97 261.5q0 159 96 261t255 113q68 0 129 -16.5t94 -37.5v-149h-5l-51 123q-70 70 -170 70q-124 0 -196 -102t-72 -263
q0 -142 70.5 -244.5t196.5 -102.5q56 0 101 22t69 53v229l-85 7v5h219v-5l-64 -7v-249q-124 -63 -246 -63z" />
    <glyph glyph-name="gbreve" unicode="&#x11f;" horiz-adv-x="468" 
d="M238 566q-58 0 -96 39.5t-54 92.5l4 3q18 -31 52 -56t81 -26q25 0 46.5 7.5t38.5 22.5t26 26t21 27l4 -3q-11 -32 -41.5 -68.5t-81.5 -64.5zM203 -241q-95 0 -139 32t-44 102v17l113 85q-90 20 -90 96v10l96 70q-44 15 -71 49.5t-27 80.5q0 121 177 173q49 0 88.5 -21
t59.5 -57l58 78h39v-74h-85l-9 -10q13 -25 13 -57q0 -125 -177 -173q-33 0 -60 9l-47 -45q0 -74 72 -74h161q50 0 78.5 -26t28.5 -63q0 -62 -65.5 -116.5t-169.5 -85.5zM221 178q45 0 70.5 34.5t25.5 93.5q0 34 -9 65.5t-36.5 58t-69.5 26.5q-45 0 -70.5 -34.5t-25.5 -93.5
q0 -34 9 -65.5t36.5 -58t69.5 -26.5zM198 -221q70 1 125 44.5t55 98.5q0 73 -93 73h-146q-54 -42 -54 -108q0 -48 30.5 -78.5t82.5 -29.5z" />
    <glyph glyph-name="Gdotaccent" unicode="&#x120;" horiz-adv-x="716" 
d="M371 800l-20 4l-4 43l7 34l53 4l21 -4l4 -40l-7 -37zM381 -15q-147 0 -244 94.5t-97 261.5q0 159 96 261t255 113q68 0 129 -16.5t94 -37.5v-149h-5l-51 123q-70 70 -170 70q-124 0 -196 -102t-72 -263q0 -142 70.5 -244.5t196.5 -102.5q56 0 101 22t69 53v229l-85 7v5
h219v-5l-64 -7v-249q-124 -63 -246 -63z" />
    <glyph glyph-name="gdotaccent" unicode="&#x121;" horiz-adv-x="468" 
d="M215 598l-20 4l-4 43l7 34l53 4l21 -4l4 -40l-7 -37zM203 -241q-95 0 -139 32t-44 102v17l113 85q-90 20 -90 96v10l96 70q-44 15 -71 49.5t-27 80.5q0 121 177 173q49 0 88.5 -21t59.5 -57l58 78h39v-74h-85l-9 -10q13 -25 13 -57q0 -125 -177 -173q-33 0 -60 9l-47 -45
q0 -74 72 -74h161q50 0 78.5 -26t28.5 -63q0 -62 -65.5 -116.5t-169.5 -85.5zM221 178q45 0 70.5 34.5t25.5 93.5q0 34 -9 65.5t-36.5 58t-69.5 26.5q-45 0 -70.5 -34.5t-25.5 -93.5q0 -34 9 -65.5t36.5 -58t69.5 -26.5zM198 -221q70 1 125 44.5t55 98.5q0 73 -93 73h-146
q-54 -42 -54 -108q0 -48 30.5 -78.5t82.5 -29.5z" />
    <glyph glyph-name="Gcommaaccent" unicode="&#x122;" horiz-adv-x="716" 
d="M381 -15q-147 0 -244 94.5t-97 261.5q0 159 96 261t255 113q68 0 129 -16.5t94 -37.5v-149h-5l-51 123q-70 70 -170 70q-124 0 -196 -102t-72 -263q0 -142 70.5 -244.5t196.5 -102.5q56 0 101 22t69 53v229l-85 7v5h219v-5l-64 -7v-249q-124 -63 -246 -63zM351 -233l-5 2
l46 107l-33 22v45h70v-70z" />
    <glyph glyph-name="gcommaaccent" unicode="&#x123;" horiz-adv-x="468" 
d="M192 542v75l78 95l5 -2l-51 -96l38 -22v-50h-70zM203 -241q-95 0 -139 32t-44 102v17l113 85q-90 20 -90 96v10l96 70q-44 15 -71 49.5t-27 80.5q0 121 177 173q49 0 88.5 -21t59.5 -57l58 78h39v-74h-85l-9 -10q13 -25 13 -57q0 -125 -177 -173q-33 0 -60 9l-47 -45
q0 -74 72 -74h161q50 0 78.5 -26t28.5 -63q0 -62 -65.5 -116.5t-169.5 -85.5zM221 178q45 0 70.5 34.5t25.5 93.5q0 34 -9 65.5t-36.5 58t-69.5 26.5q-45 0 -70.5 -34.5t-25.5 -93.5q0 -34 9 -65.5t36.5 -58t69.5 -26.5zM198 -221q70 1 125 44.5t55 98.5q0 73 -93 73h-146
q-54 -42 -54 -108q0 -48 30.5 -78.5t82.5 -29.5z" />
    <glyph glyph-name="Hcircumflex" unicode="&#x124;" horiz-adv-x="743" 
d="M243 767l127 141h4l127 -141h-5l-124 88l-124 -88h-5zM30 0v5l92 5v680l-92 5v5h254v-5l-92 -5v-321h359v321l-92 5v5h254v-5l-92 -5v-680l92 -5v-5h-254v5l92 5v349h-359v-349l92 -5v-5h-254z" />
    <glyph glyph-name="hcircumflex" unicode="&#x125;" horiz-adv-x="552" 
d="M1 767l127 141h4l127 -141h-5l-124 88l-124 -88h-5zM31 0v5l70 5v679l-69 -14l-2 5l126 35h5v-354l184 114q31 0 52.5 -10t32 -23t16 -36t6.5 -38t1 -40v-318l82 -5v-5h-196v5l54 5v324q0 54 -17 74.5t-54 20.5q-7 0 -13.5 -0.5t-13 -2.5t-11.5 -3t-12.5 -4.5t-11.5 -5
t-13 -7t-12.5 -7.5t-14.5 -9t-15 -9l-44 -26v-345l55 -5v-5h-185z" />
    <glyph glyph-name="Hbar" unicode="&#x126;" horiz-adv-x="743" 
d="M713 695l-92 -5v-680l92 -5v-5h-254v5l92 5v349h-359v-349l92 -5v-5h-254v5l92 5v680l-92 5v5h254v-5l-92 -5v-200h359v200l-92 5v5h254v-5zM192 369h359v116h-359v-116z" />
    <glyph glyph-name="hbar" unicode="&#x127;" horiz-adv-x="552" 
d="M453 10l82 -5v-5h-196v5l54 5v324q0 54 -17 74.5t-54 20.5q-7 0 -13.5 -0.5t-13 -2.5t-11.5 -3t-12.5 -4.5t-11.5 -5t-13 -7t-12.5 -7.5t-14.5 -9t-15 -9l-44 -26v-345l55 -5v-5h-185v5l70 5v567h-68v5h68v107l-69 -14l-2 5l126 35h5v-133h147v-5h-147v-216l184 114
q31 0 52.5 -10t32 -23t16 -36t6.5 -38t1 -40v-318z" />
    <glyph glyph-name="Itilde" unicode="&#x128;" horiz-adv-x="314" 
d="M-1 771l24 95l63 22l196 -87l27 90h5l-24 -95l-63 -22l-196 88l-27 -91h-5zM30 0v5l92 5v680l-92 5v5h254v-5l-92 -5v-680l92 -5v-5h-254z" />
    <glyph glyph-name="itilde" unicode="&#x129;" horiz-adv-x="254" 
d="M204 578l-196 88l-27 -91h-5l24 95l63 22l196 -87l27 90h5l-24 -95zM34 0v5l70 5v436l-73 -19l-1 4l129 39h5v-460l70 -5v-5h-200z" />
    <glyph glyph-name="Imacron" unicode="&#x12a;" horiz-adv-x="314" 
d="M17 800v20h280v-20h-280zM30 0v5l92 5v680l-92 5v5h254v-5l-92 -5v-680l92 -5v-5h-254z" />
    <glyph glyph-name="imacron" unicode="&#x12b;" horiz-adv-x="254" 
d="M-6 620v20h280v-20h-280zM34 0v5l70 5v436l-73 -19l-1 4l129 39h5v-460l70 -5v-5h-200z" />
    <glyph glyph-name="Ibreve" unicode="&#x12c;" horiz-adv-x="314" 
d="M168 754q-51 0 -84 35t-49 82l4 3q15 -29 45.5 -53.5t72.5 -24.5q67 0 117 79l4 -3q-25 -71 -110 -118zM30 0v5l92 5v680l-92 5v5h254v-5l-92 -5v-680l92 -5v-5h-254z" />
    <glyph glyph-name="ibreve" unicode="&#x12d;" horiz-adv-x="254" 
d="M138 566q-58 0 -96 39.5t-54 92.5l4 3q18 -31 52 -56t81 -26q25 0 46.5 7.5t38.5 22.5t26 26t21 27l4 -3q-11 -32 -41.5 -68.5t-81.5 -64.5zM34 0v5l70 5v436l-73 -19l-1 4l129 39h5v-460l70 -5v-5h-200z" />
    <glyph glyph-name="Iogonek" unicode="&#x12e;" horiz-adv-x="314" 
d="M284 695l-92 -5v-680l92 -5v-5h-117l-61 -128v-43q0 -65 120 -65v-5q-85 0 -122.5 25t-37.5 77v34l87 105h-123v5l92 5v680l-92 5v5h254v-5z" />
    <glyph glyph-name="iogonek" unicode="&#x12f;" horiz-adv-x="254" 
d="M115 609l-20 4l-4 43l7 34l53 4l21 -4l4 -40l-7 -37zM142 0l-61 -128v-43q0 -65 120 -65v-5q-85 0 -122.5 25t-37.5 77v34l87 105h-94v5l70 5v436l-73 -19l-1 4l129 39h5v-460l70 -5v-5h-92z" />
    <glyph glyph-name="Idotaccent" unicode="&#x130;" horiz-adv-x="314" 
d="M138 800l-20 4l-4 43l7 34l53 4l21 -4l4 -40l-7 -37zM30 0v5l92 5v680l-92 5v5h254v-5l-92 -5v-680l92 -5v-5h-254z" />
    <glyph glyph-name="dotlessi" unicode="&#x131;" horiz-adv-x="254" 
d="M34 0v5l70 5v436l-73 -19l-1 4l129 39h5v-460l70 -5v-5h-200z" />
    <glyph glyph-name="IJ" unicode="&#x132;" horiz-adv-x="629" 
d="M30 0v5l92 5v680l-92 5v5h254v-5l-92 -5v-680l92 -5v-5h-254zM314 -175v70h117l4 19q7 31 7 174v602l-107 5v5h269v-5l-92 -5v-609q0 -54 -8.5 -83.5t-33.5 -59.5l-94 -113h-62z" />
    <glyph glyph-name="ij" unicode="&#x133;" horiz-adv-x="493" 
d="M115 609l-20 4l-4 43l7 34l53 4l21 -4l4 -40l-7 -37zM369 609l-20 4l-4 43l7 34l53 4l21 -4l4 -40l-7 -37zM34 0v5l70 5v436l-73 -19l-1 4l129 39h5v-460l70 -5v-5h-200zM234 -236v63h114l2 12q9 59 9 98v509l-73 -19l-1 4l129 39h5v-518q0 -37 -26 -72l-88 -116h-71z
" />
    <glyph glyph-name="Jcircumflex" unicode="&#x134;" horiz-adv-x="315" 
d="M29 767l127 141h4l127 -141h-5l-124 88l-124 -88h-5zM0 -175v70h117l4 19q7 31 7 174v602l-107 5v5h269v-5l-92 -5v-609q0 -54 -8.5 -83.5t-33.5 -59.5l-94 -113h-62z" />
    <glyph glyph-name="jcircumflex" unicode="&#x135;" horiz-adv-x="239" 
d="M5 542l127 168h4l127 -168h-5l-124 98l-124 -98h-5zM-20 -236v63h114l2 12q9 58 9 98v509l-73 -19l-1 4l129 39h5v-518q0 -37 -26 -72l-88 -116h-71z" />
    <glyph glyph-name="Kcommaaccent" unicode="&#x136;" horiz-adv-x="672" 
d="M591 10l71 -5v-5h-153l-317 355v-345l92 -5v-5h-254v5l92 5v680l-92 5v5h254v-5l-92 -5v-321l351 321l-90 5v5h183v-5l-80 -5l-349 -325l56 11zM307 -102v45h70v-70l-78 -106l-5 2l46 107z" />
    <glyph glyph-name="kcommaaccent" unicode="&#x137;" horiz-adv-x="502" 
d="M31 0v5l70 5v679l-69 -14l-2 5l126 35h5v-460l231 195l-72 5v5h152v-5l-67 -5l-229 -192l52 7l220 -256l49 -4v-5h-123l-213 249v-239l70 -5v-5h-200zM214 -233l-5 2l46 107l-33 22v45h70v-70z" />
    <glyph glyph-name="kgreenlandic" unicode="&#x138;" horiz-adv-x="492" 
d="M31 0v5l70 5v424l-69 -14l-2 5l126 35h5v-201l236 191l-72 5v5h152v-5l-65 -5l-202 -164l228 -277l49 -4v-5h-123l-203 249v-239l70 -5v-5h-200z" />
    <glyph glyph-name="Lacute" unicode="&#x139;" horiz-adv-x="549" 
d="M156 767l47 133h77l-119 -133h-5zM30 0v5l92 5v680l-92 5v5h254v-5l-92 -5v-680h281l61 175h5v-185h-509z" />
    <glyph glyph-name="lacute" unicode="&#x13a;" horiz-adv-x="246" 
d="M125 767l47 133h77l-119 -133h-5zM31 0v5l70 5v679l-69 -14l-2 5l126 35h5v-705l70 -5v-5h-200z" />
    <glyph glyph-name="Lcommaaccent" unicode="&#x13b;" horiz-adv-x="549" 
d="M30 0v5l92 5v680l-92 5v5h254v-5l-92 -5v-680h281l61 175h5v-185h-509zM260 -233l-5 2l46 107l-33 22v45h70v-70z" />
    <glyph glyph-name="lcommaaccent" unicode="&#x13c;" horiz-adv-x="246" 
d="M31 0v5l70 5v679l-69 -14l-2 5l126 35h5v-705l70 -5v-5h-200zM86 -233l-5 2l46 107l-33 22v45h70v-70z" />
    <glyph glyph-name="Lcaron" unicode="&#x13d;" horiz-adv-x="549" 
d="M409 463l-3 1q10 26 29.5 78t29.5 78l-36 -2l-23 4l-4 47l7 37l59 4l25 -4l4 -44l-8 -40zM30 0v5l92 5v680l-92 5v5h254v-5l-92 -5v-680h281l61 175h5v-185h-509z" />
    <glyph glyph-name="lcaron" unicode="&#x13e;" horiz-adv-x="326" 
d="M31 0v5l70 5v679l-69 -14l-2 5l126 35h5v-705l70 -5v-5h-200zM231 463l-3 1q10 26 29.5 78t29.5 78l-36 -2l-23 4l-4 47l7 37l59 4l25 -4l4 -44l-8 -40z" />
    <glyph glyph-name="Ldot" unicode="&#x13f;" horiz-adv-x="549" 
d="M30 0v5l92 5v680l-92 5v5h254v-5l-92 -5v-680h281l61 175h5v-185h-509zM340 357l-22 4l-4 47l7 38l59 4l23 -4l4 -44l-7 -41z" />
    <glyph glyph-name="ldot" unicode="&#x140;" horiz-adv-x="335" 
d="M31 0v5l70 5v679l-69 -14l-2 5l126 35h5v-705l70 -5v-5h-200zM263 357l-22 4l-4 47l7 38l59 4l23 -4l4 -44l-7 -41z" />
    <glyph glyph-name="Lslash" unicode="&#x141;" horiz-adv-x="549" 
d="M534 185h5v-185h-509v5l92 5v347l-90 -45v8l90 45v325l-92 5v5h254v-5l-92 -5v-291l123 61v-8l-123 -61v-381h281z" />
    <glyph glyph-name="lslash" unicode="&#x142;" horiz-adv-x="246" 
d="M231 432l-70 -35v-387l70 -5v-5h-200v5l70 5v357l-70 -35v9l70 35v313l-69 -14l-2 5l126 35h5v-309l70 35v-9z" />
    <glyph glyph-name="Nacute" unicode="&#x143;" horiz-adv-x="695" 
d="M380 767l47 133h77l-119 -133h-5zM563 -5l-431 687v-672l92 -5v-5h-194v5l92 5v680l-92 5v5h172l381 -605v595l-91 5v5h193v-5l-92 -5v-695h-30z" />
    <glyph glyph-name="nacute" unicode="&#x144;" horiz-adv-x="555" 
d="M273 542l65 168h72l-132 -168h-5zM34 0v5l70 5v436l-73 -19l-1 4l129 39h5v-109l184 114q63 0 85.5 -35t22.5 -112v-318l82 -5v-5h-196v5l54 5v324q0 54 -17 74.5t-54 20.5q-7 0 -13.5 -0.5t-13 -2.5t-11.5 -3t-12.5 -4.5t-11.5 -5t-13 -7t-12.5 -7.5t-14.5 -9t-15 -9
l-44 -26v-345l55 -5v-5h-185z" />
    <glyph glyph-name="Ncommaaccent" unicode="&#x145;" horiz-adv-x="695" 
d="M563 -5l-431 687v-672l92 -5v-5h-194v5l92 5v680l-92 5v5h172l381 -605v595l-91 5v5h193v-5l-92 -5v-695h-30zM315 -233l-5 2l46 107l-33 22v45h70v-70z" />
    <glyph glyph-name="ncommaaccent" unicode="&#x146;" horiz-adv-x="555" 
d="M34 0v5l70 5v436l-73 -19l-1 4l129 39h5v-109l184 114q63 0 85.5 -35t22.5 -112v-318l82 -5v-5h-196v5l54 5v324q0 54 -17 74.5t-54 20.5q-7 0 -13.5 -0.5t-13 -2.5t-11.5 -3t-12.5 -4.5t-11.5 -5t-13 -7t-12.5 -7.5t-14.5 -9t-15 -9l-44 -26v-345l55 -5v-5h-185z
M241 -233l-5 2l46 107l-33 22v45h70v-70z" />
    <glyph glyph-name="Ncaron" unicode="&#x147;" horiz-adv-x="695" 
d="M376 759l-127 141h5l124 -88l124 88h5l-127 -141h-4zM563 -5l-431 687v-672l92 -5v-5h-194v5l92 5v680l-92 5v5h172l381 -605v595l-91 5v5h193v-5l-92 -5v-695h-30z" />
    <glyph glyph-name="ncaron" unicode="&#x148;" horiz-adv-x="555" 
d="M275 542l-126 168h5l124 -98l124 98h5l-126 -168h-6zM34 0v5l70 5v436l-73 -19l-1 4l129 39h5v-109l184 114q63 0 85.5 -35t22.5 -112v-318l82 -5v-5h-196v5l54 5v324q0 54 -17 74.5t-54 20.5q-7 0 -13.5 -0.5t-13 -2.5t-11.5 -3t-12.5 -4.5t-11.5 -5t-13 -7t-12.5 -7.5
t-14.5 -9t-15 -9l-44 -26v-345l55 -5v-5h-185z" />
    <glyph glyph-name="napostrophe" unicode="&#x149;" horiz-adv-x="555" 
d="M32 516l-3 3l72 110l-45 35v46h81v-74zM34 0v5l70 5v436l-73 -19l-1 4l129 39h5v-109l184 114q63 0 85.5 -35t22.5 -112v-318l82 -5v-5h-196v5l54 5v324q0 54 -17 74.5t-54 20.5q-7 0 -13.5 -0.5t-13 -2.5t-11.5 -3t-12.5 -4.5t-11.5 -5t-13 -7t-12.5 -7.5t-14.5 -9
t-15 -9l-44 -26v-345l55 -5v-5h-185z" />
    <glyph glyph-name="Eng" unicode="&#x14a;" horiz-adv-x="695" 
d="M370 -235v62h61l102 133l55 35h-25l-431 687v-672l92 -5v-5h-194v5l92 5v680l-92 5v5h172l381 -605v595l-91 5v5h193v-5l-92 -5v-695l-144 -230h-79z" />
    <glyph glyph-name="eng" unicode="&#x14b;" horiz-adv-x="516" 
d="M271 -235v75h115l3 12q7 30 7 98v384q0 54 -17 74.5t-54 20.5q-7 0 -13.5 -0.5t-13 -2.5t-11.5 -3t-12.5 -4.5t-11.5 -5t-13 -7t-12.5 -7.5t-14.5 -9t-15 -9l-44 -26v-345l55 -5v-5h-185v5l70 5v436l-73 -19l-1 4l129 39h5v-109l184 114q63 0 85.5 -35t22.5 -112v-342
q0 -31 -9 -52.5t-34 -60.5l-69 -108h-73z" />
    <glyph glyph-name="Omacron" unicode="&#x14c;" horiz-adv-x="752" 
d="M241 800v20h280v-20h-280zM366 -15q-141 0 -233.5 102t-92.5 249q0 162 87 260t258 119q141 0 234 -102t93 -249q0 -162 -87.5 -260t-258.5 -119zM397 3q107 0 171 92.5t64 241.5q0 155 -79 257.5t-198 102.5q-107 0 -171 -92.5t-64 -241.5q0 -155 79 -257.5t198 -102.5z
" />
    <glyph glyph-name="omacron" unicode="&#x14d;" horiz-adv-x="507" 
d="M114 620v20h280v-20h-280zM242 -15q-91 0 -149 66.5t-58 167.5q0 207 229 256q92 0 150 -66.5t58 -167.5q0 -210 -230 -256zM266 2q67 0 103.5 61t36.5 156q0 107 -46.5 172t-119.5 65q-67 0 -103 -59t-36 -156q0 -99 46.5 -169t118.5 -70z" />
    <glyph glyph-name="Obreve" unicode="&#x14e;" horiz-adv-x="752" 
d="M392 754q-51 0 -84 35t-49 82l4 3q15 -29 45.5 -53.5t72.5 -24.5q67 0 117 79l4 -3q-25 -71 -110 -118zM366 -15q-141 0 -233.5 102t-92.5 249q0 162 87 260t258 119q141 0 234 -102t93 -249q0 -162 -87.5 -260t-258.5 -119zM397 3q107 0 171 92.5t64 241.5
q0 155 -79 257.5t-198 102.5q-107 0 -171 -92.5t-64 -241.5q0 -155 79 -257.5t198 -102.5z" />
    <glyph glyph-name="obreve" unicode="&#x14f;" horiz-adv-x="507" 
d="M258 566q-58 0 -96 39.5t-54 92.5l4 3q18 -31 52 -56t81 -26q25 0 46.5 7.5t38.5 22.5t26 26t21 27l4 -3q-11 -32 -41.5 -68.5t-81.5 -64.5zM242 -15q-91 0 -149 66.5t-58 167.5q0 207 229 256q92 0 150 -66.5t58 -167.5q0 -210 -230 -256zM266 2q67 0 103.5 61t36.5 156
q0 107 -46.5 172t-119.5 65q-67 0 -103 -59t-36 -156q0 -99 46.5 -169t118.5 -70z" />
    <glyph glyph-name="Ohungarumlaut" unicode="&#x150;" horiz-adv-x="752" 
d="M307 767l67 133h95l-157 -133h-5zM448 767l67 133h95l-157 -133h-5zM366 -15q-141 0 -233.5 102t-92.5 249q0 162 87 260t258 119q141 0 234 -102t93 -249q0 -162 -87.5 -260t-258.5 -119zM397 3q107 0 171 92.5t64 241.5q0 155 -79 257.5t-198 102.5q-107 0 -171 -92.5
t-64 -241.5q0 -155 79 -257.5t198 -102.5z" />
    <glyph glyph-name="ohungarumlaut" unicode="&#x151;" horiz-adv-x="507" 
d="M181 542l67 168h95l-157 -168h-5zM322 542l67 168h95l-157 -168h-5zM242 -15q-91 0 -149 66.5t-58 167.5q0 207 229 256q92 0 150 -66.5t58 -167.5q0 -210 -230 -256zM266 2q67 0 103.5 61t36.5 156q0 107 -46.5 172t-119.5 65q-67 0 -103 -59t-36 -156q0 -99 46.5 -169
t118.5 -70z" />
    <glyph glyph-name="OE" unicode="&#x152;" horiz-adv-x="922" 
d="M371 -10q-143 0 -237 99.5t-94 246.5q0 161 88 257t262 117l135 -10h363v-176h-5l-61 166h-273v-319h155l40 114h5v-237h-5l-40 113h-155v-351h282l61 170h5v-180h-418zM479 10v680l-119 7q-110 0 -175 -92t-65 -242q0 -154 81 -255.5t203 -101.5z" />
    <glyph glyph-name="oe" unicode="&#x153;" horiz-adv-x="822" 
d="M784 84l3 -3q-84 -65 -158 -96q-62 0 -114.5 31t-79.5 90q-53 -93 -193 -121q-91 0 -149 66.5t-58 167.5q0 207 229 256q62 0 110 -33.5t72 -90.5q50 95 170 124q164 0 164 -180v-21h-312q-1 -9 -1 -26q0 -98 52.5 -155.5t134.5 -57.5q56 0 130 49zM263 2q67 0 105 61
t38 156q0 107 -46.5 172t-119.5 65q-67 0 -104.5 -59.5t-37.5 -155.5q0 -99 46.5 -169t118.5 -70zM597 454q-61 0 -92.5 -49t-36.5 -126h242q0 82 -24 128.5t-89 46.5z" />
    <glyph glyph-name="Racute" unicode="&#x154;" horiz-adv-x="640" 
d="M292 767l47 133h77l-119 -133h-5zM30 0v5l92 5v680l-92 5v5h302q87 0 147.5 -41.5t60.5 -131.5q0 -153 -257 -194h-91v-323l86 -5v-5h-248zM192 343h70q97 0 149 47.5t52 129.5q0 85 -45 129t-119 46l-107 -5v-347zM504 0l-221 333l98 -23l200 -300l54 -5v-5h-131z" />
    <glyph glyph-name="racute" unicode="&#x155;" horiz-adv-x="343" 
d="M167 542l65 168h72l-132 -168h-5zM34 0v5l70 5v436l-73 -19l-1 4l129 39h5v-147l108 147h56v-73h-103l-61 -82v-305l96 -5v-5h-226z" />
    <glyph glyph-name="Rcommaaccent" unicode="&#x156;" horiz-adv-x="640" 
d="M30 0v5l92 5v680l-92 5v5h302q87 0 147.5 -41.5t60.5 -131.5q0 -153 -257 -194h-91v-323l86 -5v-5h-248zM192 343h70q97 0 149 47.5t52 129.5q0 85 -45 129t-119 46l-107 -5v-347zM504 0l-221 333l98 -23l200 -300l54 -5v-5h-131zM316 -233l-5 2l46 107l-33 22v45h70v-70
z" />
    <glyph glyph-name="rcommaaccent" unicode="&#x157;" horiz-adv-x="343" 
d="M34 0v5l70 5v436l-73 -19l-1 4l129 39h5v-147l108 147h56v-73h-103l-61 -82v-305l96 -5v-5h-226zM95 -233l-5 2l46 107l-33 22v45h70v-70z" />
    <glyph glyph-name="Rcaron" unicode="&#x158;" horiz-adv-x="640" 
d="M288 759l-127 141h5l124 -88l124 88h5l-127 -141h-4zM30 0v5l92 5v680l-92 5v5h302q87 0 147.5 -41.5t60.5 -131.5q0 -153 -257 -194h-91v-323l86 -5v-5h-248zM192 343h70q97 0 149 47.5t52 129.5q0 85 -45 129t-119 46l-107 -5v-347zM504 0l-221 333l98 -23l200 -300
l54 -5v-5h-131z" />
    <glyph glyph-name="rcaron" unicode="&#x159;" horiz-adv-x="343" 
d="M169 542l-126 168h5l124 -98l124 98h5l-126 -168h-6zM34 0v5l70 5v436l-73 -19l-1 4l129 39h5v-147l108 147h56v-73h-103l-61 -82v-305l96 -5v-5h-226z" />
    <glyph glyph-name="Sacute" unicode="&#x15a;" horiz-adv-x="510" 
d="M267 767l47 133h77l-119 -133h-5zM239 -15q-108 0 -194 57v149h5l39 -101q75 -77 171 -77q68 0 109 38t41 101q0 51 -29.5 89.5t-96.5 75.5l-113 61q-58 32 -87 64t-29 86q0 73 56.5 120.5t153.5 66.5q106 0 183 -44v-147h-5l-44 114q-64 59 -145 59q-65 0 -104.5 -36.5
t-39.5 -91.5q0 -45 27 -76t85 -62l113 -61q66 -36 98 -77t32 -97q0 -152 -226 -211z" />
    <glyph glyph-name="sacute" unicode="&#x15b;" horiz-adv-x="358" 
d="M174 542l65 168h72l-132 -168h-5zM170 -15q-68 0 -140 46v118h5l46 -98q50 -46 101 -46q46 0 69.5 22.5t23.5 55.5q0 40 -18.5 62t-69.5 53l-71 43q-48 30 -62 48q-20 25 -20 61q0 44 35.5 72.5t109.5 52.5q76 0 136 -37v-119h-5l-41 99q-42 40 -102 40q-37 0 -60 -20.5
t-23 -52.5q0 -23 12.5 -41.5t26 -27.5t42.5 -27l76 -45q49 -29 68 -55.5t18 -65.5q-1 -98 -157 -138z" />
    <glyph glyph-name="Scircumflex" unicode="&#x15c;" horiz-adv-x="510" 
d="M136 767l127 141h4l127 -141h-5l-124 88l-124 -88h-5zM239 -15q-108 0 -194 57v149h5l39 -101q75 -77 171 -77q68 0 109 38t41 101q0 51 -29.5 89.5t-96.5 75.5l-113 61q-58 32 -87 64t-29 86q0 73 56.5 120.5t153.5 66.5q106 0 183 -44v-147h-5l-44 114q-64 59 -145 59
q-65 0 -104.5 -36.5t-39.5 -91.5q0 -45 27 -76t85 -62l113 -61q66 -36 98 -77t32 -97q0 -152 -226 -211z" />
    <glyph glyph-name="scircumflex" unicode="&#x15d;" horiz-adv-x="358" 
d="M50 542l127 168h4l127 -168h-5l-124 98l-124 -98h-5zM170 -15q-68 0 -140 46v118h5l46 -98q50 -46 101 -46q46 0 69.5 22.5t23.5 55.5q0 40 -18.5 62t-69.5 53l-71 43q-48 30 -62 48q-20 25 -20 61q0 44 35.5 72.5t109.5 52.5q76 0 136 -37v-119h-5l-41 99
q-42 40 -102 40q-37 0 -60 -20.5t-23 -52.5q0 -23 12.5 -41.5t26 -27.5t42.5 -27l76 -45q49 -29 68 -55.5t18 -65.5q-1 -98 -157 -138z" />
    <glyph glyph-name="Scedilla" unicode="&#x15e;" horiz-adv-x="510" 
d="M239 -15h-1l-24 -38q34 -2 58.5 -21.5t24.5 -51.5q0 -58 -76 -89l-68 -26h-23l21 30h74q35 23 35 71q0 54 -70 60l41 65q-101 1 -186 57v149h5l39 -101q75 -77 171 -77q68 0 109 38t41 101q0 51 -29.5 89.5t-96.5 75.5l-113 61q-58 32 -87 64t-29 86q0 73 56.5 120.5
t153.5 66.5q106 0 183 -44v-147h-5l-44 114q-64 59 -145 59q-65 0 -104.5 -36.5t-39.5 -91.5q0 -45 27 -76t85 -62l113 -61q66 -36 98 -77t32 -97q0 -152 -226 -211z" />
    <glyph glyph-name="scedilla" unicode="&#x15f;" horiz-adv-x="358" 
d="M241 244q49 -29 68 -55.5t18 -65.5q-1 -97 -155 -137l-24 -39q34 -2 58.5 -21.5t24.5 -51.5q0 -58 -76 -89l-68 -26h-23l21 30h74q35 23 35 71q0 54 -70 60l41 65q-64 1 -135 46v118h5l46 -98q50 -46 101 -46q46 0 69.5 22.5t23.5 55.5q0 40 -18.5 62t-69.5 53l-71 43
q-48 30 -62 48q-20 25 -20 61q0 44 35.5 72.5t109.5 52.5q76 0 136 -37v-119h-5l-41 99q-42 40 -102 40q-37 0 -60 -20.5t-23 -52.5q0 -23 12.5 -41.5t26 -27.5t42.5 -27z" />
    <glyph glyph-name="Scaron" unicode="&#x160;" horiz-adv-x="510" 
d="M263 759l-127 141h5l124 -88l124 88h5l-127 -141h-4zM239 -15q-108 0 -194 57v149h5l39 -101q75 -77 171 -77q68 0 109 38t41 101q0 51 -29.5 89.5t-96.5 75.5l-113 61q-58 32 -87 64t-29 86q0 73 56.5 120.5t153.5 66.5q106 0 183 -44v-147h-5l-44 114q-64 59 -145 59
q-65 0 -104.5 -36.5t-39.5 -91.5q0 -45 27 -76t85 -62l113 -61q66 -36 98 -77t32 -97q0 -152 -226 -211z" />
    <glyph glyph-name="scaron" unicode="&#x161;" horiz-adv-x="358" 
d="M176 542l-126 168h5l124 -98l124 98h5l-126 -168h-6zM170 -15q-68 0 -140 46v118h5l46 -98q50 -46 101 -46q46 0 69.5 22.5t23.5 55.5q0 40 -18.5 62t-69.5 53l-71 43q-48 30 -62 48q-20 25 -20 61q0 44 35.5 72.5t109.5 52.5q76 0 136 -37v-119h-5l-41 99
q-42 40 -102 40q-37 0 -60 -20.5t-23 -52.5q0 -23 12.5 -41.5t26 -27.5t42.5 -27l76 -45q49 -29 68 -55.5t18 -65.5q-1 -98 -157 -138z" />
    <glyph glyph-name="uni0162" unicode="&#x162;" horiz-adv-x="566" 
d="M556 700v-191h-5l-61 181h-172v-680l92 -5v-5h-125l-33 -53q34 -2 58.5 -21.5t24.5 -51.5q0 -58 -76 -89l-68 -26h-23l21 30h74q35 23 35 71q0 54 -70 60l51 80h-123v5l92 5v680h-172l-61 -181h-5v191h546z" />
    <glyph glyph-name="uni0163" unicode="&#x163;" horiz-adv-x="313" 
d="M148 -53q34 -2 58.5 -21.5t24.5 -51.5q0 -58 -76 -89l-68 -26h-23l21 30h74q35 23 35 71q0 54 -70 60l42 66q-50 5 -65.5 34.5t-15.5 84.5v350h-80v5h80v83l60 38v-121h151v-5h-151v-353q0 -72 63 -72q47 0 95 28l3 -4l-120 -69h-14z" />
    <glyph glyph-name="Tcaron" unicode="&#x164;" horiz-adv-x="566" 
d="M281 759l-127 141h5l124 -88l124 88h5l-127 -141h-4zM156 0v5l92 5v680h-172l-61 -181h-5v191h546v-191h-5l-61 181h-172v-680l92 -5v-5h-254z" />
    <glyph glyph-name="tcaron" unicode="&#x165;" horiz-adv-x="387" 
d="M301 479l-3 1q7 18 54 143l-33 -2l-21 4l-3 43l6 34l54 3l23 -3l4 -41l-8 -36zM186 -15q-62 0 -81.5 30t-19.5 90v350h-80v5h80v83l60 38v-121h151v-5h-151v-353q0 -72 63 -72q47 0 95 28l3 -4z" />
    <glyph glyph-name="Tbar" unicode="&#x166;" horiz-adv-x="566" 
d="M556 700v-191h-5l-61 181h-172v-255h118v-5h-118v-420l92 -5v-5h-254v5l92 5v420h-118v5h118v255h-172l-61 -181h-5v191h546z" />
    <glyph glyph-name="tbar" unicode="&#x167;" horiz-adv-x="313" 
d="M303 58l3 -4l-120 -69q-62 0 -81.5 30t-19.5 90v205h-80v5h80v140h-80v5h80v83l60 38v-121h151v-5h-151v-140h151v-5h-151v-208q0 -72 63 -72q47 0 95 28z" />
    <glyph glyph-name="Utilde" unicode="&#x168;" horiz-adv-x="664" 
d="M197 771l24 95l63 22l196 -87l27 90h5l-24 -95l-63 -22l-196 88l-27 -91h-5zM340 -15q-239 0 -239 264v441l-91 5v5h253v-5l-92 -5v-451q0 -98 51 -162t147 -64q80 0 129 65t49 161v451l-92 5v5h199v-5l-92 -5v-448q0 -106 -49.5 -172.5t-172.5 -84.5z" />
    <glyph glyph-name="utilde" unicode="&#x169;" horiz-adv-x="527" 
d="M334 578l-196 88l-27 -91h-5l24 95l63 22l196 -87l27 90h5l-24 -95zM195 -15q-66 0 -88 33.5t-22 111.5v318l-74 -10l-1 5l130 22h5v-341q0 -97 66 -97q39 0 100 39l56 33v349l-74 -10l-1 5l130 22h5v-341q0 -49 15 -109l59 7l1 -5l-119 -22l-16 97z" />
    <glyph glyph-name="Umacron" unicode="&#x16a;" horiz-adv-x="664" 
d="M215 800v20h280v-20h-280zM340 -15q-239 0 -239 264v441l-91 5v5h253v-5l-92 -5v-451q0 -98 51 -162t147 -64q80 0 129 65t49 161v451l-92 5v5h199v-5l-92 -5v-448q0 -106 -49.5 -172.5t-172.5 -84.5z" />
    <glyph glyph-name="umacron" unicode="&#x16b;" horiz-adv-x="527" 
d="M124 620v20h280v-20h-280zM195 -15q-66 0 -88 33.5t-22 111.5v318l-74 -10l-1 5l130 22h5v-341q0 -97 66 -97q39 0 100 39l56 33v349l-74 -10l-1 5l130 22h5v-341q0 -49 15 -109l59 7l1 -5l-119 -22l-16 97z" />
    <glyph glyph-name="Ubreve" unicode="&#x16c;" horiz-adv-x="664" 
d="M366 754q-51 0 -84 35t-49 82l4 3q15 -29 45.5 -53.5t72.5 -24.5q67 0 117 79l4 -3q-25 -71 -110 -118zM340 -15q-239 0 -239 264v441l-91 5v5h253v-5l-92 -5v-451q0 -98 51 -162t147 -64q80 0 129 65t49 161v451l-92 5v5h199v-5l-92 -5v-448q0 -106 -49.5 -172.5
t-172.5 -84.5z" />
    <glyph glyph-name="ubreve" unicode="&#x16d;" horiz-adv-x="527" 
d="M268 566q-58 0 -96 39.5t-54 92.5l4 3q18 -31 52 -56t81 -26q25 0 46.5 7.5t38.5 22.5t26 26t21 27l4 -3q-11 -32 -41.5 -68.5t-81.5 -64.5zM195 -15q-66 0 -88 33.5t-22 111.5v318l-74 -10l-1 5l130 22h5v-341q0 -97 66 -97q39 0 100 39l56 33v349l-74 -10l-1 5l130 22
h5v-341q0 -49 15 -109l59 7l1 -5l-119 -22l-16 97z" />
    <glyph glyph-name="Uring" unicode="&#x16e;" horiz-adv-x="664" 
d="M354 729q-41 0 -69.5 22.5t-28.5 68.5q0 21 5.5 35.5t21.5 25.5t25.5 15.5t35.5 14.5q7 3 10 4q41 0 70 -23t29 -68q0 -27 -13.5 -45.5t-29 -26.5t-45.5 -19q-7 -3 -11 -4zM354 745q33 0 53.5 21t20.5 56t-20.5 56t-53.5 21t-53 -21t-20 -56t20 -56t53 -21zM340 -15
q-239 0 -239 264v441l-91 5v5h253v-5l-92 -5v-451q0 -98 51 -162t147 -64q80 0 129 65t49 161v451l-92 5v5h199v-5l-92 -5v-448q0 -106 -49.5 -172.5t-172.5 -84.5z" />
    <glyph glyph-name="uring" unicode="&#x16f;" horiz-adv-x="527" 
d="M263 539q-41 0 -69.5 22.5t-28.5 68.5q0 21 5.5 35.5t21.5 25.5t25.5 15.5t35.5 14.5q7 3 10 4q41 0 70 -23t29 -68q0 -27 -13.5 -45.5t-29 -26.5t-45.5 -19q-7 -3 -11 -4zM263 555q33 0 53.5 21t20.5 56t-20.5 56t-53.5 21t-53 -21t-20 -56t20 -56t53 -21zM195 -15
q-66 0 -88 33.5t-22 111.5v318l-74 -10l-1 5l130 22h5v-341q0 -97 66 -97q39 0 100 39l56 33v349l-74 -10l-1 5l130 22h5v-341q0 -49 15 -109l59 7l1 -5l-119 -22l-16 97z" />
    <glyph glyph-name="Uhungarumlaut" unicode="&#x170;" horiz-adv-x="664" 
d="M281 767l67 133h95l-157 -133h-5zM422 767l67 133h95l-157 -133h-5zM340 -15q-239 0 -239 264v441l-91 5v5h253v-5l-92 -5v-451q0 -98 51 -162t147 -64q80 0 129 65t49 161v451l-92 5v5h199v-5l-92 -5v-448q0 -106 -49.5 -172.5t-172.5 -84.5z" />
    <glyph glyph-name="uhungarumlaut" unicode="&#x171;" horiz-adv-x="527" 
d="M191 542l67 168h95l-157 -168h-5zM332 542l67 168h95l-157 -168h-5zM195 -15q-66 0 -88 33.5t-22 111.5v318l-74 -10l-1 5l130 22h5v-341q0 -97 66 -97q39 0 100 39l56 33v349l-74 -10l-1 5l130 22h5v-341q0 -49 15 -109l59 7l1 -5l-119 -22l-16 97z" />
    <glyph glyph-name="Uogonek" unicode="&#x172;" horiz-adv-x="664" 
d="M654 700v-5l-92 -5v-448q0 -170 -122 -228l-67 -142v-43q0 -65 120 -65v-5q-85 0 -122.5 25t-37.5 77v34l93 112q-36 -14 -86 -22q-239 0 -239 264v441l-91 5v5h253v-5l-92 -5v-451q0 -98 51 -162t147 -64q80 0 129 65t49 161v451l-92 5v5h199z" />
    <glyph glyph-name="uogonek" unicode="&#x173;" horiz-adv-x="527" 
d="M333 -171q0 -65 120 -65v-5q-85 0 -122.5 25t-37.5 77v34l89 108l-15 89l-172 -107q-66 0 -88 33.5t-22 111.5v318l-74 -10l-1 5l130 22h5v-341q0 -97 66 -97q39 0 100 39l56 33v349l-74 -10l-1 5l130 22h5v-341q0 -49 15 -109l59 7l1 -5l-110 -20l-59 -125v-43z" />
    <glyph glyph-name="Wcircumflex" unicode="&#x174;" horiz-adv-x="975" 
d="M359 767l127 141h4l127 -141h-5l-124 88l-124 -88h-5zM305 -1l-227 691l-68 5v5h231v-5l-88 -5l189 -581l139 433l-48 148l-68 5v5h231v-5l-88 -5l189 -581l187 581l-94 5v5h175v-5l-70 -5l-221 -686l-14 -5l-173 526l-168 -521z" />
    <glyph glyph-name="wcircumflex" unicode="&#x175;" horiz-adv-x="807" 
d="M275 542l127 168h4l127 -168h-5l-124 98l-124 -98h-5zM239 -15l-173 465l-61 5v5h192v-5l-60 -5l148 -418l112 334l-31 84l-61 5v5h192v-5l-61 -5l149 -418l140 418l-78 5v5h155v-5l-65 -5l-148 -433l-50 -32l-137 366l-113 -334z" />
    <glyph glyph-name="Ycircumflex" unicode="&#x176;" horiz-adv-x="679" 
d="M241 767l127 141h4l127 -141h-5l-124 88l-124 -88h-5zM196 0v5l115 5v263l-229 417l-77 5v5h251v-5l-94 -5l212 -387l211 387l-104 5v5h193v-5l-77 -5l-216 -397v-283l115 -5v-5h-300z" />
    <glyph glyph-name="ycircumflex" unicode="&#x177;" horiz-adv-x="516" 
d="M129 542l127 168h4l127 -168h-5l-124 98l-124 -98h-5zM94 -235v70h87l103 198l-52 -30l-166 447l-61 5v5h192v-5l-60 -5l151 -406l144 406l-75 5v5h154v-5l-67 -5l-149 -418l-116 -267h-85z" />
    <glyph glyph-name="Ydieresis" unicode="&#x178;" horiz-adv-x="679" 
d="M247 799l-18 4l-4 39l7 30l47 4l19 -4l4 -36l-7 -33zM459 799l-18 4l-4 39l7 30l47 4l19 -4l4 -36l-7 -33zM196 0v5l115 5v263l-229 417l-77 5v5h251v-5l-94 -5l212 -387l211 387l-104 5v5h193v-5l-77 -5l-216 -397v-283l115 -5v-5h-300z" />
    <glyph glyph-name="Zacute" unicode="&#x179;" horiz-adv-x="548" 
d="M276 767l47 133h77l-119 -133h-5zM20 0v5l414 685h-309l-74 -176h-5v186h472v-5l-414 -685h322l76 180h5v-190h-487z" />
    <glyph glyph-name="zacute" unicode="&#x17a;" horiz-adv-x="431" 
d="M211 542l65 168h72l-132 -168h-5zM35 0v4l298 449h-205l-61 -132h-5v139h344v-5l-295 -448h225l58 129h5v-136h-364z" />
    <glyph glyph-name="Zdotaccent" unicode="&#x17b;" horiz-adv-x="548" 
d="M255 800l-20 4l-4 43l7 34l53 4l21 -4l4 -40l-7 -37zM20 0v5l414 685h-309l-74 -176h-5v186h472v-5l-414 -685h322l76 180h5v-190h-487z" />
    <glyph glyph-name="zdotaccent" unicode="&#x17c;" horiz-adv-x="431" 
d="M197 598l-20 4l-4 43l7 34l53 4l21 -4l4 -40l-7 -37zM35 0v4l298 449h-205l-61 -132h-5v139h344v-5l-295 -448h225l58 129h5v-136h-364z" />
    <glyph glyph-name="Zcaron" unicode="&#x17d;" horiz-adv-x="548" 
d="M272 759l-127 141h5l124 -88l124 88h5l-127 -141h-4zM20 0v5l414 685h-309l-74 -176h-5v186h472v-5l-414 -685h322l76 180h5v-190h-487z" />
    <glyph glyph-name="zcaron" unicode="&#x17e;" horiz-adv-x="431" 
d="M213 542l-126 168h5l124 -98l124 98h5l-126 -168h-6zM35 0v4l298 449h-205l-61 -132h-5v139h344v-5l-295 -448h225l58 129h5v-136h-364z" />
    <glyph glyph-name="longs" unicode="&#x17f;" horiz-adv-x="293" 
d="M25 0v5l70 5v445h-70v5h70v13q0 60 4.5 85t24.5 49l89 103h105v-59h-150l-4 -11q-9 -26 -9 -110v-19v-501l116 -5v-5h-246z" />
    <glyph glyph-name="florin" unicode="&#x192;" horiz-adv-x="263" 
d="M-20 -235v59h97l4 11q9 26 9 110v19v491h-70v5h70v13q0 60 4.5 85t24.5 49l89 103h80v-59h-125l-4 -11q-9 -26 -9 -110v-19v-51h99v-5h-99v-453q0 -60 -4.5 -85t-24.5 -49l-89 -103h-52z" />
    <glyph glyph-name="AEacute" unicode="&#x1fc;" horiz-adv-x="940" 
d="M664 767l47 133h77l-119 -133h-5zM5 0v5l82 5l416 690h403v-176h-5l-61 166h-266v-348h148l40 114h5v-237h-5l-40 113h-148v-322h275l61 170h5v-180h-503v5l92 5v322h-210l-194 -322l90 -6v-4h-185zM300 342h204v344z" />
    <glyph glyph-name="aeacute" unicode="&#x1fd;" horiz-adv-x="697" 
d="M481 710l-132 -168h-5l65 168h72zM658 84l4 -6q-77 -57 -164 -93q-65 0 -117.5 29.5t-76.5 89.5l-148 -119q-59 0 -92.5 30.5t-33.5 83.5q0 57 53 99l205 72v51q0 23 -0.5 35.5t-5.5 30.5t-14 27.5t-27 17t-44 7.5q-29 0 -73 -13l-25 -101h-54v67l167 83q67 0 96 -17.5
t36 -71.5q50 60 161 89q149 0 149 -180v-26h-295q-1 -9 -1 -26q0 -102 45.5 -155t119.5 -53q60 0 135 49zM481 454q-113 0 -122 -180h225q0 39 -4 68.5t-14.5 56.5t-32 41t-52.5 14zM255 73l47 37q-14 39 -14 88v67l-143 -58q-50 -38 -50 -90q0 -39 21.5 -62.5t54.5 -23.5
q15 0 31.5 7.5t24 13t28.5 21.5z" />
    <glyph glyph-name="Oslashacute" unicode="&#x1fe;" horiz-adv-x="752" 
d="M502 900l-119 -133h-5l47 133h77zM603 630q109 -104 109 -266t-87.5 -260t-258.5 -119q-117 0 -205 74l-57 -74h-12l62 80q-54 49 -84 119.5t-30 151.5q0 162 87 260t258 119q122 0 212 -80l62 80h10zM120 363q0 -147 72 -249l367 472q-80 111 -204 111
q-107 0 -171 -92.5t-64 -241.5zM397 3q107 0 171 92.5t64 241.5q0 142 -68 242l-366 -472q80 -104 199 -104z" />
    <glyph glyph-name="oslashacute" unicode="&#x1ff;" horiz-adv-x="507" 
d="M366 710l-132 -168h-5l65 168h72zM411 412q61 -67 61 -171q0 -210 -230 -256q-85 0 -140 57l-44 -52h-13l50 59q-60 66 -60 170q0 207 229 256q84 0 140 -56l52 61h11zM101 241q0 -82 33 -145l235 280q-47 80 -129 80q-67 0 -103 -59t-36 -156zM266 2q67 0 103.5 61
t36.5 156q0 88 -33 149l-234 -282q48 -84 127 -84z" />
    <glyph glyph-name="Scommaaccent" unicode="&#x218;" horiz-adv-x="510" 
d="M239 -15q-108 0 -194 57v149h5l39 -101q75 -77 171 -77q68 0 109 38t41 101q0 51 -29.5 89.5t-96.5 75.5l-113 61q-58 32 -87 64t-29 86q0 73 56.5 120.5t153.5 66.5q106 0 183 -44v-147h-5l-44 114q-64 59 -145 59q-65 0 -104.5 -36.5t-39.5 -91.5q0 -45 27 -76t85 -62
l113 -61q66 -36 98 -77t32 -97q0 -152 -226 -211zM208 -233l-5 2l46 107l-33 22v45h70v-70z" />
    <glyph glyph-name="scommaaccent" unicode="&#x219;" horiz-adv-x="358" 
d="M170 -15q-68 0 -140 46v118h5l46 -98q50 -46 101 -46q46 0 69.5 22.5t23.5 55.5q0 40 -18.5 62t-69.5 53l-71 43q-48 30 -62 48q-20 25 -20 61q0 44 35.5 72.5t109.5 52.5q76 0 136 -37v-119h-5l-41 99q-42 40 -102 40q-37 0 -60 -20.5t-23 -52.5q0 -23 12.5 -41.5
t26 -27.5t42.5 -27l76 -45q49 -29 68 -55.5t18 -65.5q-1 -98 -157 -138zM142 -233l-5 2l46 107l-33 22v45h70v-70z" />
    <glyph glyph-name="uni021A" unicode="&#x21a;" horiz-adv-x="566" 
d="M156 0v5l92 5v680h-172l-61 -181h-5v191h546v-191h-5l-61 181h-172v-680l92 -5v-5h-254zM246 -233l-5 2l46 107l-33 22v45h70v-70z" />
    <glyph glyph-name="uni021B" unicode="&#x21b;" horiz-adv-x="313" 
d="M186 -15q-62 0 -81.5 30t-19.5 90v350h-80v5h80v83l60 38v-121h151v-5h-151v-353q0 -72 63 -72q47 0 95 28l3 -4zM142 -233l-5 2l46 107l-33 22v45h70v-70z" />
    <glyph glyph-name="uni0237" unicode="&#x237;" horiz-adv-x="239" 
d="M-20 -236v63h114l2 12q9 58 9 98v509l-73 -19l-1 4l129 39h5v-518q0 -37 -26 -72l-88 -116h-71z" />
    <glyph glyph-name="uni02BC" unicode="&#x2bc;" horiz-adv-x="205" 
d="M57 463l-3 1q10 26 29.5 78t29.5 78l-36 -2l-23 4l-4 47l7 37l59 4l25 -4l4 -44l-8 -40z" />
    <glyph glyph-name="circumflex" unicode="&#x2c6;" horiz-adv-x="600" 
d="M116 542l127 168h4l127 -168h-5l-124 98l-124 -98h-5z" />
    <glyph glyph-name="caron" unicode="&#x2c7;" horiz-adv-x="600" 
d="M241 542l-126 168h5l124 -98l124 98h5l-126 -168h-6z" />
    <glyph glyph-name="breve" unicode="&#x2d8;" horiz-adv-x="600" 
d="M246 566q-58 0 -96 39.5t-54 92.5l4 3q18 -31 52 -56t81 -26q25 0 46.5 7.5t38.5 22.5t26 26t21 27l4 -3q-11 -32 -41.5 -68.5t-81.5 -64.5z" />
    <glyph glyph-name="dotaccent" unicode="&#x2d9;" horiz-adv-x="600" 
d="M236 598l-20 4l-4 43l7 34l53 4l21 -4l4 -40l-7 -37z" />
    <glyph glyph-name="ring" unicode="&#x2da;" horiz-adv-x="600" 
d="M249 539q-41 0 -69.5 22.5t-28.5 68.5q0 21 5.5 35.5t21.5 25.5t25.5 15.5t35.5 14.5q7 3 10 4q41 0 70 -23t29 -68q0 -27 -13.5 -45.5t-29 -26.5t-45.5 -19q-7 -3 -11 -4zM249 555q33 0 53.5 21t20.5 56t-20.5 56t-53.5 21t-53 -21t-20 -56t20 -56t53 -21z" />
    <glyph glyph-name="ogonek" unicode="&#x2db;" horiz-adv-x="600" 
d="M350 -241q-85 0 -122.5 25t-37.5 77v34l108 131h5l-73 -154v-43q0 -65 120 -65v-5z" />
    <glyph glyph-name="tilde" unicode="&#x2dc;" horiz-adv-x="600" 
d="M320 578l-196 88l-27 -91h-5l24 95l63 22l196 -87l27 90h5l-24 -95z" />
    <glyph glyph-name="hungarumlaut" unicode="&#x2dd;" horiz-adv-x="600" 
d="M57 542l67 168h95l-157 -168h-5zM198 542l67 168h95l-157 -168h-5z" />
    <glyph glyph-name="gravecomb" unicode="&#x300;" horiz-adv-x="0" 
d="M-221 542l-132 168h72l65 -168h-5z" />
    <glyph glyph-name="acutecomb" unicode="&#x301;" horiz-adv-x="0" 
d="M-353 542l65 168h72l-132 -168h-5z" />
    <glyph glyph-name="uni0302" unicode="&#x302;" horiz-adv-x="0" 
d="M-384 542l127 168h4l127 -168h-5l-124 98l-124 -98h-5z" />
    <glyph glyph-name="tildecomb" unicode="&#x303;" horiz-adv-x="0" 
d="M-180 578l-196 88l-27 -91h-5l24 95l63 22l196 -87l27 90h5l-24 -95z" />
    <glyph glyph-name="uni0304" unicode="&#x304;" horiz-adv-x="0" 
d="M-390 620v20h280v-20h-280z" />
    <glyph glyph-name="uni0306" unicode="&#x306;" horiz-adv-x="0" 
d="M-254 566q-58 0 -96 39.5t-54 92.5l4 3q18 -31 52 -56t81 -26q25 0 46.5 7.5t38.5 22.5t26 26t21 27l4 -3q-11 -32 -41.5 -68.5t-81.5 -64.5z" />
    <glyph glyph-name="uni0307" unicode="&#x307;" horiz-adv-x="0" 
d="M-264 598l-20 4l-4 43l7 34l53 4l21 -4l4 -40l-7 -37z" />
    <glyph glyph-name="uni0308" unicode="&#x308;" horiz-adv-x="0" 
d="M-350 597l-18 4l-4 39l7 30l47 4l19 -4l4 -36l-7 -33zM-190 597l-18 4l-4 39l7 30l47 4l19 -4l4 -36l-7 -33z" />
    <glyph glyph-name="uni030A" unicode="&#x30a;" horiz-adv-x="0" 
d="M-251 539q-41 0 -69.5 22.5t-28.5 68.5q0 21 5.5 35.5t21.5 25.5t25.5 15.5t35.5 14.5q7 3 10 4q41 0 70 -23t29 -68q0 -27 -13.5 -45.5t-29 -26.5t-45.5 -19q-7 -3 -11 -4zM-251 555q33 0 53.5 21t20.5 56t-20.5 56t-53.5 21t-53 -21t-20 -56t20 -56t53 -21z" />
    <glyph glyph-name="uni030B" unicode="&#x30b;" horiz-adv-x="0" 
d="M-443 542l67 168h95l-157 -168h-5zM-302 542l67 168h95l-157 -168h-5z" />
    <glyph glyph-name="uni030C" unicode="&#x30c;" horiz-adv-x="0" 
d="M-259 542l-126 168h5l124 -98l124 98h5l-126 -168h-6z" />
    <glyph glyph-name="uni0312" unicode="&#x312;" horiz-adv-x="0" 
d="M-300 542v75l78 95l5 -2l-51 -96l38 -22v-50h-70z" />
    <glyph glyph-name="uni0326" unicode="&#x326;" horiz-adv-x="0" 
d="M-291 -233l-5 2l46 107l-33 22v45h70v-70z" />
    <glyph glyph-name="uni0327" unicode="&#x327;" horiz-adv-x="0" 
d="M-320 -241l21 30h74q35 23 35 71q0 54 -70 60l51 80h6l-33 -53q34 -2 58.5 -21.5t24.5 -51.5q0 -58 -76 -89l-68 -26h-23z" />
    <glyph glyph-name="uni0328" unicode="&#x328;" horiz-adv-x="0" 
d="M-150 -241q-85 0 -122.5 25t-37.5 77v34l108 131h5l-73 -154v-43q0 -65 120 -65v-5z" />
    <glyph glyph-name="uni0394" unicode="&#x394;" horiz-adv-x="689" 
d="M20 0v5l297 690l58 20l294 -709v-6h-649zM41 15h544l-265 660z" />
    <glyph glyph-name="uni03A9" unicode="&#x3a9;" horiz-adv-x="669" 
d="M31 0v170h5l43 -120h176v98q-93 13 -159 81t-66 181q0 116 75 191.5t240 113.5q129 0 211.5 -82t82.5 -203q0 -225 -224 -282v-98h176l43 120h5v-170h-244v149q29 5 55 19.5t52 43t41.5 80.5t15.5 122q0 124 -65.5 200t-169.5 76q-97 0 -155.5 -72t-58.5 -182
q0 -122 48 -200t117 -86v-150h-244z" />
    <glyph glyph-name="uni03BC" unicode="&#x3bc;" 
d="M443 10q12 -1 37 -2.5t38 -2.5v-5h-94l-41 74v18l-172 -107q-80 0 -100 55v-70l75 -200h-85v690h60v-336q0 -97 66 -97q17 0 34 5.5t28 11.5t38 22l56 33v361h60v-450z" />
    <glyph glyph-name="pi" unicode="&#x3c0;" 
d="M166 0v450h-56l-58 -130h-5v140h526v-10h-120v-440q12 -1 37.5 -2.5t37.5 -2.5v-5h-94l-41 74v376h-167v-450h-60z" />
    <glyph glyph-name="uni0E3F" unicode="&#xe3f;" horiz-adv-x="614" 
d="M574 200q0 -93 -67.5 -145t-181.5 -55v-80h-10v80h-3h-282v5l92 5v680l-92 5v5h285v81h10v-81h14q91 0 141.5 -44t50.5 -110q0 -74 -61.5 -124t-133.5 -52q115 -1 176.5 -48t61.5 -122zM192 690v-316h120h3v321h-2zM456 545q0 64 -34.5 105t-96.5 45v-321q64 5 97.5 52
t33.5 119zM299 5h16v359h-123v-354zM325 6q174 12 174 187q0 80 -48.5 124.5t-125.5 46.5v-358z" />
    <glyph glyph-name="Wgrave" unicode="&#x1e80;" horiz-adv-x="975" 
d="M501 767l-119 133h77l47 -133h-5zM305 -1l-227 691l-68 5v5h231v-5l-88 -5l189 -581l139 433l-48 148l-68 5v5h231v-5l-88 -5l189 -581l187 581l-94 5v5h175v-5l-70 -5l-221 -686l-14 -5l-173 526l-168 -521z" />
    <glyph glyph-name="wgrave" unicode="&#x1e81;" horiz-adv-x="807" 
d="M401 542l-132 168h72l65 -168h-5zM239 -15l-173 465l-61 5v5h192v-5l-60 -5l148 -418l112 334l-31 84l-61 5v5h192v-5l-61 -5l149 -418l140 418l-78 5v5h155v-5l-65 -5l-148 -433l-50 -32l-137 366l-113 -334z" />
    <glyph glyph-name="Wacute" unicode="&#x1e82;" horiz-adv-x="975" 
d="M490 767l47 133h77l-119 -133h-5zM305 -1l-227 691l-68 5v5h231v-5l-88 -5l189 -581l139 433l-48 148l-68 5v5h231v-5l-88 -5l189 -581l187 581l-94 5v5h175v-5l-70 -5l-221 -686l-14 -5l-173 526l-168 -521z" />
    <glyph glyph-name="wacute" unicode="&#x1e83;" horiz-adv-x="807" 
d="M399 542l65 168h72l-132 -168h-5zM239 -15l-173 465l-61 5v5h192v-5l-60 -5l148 -418l112 334l-31 84l-61 5v5h192v-5l-61 -5l149 -418l140 418l-78 5v5h155v-5l-65 -5l-148 -433l-50 -32l-137 366l-113 -334z" />
    <glyph glyph-name="Wdieresis" unicode="&#x1e84;" horiz-adv-x="975" 
d="M365 799l-18 4l-4 39l7 30l47 4l19 -4l4 -36l-7 -33zM577 799l-18 4l-4 39l7 30l47 4l19 -4l4 -36l-7 -33zM305 -1l-227 691l-68 5v5h231v-5l-88 -5l189 -581l139 433l-48 148l-68 5v5h231v-5l-88 -5l189 -581l187 581l-94 5v5h175v-5l-70 -5l-221 -686l-14 -5l-173 526
l-168 -521z" />
    <glyph glyph-name="wdieresis" unicode="&#x1e85;" horiz-adv-x="807" 
d="M307 597l-18 4l-4 39l7 30l47 4l19 -4l4 -36l-7 -33zM467 597l-18 4l-4 39l7 30l47 4l19 -4l4 -36l-7 -33zM239 -15l-173 465l-61 5v5h192v-5l-60 -5l148 -418l112 334l-31 84l-61 5v5h192v-5l-61 -5l149 -418l140 418l-78 5v5h155v-5l-65 -5l-148 -433l-50 -32l-137 366
l-113 -334z" />
    <glyph glyph-name="Ygrave" unicode="&#x1ef2;" horiz-adv-x="679" 
d="M383 767l-119 133h77l47 -133h-5zM196 0v5l115 5v263l-229 417l-77 5v5h251v-5l-94 -5l212 -387l211 387l-104 5v5h193v-5l-77 -5l-216 -397v-283l115 -5v-5h-300z" />
    <glyph glyph-name="ygrave" unicode="&#x1ef3;" horiz-adv-x="516" 
d="M255 542l-132 168h72l65 -168h-5zM94 -235v70h87l103 198l-52 -30l-166 447l-61 5v5h192v-5l-60 -5l151 -406l144 406l-75 5v5h154v-5l-67 -5l-149 -418l-116 -267h-85z" />
    <glyph glyph-name="uni2002" unicode="&#x2002;" horiz-adv-x="500" 
 />
    <glyph glyph-name="uni2003" unicode="&#x2003;" horiz-adv-x="1000" 
 />
    <glyph glyph-name="uni2004" unicode="&#x2004;" horiz-adv-x="0" 
 />
    <glyph glyph-name="uni2005" unicode="&#x2005;" horiz-adv-x="250" 
 />
    <glyph glyph-name="uni2009" unicode="&#x2009;" horiz-adv-x="135" 
 />
    <glyph glyph-name="uni200A" unicode="&#x200a;" horiz-adv-x="75" 
 />
    <glyph glyph-name="endash" unicode="&#x2013;" horiz-adv-x="470" 
d="M35 267v20h400v-20h-400z" />
    <glyph glyph-name="emdash" unicode="&#x2014;" horiz-adv-x="870" 
d="M35 267v20h800v-20h-800z" />
    <glyph glyph-name="quoteleft" unicode="&#x2018;" horiz-adv-x="210" 
d="M153 712l3 -1q-10 -26 -29.5 -78t-29.5 -78l36 2l23 -4l4 -47l-7 -37l-59 -4l-25 4l-4 44l8 40z" />
    <glyph glyph-name="quoteright" unicode="&#x2019;" horiz-adv-x="205" 
d="M57 463l-3 1q10 26 29.5 78t29.5 78l-36 -2l-23 4l-4 47l7 37l59 4l25 -4l4 -44l-8 -40z" />
    <glyph glyph-name="quotesinglbase" unicode="&#x201a;" horiz-adv-x="165" 
d="M47 -138l-3 1q10 26 29.5 78t29.5 78l-36 -2l-23 4l-4 47l7 37l59 4l25 -4l4 -44l-8 -40z" />
    <glyph glyph-name="quotedblleft" unicode="&#x201c;" horiz-adv-x="315" 
d="M133 712l3 -1q-10 -26 -29.5 -78t-29.5 -78l36 2l23 -4l4 -47l-7 -37l-59 -4l-25 4l-4 44l8 40zM278 712l3 -1q-10 -26 -29.5 -78t-29.5 -78l36 2l23 -4l4 -47l-7 -37l-59 -4l-25 4l-4 44l8 40z" />
    <glyph glyph-name="quotedblright" unicode="&#x201d;" horiz-adv-x="315" 
d="M52 465l-3 1q10 26 29.5 78t29.5 78l-36 -2l-23 4l-4 47l7 37l59 4l25 -4l4 -44l-8 -40zM197 465l-3 1q10 26 29.5 78t29.5 78l-36 -2l-23 4l-4 47l7 37l59 4l25 -4l4 -44l-8 -40z" />
    <glyph glyph-name="quotedblbase" unicode="&#x201e;" horiz-adv-x="315" 
d="M52 -138l-3 1q10 26 29.5 78t29.5 78l-36 -2l-23 4l-4 47l7 37l59 4l25 -4l4 -44l-8 -40zM197 -138l-3 1q10 26 29.5 78t29.5 78l-36 -2l-23 4l-4 47l7 37l59 4l25 -4l4 -44l-8 -40z" />
    <glyph glyph-name="dagger" unicode="&#x2020;" horiz-adv-x="431" 
d="M213 -60l-13 286l-37 103l32 41l17 126l-187 -39v89l188 -39l-42 203h89l-42 -203l188 39v-89l-187 39l17 -126l32 -41l-37 -103l-13 -286h-5z" />
    <glyph glyph-name="daggerdbl" unicode="&#x2021;" horiz-adv-x="441" 
d="M176 -52l42 203l-188 -39v89l187 -39l-17 126l-32 41l32 41l17 126l-187 -39v89l188 -39l-42 203h89l-42 -203l188 39v-89l-187 39l17 -126l32 -41l-32 -41l-17 -126l187 39v-89l-188 39l42 -203h-89z" />
    <glyph glyph-name="bullet" unicode="&#x2022;" horiz-adv-x="201" 
d="M79 253l-25 4l-4 52l9 41l63 4l25 -4l4 -49l-9 -44z" />
    <glyph glyph-name="ellipsis" unicode="&#x2026;" horiz-adv-x="717" 
d="M101 -4l-22 4l-4 47l7 38l59 4l23 -4l4 -44l-7 -41zM338 -4l-22 4l-4 47l7 38l59 4l23 -4l4 -44l-7 -41zM575 -4l-22 4l-4 47l7 38l59 4l23 -4l4 -44l-7 -41z" />
    <glyph glyph-name="perthousand" unicode="&#x2030;" horiz-adv-x="1172" 
d="M198 358q-69 0 -108.5 46.5t-39.5 121.5q0 76 41.5 119.5t134.5 59.5q69 0 109 -47t40 -122q0 -154 -177 -178zM155 -5l494 710h24l-492 -710h-26zM219 370q50 0 75.5 42.5t25.5 108.5q0 78 -28 124.5t-87 46.5q-50 0 -75.5 -42.5t-25.5 -108.5q0 -78 28 -124.5t87 -46.5
zM579 -6q-69 0 -108.5 46.5t-39.5 121.5q0 76 41.5 119.5t134.5 59.5q69 0 109 -47t40 -122q0 -154 -177 -178zM945 -6q-69 0 -108.5 46.5t-39.5 121.5q0 76 41.5 119.5t134.5 59.5q69 0 109 -47t40 -122q0 -154 -177 -178zM600 6q50 0 75.5 42.5t25.5 108.5q0 78 -28 124.5
t-87 46.5q-50 0 -75.5 -42.5t-25.5 -108.5q0 -78 28 -124.5t87 -46.5zM966 6q50 0 75.5 42.5t25.5 108.5q0 78 -28 124.5t-87 46.5q-50 0 -75.5 -42.5t-25.5 -108.5q0 -78 28 -124.5t87 -46.5z" />
    <glyph glyph-name="guilsinglleft" unicode="&#x2039;" horiz-adv-x="277" 
d="M231 15l-181 220l182 220h5l-132 -220l132 -220h-6z" />
    <glyph glyph-name="guilsinglright" unicode="&#x203a;" horiz-adv-x="277" 
d="M50 15l132 220l-132 220h5l182 -220l-181 -220h-6z" />
    <glyph glyph-name="fraction" unicode="&#x2044;" horiz-adv-x="91" 
d="M-160 -50l387 760h24l-385 -760h-26z" />
    <glyph glyph-name="uni2070" unicode="&#x2070;" horiz-adv-x="392" 
d="M184 391q-65 0 -102.5 53.5t-37.5 140.5q0 178 164 209q65 0 102.5 -54t37.5 -140q0 -178 -164 -209zM201 404q40 0 59 48t19 130q0 199 -88 199q-40 0 -59.5 -48t-19.5 -129q0 -200 89 -200z" />
    <glyph glyph-name="uni2074" unicode="&#x2074;" horiz-adv-x="364" 
d="M199 400v124h-166l-5 7l181 254h74v-6l-244 -246h160v92l58 33v-126h81v-8h-81v-124h-58z" />
    <glyph glyph-name="uni2075" unicode="&#x2075;" horiz-adv-x="327" 
d="M44 399v53h112q63 39 63 98q0 27 -16 46t-48 19q-29 0 -72 -20l-25 -12l-3 3l23 199h204l-8 -51h-193l-16 -142l120 61q47 0 71.5 -23t24.5 -57q0 -45 -29.5 -73.5t-86.5 -56.5l-88 -44h-33z" />
    <glyph glyph-name="uni2076" unicode="&#x2076;" horiz-adv-x="366" 
d="M221 647q50 0 75.5 -31.5t25.5 -73.5q0 -118 -144 -150q-62 0 -96 44t-34 109q0 84 54 152.5t167 98.5l2 -5q-93 -33 -126 -85t-33 -134zM191 405q68 0 68 112q0 45 -16 69.5t-41 24.5q-20 0 -73 -35l-17 -11q1 -77 23 -118.5t56 -41.5z" />
    <glyph glyph-name="uni2077" unicode="&#x2077;" horiz-adv-x="321" 
d="M71 400v5l191 327h-233v53h256l4 -5l-172 -380h-46z" />
    <glyph glyph-name="uni2078" unicode="&#x2078;" horiz-adv-x="359" 
d="M257 583q55 -41 55 -87q0 -41 -34 -65.5t-106 -38.5q-54 2 -89.5 26t-35.5 71q0 58 97 97l-32 24q-57 44 -57 86q0 37 31 60t96 38q122 -3 122 -82q0 -55 -94 -94zM174 782q-26 0 -42.5 -13t-16.5 -37q0 -25 17.5 -47t55.5 -50l15 -11q42 33 42 84q0 34 -19.5 54
t-51.5 20zM185 404q27 0 46.5 14.5t19.5 47.5q0 24 -13.5 41.5t-47.5 43.5l-40 30q-45 -37 -45 -81q0 -46 24.5 -71t55.5 -25z" />
    <glyph glyph-name="uni2079" unicode="&#x2079;" horiz-adv-x="357" 
d="M177 794q62 0 96 -44t34 -109q0 -83 -55 -151t-166 -98l-2 5q158 59 158 211v5l-105 -74q-51 0 -77.5 32.5t-26.5 74.5q0 113 144 148zM221 606l21 14q-1 76 -23 118t-55 42q-68 0 -68 -106q0 -48 17 -73t44 -25h6t5.5 0.5t5.5 1.5l4.5 1.5t5 2.5t5 2.5t6.5 4t7 5t8.5 6
t10.5 6.5z" />
    <glyph glyph-name="uni207A" unicode="&#x207a;" horiz-adv-x="410" 
d="M198 450v134h-148v13h148v136h14v-136h148v-13h-148v-134h-14z" />
    <glyph glyph-name="uni207B" unicode="&#x207b;" horiz-adv-x="416" 
d="M50 596v13h316v-13h-316z" />
    <glyph glyph-name="uni207C" unicode="&#x207c;" horiz-adv-x="411" 
d="M50 631v13h311v-13h-311zM50 526v13h311v-13h-311z" />
    <glyph glyph-name="uni207D" unicode="&#x207d;" horiz-adv-x="207" 
d="M183 321q-73 67 -103 126.5t-30 136.5t30 136.5t103 125.5l4 -3q-95 -92 -95 -259q0 -168 95 -260z" />
    <glyph glyph-name="uni207E" unicode="&#x207e;" horiz-adv-x="207" 
d="M23 321l-3 3q95 94 95 260q0 165 -95 259l3 3q73 -66 103.5 -125.5t30.5 -136.5t-30.5 -136.5t-103.5 -126.5z" />
    <glyph glyph-name="uni2080" unicode="&#x2080;" horiz-adv-x="392" 
d="M184 -159q-65 0 -102.5 53.5t-37.5 140.5q0 178 164 209q65 0 102.5 -54t37.5 -140q0 -178 -164 -209zM201 -146q40 0 59 48t19 130q0 199 -88 199q-40 0 -59.5 -48t-19.5 -129q0 -200 89 -200z" />
    <glyph glyph-name="uni2081" unicode="&#x2081;" horiz-adv-x="290" 
d="M41 -150v6l84 4v348l-85 -27l-2 6l139 53h6v-380l84 -4v-6h-226z" />
    <glyph glyph-name="uni2082" unicode="&#x2082;" horiz-adv-x="362" 
d="M83 -97h238v-7l-18 -46h-269l-5 6l60 60q80 78 113.5 129.5t33.5 99.5q0 37 -19.5 58.5t-46.5 21.5q-20 0 -51 -9l-22 -85h-53v63l137 50q62 0 92.5 -26.5t30.5 -66.5q0 -55 -38.5 -101t-126.5 -108z" />
    <glyph glyph-name="uni2083" unicode="&#x2083;" horiz-adv-x="334" 
d="M42 -152v53h139q39 31 39 69q0 34 -30.5 57t-84.5 22l-1 8l32 16q43 22 57 41.5t14 48.5q0 27 -16 43.5t-40 16.5q-12 0 -39 -8l-22 -72h-49v55l141 46q44 0 65.5 -20.5t21.5 -46.5q0 -60 -109 -95q54 -1 88 -26t34 -59t-24.5 -58.5t-75.5 -49.5l-87 -41h-53z" />
    <glyph glyph-name="uni2084" unicode="&#x2084;" horiz-adv-x="364" 
d="M199 -150v124h-166l-5 7l181 254h74v-6l-244 -246h160v92l58 33v-126h81v-8h-81v-124h-58z" />
    <glyph glyph-name="uni2085" unicode="&#x2085;" horiz-adv-x="327" 
d="M44 -151v53h112q63 39 63 98q0 27 -16 46t-48 19q-29 0 -72 -20l-25 -12l-3 3l23 199h204l-8 -51h-193l-16 -142l120 61q47 0 71.5 -23t24.5 -57q0 -45 -29.5 -73.5t-86.5 -56.5l-88 -44h-33z" />
    <glyph glyph-name="uni2086" unicode="&#x2086;" horiz-adv-x="366" 
d="M221 97q50 0 75.5 -31.5t25.5 -73.5q0 -118 -144 -150q-62 0 -96 44t-34 109q0 84 54 152.5t167 98.5l2 -5q-93 -33 -126 -85t-33 -134zM191 -145q68 0 68 112q0 45 -16 69.5t-41 24.5q-20 0 -73 -35l-17 -11q1 -77 23 -118.5t56 -41.5z" />
    <glyph glyph-name="uni2087" unicode="&#x2087;" horiz-adv-x="321" 
d="M71 -150v5l191 327h-233v53h256l4 -5l-172 -380h-46z" />
    <glyph glyph-name="uni2088" unicode="&#x2088;" horiz-adv-x="359" 
d="M257 33q55 -41 55 -87q0 -41 -34 -65.5t-106 -38.5q-54 2 -89.5 26t-35.5 71q0 58 97 97l-32 24q-57 44 -57 86q0 37 31 60t96 38q122 -3 122 -82q0 -55 -94 -94zM174 232q-26 0 -42.5 -13t-16.5 -37q0 -25 17.5 -47t55.5 -50l15 -11q42 33 42 84q0 34 -19.5 54t-51.5 20
zM185 -146q27 0 46.5 14.5t19.5 47.5q0 24 -13.5 41.5t-47.5 43.5l-40 30q-45 -37 -45 -81q0 -46 24.5 -71t55.5 -25z" />
    <glyph glyph-name="uni2089" unicode="&#x2089;" horiz-adv-x="357" 
d="M177 244q62 0 96 -44t34 -109q0 -83 -55 -151t-166 -98l-2 5q158 59 158 211v5l-105 -74q-51 0 -77.5 32.5t-26.5 74.5q0 113 144 148zM221 56l21 14q-1 76 -23 118t-55 42q-68 0 -68 -106q0 -48 17 -73t44 -25h6t5.5 0.5t5.5 1.5l4.5 1.5t5 2.5t5 2.5t6.5 4t7 5t8.5 6
t10.5 6.5z" />
    <glyph glyph-name="uni208A" unicode="&#x208a;" horiz-adv-x="410" 
d="M198 -100v134h-148v13h148v136h14v-136h148v-13h-148v-134h-14z" />
    <glyph glyph-name="uni208B" unicode="&#x208b;" horiz-adv-x="416" 
d="M50 46v13h316v-13h-316z" />
    <glyph glyph-name="uni208C" unicode="&#x208c;" horiz-adv-x="411" 
d="M50 81v13h311v-13h-311zM50 -24v13h311v-13h-311z" />
    <glyph glyph-name="uni208D" unicode="&#x208d;" horiz-adv-x="207" 
d="M183 -229q-73 67 -103 126.5t-30 136.5t30 136.5t103 125.5l4 -3q-95 -92 -95 -259q0 -168 95 -260z" />
    <glyph glyph-name="uni208E" unicode="&#x208e;" horiz-adv-x="207" 
d="M23 -229l-3 3q95 94 95 260q0 165 -95 259l3 3q73 -66 103.5 -125.5t30.5 -136.5t-30.5 -136.5t-103.5 -126.5z" />
    <glyph glyph-name="uni20A9" unicode="&#x20a9;" horiz-adv-x="975" 
d="M965 695l-70 -5l-89 -277h122v-5h-124l-19 -59h143v-5h-144l-110 -340l-14 -5l-113 345h-118l-110 -340l-14 -5l-113 345h-145v5h143l-19 59h-124v5h122l-91 277l-68 5v5h231v-5l-88 -5l90 -277h197l41 129l-48 148l-68 5v5h231v-5l-88 -5l90 -277h197l89 277l-94 5v5
h175v-5zM487 525l-36 -112h73zM245 408l19 -59h155l19 59h-193zM430 349h115l-20 59h-76zM774 349l19 59h-193l19 -59h155zM342 109l75 235h-151zM697 109l76 235h-152z" />
    <glyph glyph-name="Euro" unicode="&#x20ac;" horiz-adv-x="649" 
d="M603 100l6 -9q-93 -82 -207 -106q-124 0 -204.5 82.5t-94.5 222.5h-58v10h57q-2 28 -2 44q0 29 3 56h-58v10h59q18 130 100.5 212.5t210.5 95.5q56 0 108 -15.5t82 -40.5v-163h-5l-61 144q-48 60 -133 60q-93 0 -155 -81t-70 -212h325l-5 -10h-320q-1 -9 -1 -27
q0 -42 4 -73h257l-5 -10h-251q17 -121 80 -189t161 -68q40 0 89.5 19t87.5 48z" />
    <glyph glyph-name="uni20AE" unicode="&#x20ae;" horiz-adv-x="566" 
d="M556 700v-161h-5l-61 151h-172v-285l168 95v-10l-168 -95v-40l168 95v-10l-168 -95v-335l92 -5v-5h-254v5l92 5v295l-168 -95v10l168 95v40l-168 -95v10l168 95v325h-172l-61 -151h-5v161h546z" />
    <glyph glyph-name="uni20B4" unicode="&#x20b4;" horiz-adv-x="510" 
d="M396 413h97v-5h-469v5h231l33 18q58 31 85 62t27 76q0 55 -39.5 91.5t-104.5 36.5q-81 0 -145 -59l-44 -114h-5v147q77 44 183 44q97 -19 153.5 -66.5t56.5 -120.5q0 -69 -59 -115zM24 344v5h469v-5h-217l-50 -27q-67 -37 -96.5 -75.5t-29.5 -89.5q0 -63 41 -101t109 -38
q96 0 171 77l39 101h5v-149q-86 -57 -194 -57q-226 59 -226 211q0 87 88 148h-109z" />
    <glyph glyph-name="uni20B8" unicode="&#x20b8;" horiz-adv-x="566" 
d="M10 690v10h546v-10h-546zM156 0v5l92 5v640h-172l-61 -121h-5v131h546v-131h-5l-61 121h-172v-640l92 -5v-5h-254z" />
    <glyph glyph-name="uni20B9" unicode="&#x20b9;" horiz-adv-x="483" 
d="M383 519q-6 -145 -257 -186h-96v10h75q97 0 149 47.5t52 128.5h-276v10h276q-3 81 -47.5 121t-116.5 40h-112v10h417v-10h-192q57 -16 92 -55.5t36 -105.5h64v-10h-64zM424 10l54 -5v-5h-131l-221 333l98 -23z" />
    <glyph glyph-name="uni20BA" unicode="&#x20ba;" horiz-adv-x="614" 
d="M575 297v-5l-61 -5q0 -137 -63 -212t-169 -75h-252v5l92 5v252l-91 -52v10l91 52v40l-91 -52v10l91 52v368l-92 5v5h258v-5l-96 -5v-329l245 139v-10l-245 -139v-40l245 139v-10l-245 -139v-291l77 -5q170 0 170 282l-72 5v5h208z" />
    <glyph glyph-name="uni20BD" unicode="&#x20bd;" horiz-adv-x="515" 
d="M268 318h-76v-46h235v-10h-235v-252l102 -5v-5h-264v5l92 5v252h-92v10h92v46h-91v10h91v362l-92 5v5h260q92 0 151 -48t59 -132q0 -46 -19 -81t-55 -58t-72 -36.5t-86 -26.5zM192 690v-362h50q80 0 130.5 52t50.5 132t-40.5 131.5t-124.5 51.5z" />
    <glyph glyph-name="uni2113" unicode="&#x2113;" horiz-adv-x="412" 
d="M197 20l169 65l4 -5l-189 -96l-44 22v243q-64 -30 -97 -44v20q61 27 97 49v354l137 92q51 -4 74.5 -42.5t23.5 -115.5q0 -104 -42 -167.5t-133 -114.5v-260zM197 646v-332q58 45 84 98t26 123q0 23 -2.5 44.5t-9 45t-20.5 37.5t-34 14z" />
    <glyph glyph-name="uni2116" unicode="&#x2116;" horiz-adv-x="947" 
d="M30 0v5l92 5v680l-92 5v5h166l299 -676v676h102v-5l-92 -5v-690h-75l-298 680v-680h-102zM731 95q-67 0 -111 48.5t-44 122.5q0 155 170 188q68 0 112 -48.5t44 -122.5q0 -78 -44 -126.5t-127 -61.5zM748 107q47 0 75 43.5t28 115.5q0 77 -33.5 125.5t-87.5 48.5
q-48 0 -75.5 -42t-27.5 -115q0 -75 34.5 -125.5t86.5 -50.5zM575 0v20h326v-20h-326z" />
    <glyph glyph-name="trademark" unicode="&#x2122;" horiz-adv-x="958" 
d="M130 315v6l54 3v368h-85l-43 -101h-6v109h332v-109h-6l-44 101h-84v-368l53 -3v-6h-171zM402 315v6l47 3v367l-47 4v5h117l143 -326l132 326h114v-5l-48 -4v-367l48 -3v-6h-154v6l41 3v356l-148 -368h-32l-157 372v-360l45 -3v-6h-101z" />
    <glyph glyph-name="uni2126" unicode="&#x2126;" horiz-adv-x="709" 
d="M51 0v170h5l43 -120h176v98q-93 13 -159 81t-66 181q0 116 75 191.5t240 113.5q129 0 211.5 -82t82.5 -203q0 -225 -224 -282v-98h176l43 120h5v-170h-244v149q29 5 55 19.5t52 43t41.5 80.5t15.5 122q0 124 -65.5 200t-169.5 76q-97 0 -155.5 -72t-58.5 -182
q0 -122 48 -200t117 -86v-150h-244z" />
    <glyph glyph-name="estimated" unicode="&#x212e;" horiz-adv-x="800" 
d="M395 -15q-152 0 -248.5 99.5t-96.5 250.5q0 161 79 242t281 138q145 0 239.5 -95t100.5 -240v-48h-599v-87q29 -107 93.5 -171t151.5 -64q97 0 160.5 56t89.5 154h90q-35 -97 -113.5 -148t-227.5 -87zM151 380h495v64q-26 111 -92.5 176t-154.5 65q-180 0 -248 -185v-120
z" />
    <glyph glyph-name="arrowleft" unicode="&#x2190;" horiz-adv-x="610" 
d="M320 50l-270 245l270 245v-27l-229 -208h469v-20h-469l229 -208v-27z" />
    <glyph glyph-name="arrowup" unicode="&#x2191;" horiz-adv-x="590" 
d="M285 40v469l-208 -229h-27l245 270l245 -270h-27l-208 229v-469h-20z" />
    <glyph glyph-name="arrowright" unicode="&#x2192;" horiz-adv-x="610" 
d="M290 50v27l229 208h-469v20h469l-229 208v27l270 -245z" />
    <glyph glyph-name="arrowdown" unicode="&#x2193;" horiz-adv-x="590" 
d="M295 40l-245 270h27l208 -229v469h20v-469l208 229h27z" />
    <glyph glyph-name="uni2196" unicode="&#x2196;" horiz-adv-x="467" 
d="M403 108l-333 331v-309l-20 -19v364h364l-19 -20h-309l331 -333z" />
    <glyph glyph-name="uni2197" unicode="&#x2197;" horiz-adv-x="467" 
d="M64 108l-14 14l331 333h-309l-19 20h364v-364l-20 19v309z" />
    <glyph glyph-name="uni2198" unicode="&#x2198;" horiz-adv-x="467" 
d="M53 93l19 20h309l-331 333l14 14l333 -331v309l20 19v-364h-364z" />
    <glyph glyph-name="uni2199" unicode="&#x2199;" horiz-adv-x="467" 
d="M50 93v364l20 -19v-309l333 331l14 -14l-331 -333h309l19 -20h-364z" />
    <glyph glyph-name="partialdiff" unicode="&#x2202;" 
d="M177 720q157 -42 251 -169.5t94 -289.5q0 -70 -22.5 -131.5t-69.5 -103t-110 -41.5q-116 28 -169 100t-53 166q0 56 18.5 105.5t60.5 84t100 34.5l176 -101q-13 127 -84 216.5t-194 124.5zM293 12q74 0 118.5 92t44.5 211q0 17 -2 51l-44 23q-76 40 -121 40
q-60 0 -92.5 -56.5t-32.5 -160.5t31.5 -152t97.5 -48z" />
    <glyph glyph-name="emptyset" unicode="&#x2205;" horiz-adv-x="600" 
d="M528 558l-69 -68q49 -55 49 -135q0 -85 -55 -141.5t-143 -56.5q-81 0 -135 49l-69 -68l-12 12l68 68q-50 55 -50 137q0 85 55 141.5t143 56.5q82 0 138 -51l68 68zM132 355q0 -72 45 -123l257 256q-50 47 -124 47q-80 0 -129 -52t-49 -128zM488 355q0 72 -43 121
l-257 -256q50 -45 122 -45q80 0 129 52t49 128z" />
    <glyph glyph-name="uni2206" unicode="&#x2206;" horiz-adv-x="709" 
d="M30 0v5l297 690l58 20l294 -709v-6h-649zM51 15h544l-265 660z" />
    <glyph glyph-name="product" unicode="&#x220f;" horiz-adv-x="720" 
d="M20 -160v5l92 5v840l-92 5v5h680v-5l-92 -5v-840l92 -5v-5h-254v5l92 5v840h-356v-840l92 -5v-5h-254z" />
    <glyph glyph-name="summation" unicode="&#x2211;" 
d="M70 -160v5l309 401l-299 449v5h470v-145h-5l-65 135h-306l258 -392v-5l-303 -393h354l62 125h5v-185h-480z" />
    <glyph glyph-name="minus" unicode="&#x2212;" 
d="M47 265v20h526v-20h-526z" />
    <glyph glyph-name="radical" unicode="&#x221a;" 
d="M181 -15l-178 465l-61 5v5h128l156 -423l295 832h157l-7 -20h-147l-294 -831z" />
    <glyph glyph-name="infinity" unicode="&#x221e;" horiz-adv-x="805" 
d="M199 129q-63 0 -101 44t-38 112q0 55 34.5 97.5t117.5 87.5q50 0 94.5 -31t115.5 -111l64 65q75 77 138 77q56 0 88.5 -42.5t32.5 -106.5q0 -65 -32 -104t-120 -88q-49 0 -93.5 31t-115.5 112l-64 -72q-62 -71 -121 -71zM618 192q50 0 83.5 29t33.5 90q0 110 -127 110
q-35 0 -75.5 -20t-75.5 -55l-27 -27q113 -127 188 -127zM208 179q70 0 134 67l34 36q-61 67 -102 96t-78 29q-59 0 -92.5 -29t-33.5 -83q0 -49 37 -82.5t101 -33.5z" />
    <glyph glyph-name="integral" unicode="&#x222b;" 
d="M137 -235v59h110l4 11q9 26 9 110v19v509q0 60 4.5 85t24.5 49l89 103h105v-59h-150l-4 -11q-9 -26 -9 -110v-19v-509q0 -60 -4.5 -85t-24.5 -49l-89 -103h-65z" />
    <glyph glyph-name="approxequal" unicode="&#x2248;" 
d="M26 271l39 80l93 12l387 -53l44 74h5l-39 -75l-93 -17l-386 57l-45 -78h-5zM26 89l39 80l93 12l387 -53l44 74h5l-39 -75l-93 -17l-386 57l-45 -78h-5z" />
    <glyph glyph-name="notequal" unicode="&#x2260;" 
d="M106 0l116 140h-170v20h187l142 170h-329v20h345l109 130h26l-108 -130h144v-20h-161l-141 -170h302v-20h-319l-116 -140h-27z" />
    <glyph glyph-name="lessequal" unicode="&#x2264;" 
d="M570 117l-520 236v10l520 237v-21l-493 -221l493 -220v-21zM50 0v20h520v-20h-520z" />
    <glyph glyph-name="greaterequal" unicode="&#x2265;" 
d="M50 117v21l493 220l-493 221v21l520 -237v-10zM50 0v20h520v-20h-520z" />
    <glyph glyph-name="uni2460" unicode="&#x2460;" horiz-adv-x="812" 
d="M407 -15q-154 2 -260.5 102t-106.5 269q0 153 97.5 243.5t267.5 115.5q154 -2 260.5 -102t106.5 -269q0 -153 -97.5 -243.5t-267.5 -115.5zM405 0q133 0 227 93.5t94 250.5q0 87 -31.5 158t-80 112.5t-102.5 63.5t-105 22q-133 0 -227 -94t-94 -250q0 -87 31.5 -158
t80 -112.5t102.5 -63.5t105 -22zM299 167v6l84 4v348l-85 -27l-2 6l139 53h6v-380l84 -4v-6h-226z" />
    <glyph glyph-name="uni2461" unicode="&#x2461;" horiz-adv-x="812" 
d="M405 715q154 -2 260.5 -102t106.5 -269q0 -153 -97.5 -243.5t-267.5 -115.5q-154 2 -260.5 102t-106.5 269q0 153 97.5 243.5t267.5 115.5zM405 0q133 0 227 93.5t94 250.5q0 87 -31.5 158t-80 112.5t-102.5 63.5t-105 22q-133 0 -227 -94t-94 -250q0 -87 31.5 -158
t80 -112.5t102.5 -63.5t105 -22zM373 260l-56 -39h238v-7l-18 -46h-269l-5 6l60 60q80 78 113.5 129.5t33.5 99.5q0 37 -19.5 58.5t-46.5 21.5q-20 0 -51 -9l-22 -85h-53v63l137 50q62 0 92.5 -26.5t30.5 -66.5q0 -55 -38.5 -101t-126.5 -108z" />
    <glyph glyph-name="uni2462" unicode="&#x2462;" horiz-adv-x="812" 
d="M407 -15q-154 2 -260.5 102t-106.5 269q0 153 97.5 243.5t267.5 115.5q154 -2 260.5 -102t106.5 -269q0 -153 -97.5 -243.5t-267.5 -115.5zM405 0q133 0 227 93.5t94 250.5q0 87 -31.5 158t-80 112.5t-102.5 63.5t-105 22q-133 0 -227 -94t-94 -250q0 -87 31.5 -158
t80 -112.5t102.5 -63.5t105 -22zM302 159v53h139q39 31 39 69q0 34 -30.5 57t-84.5 22l-1 8l32 16q43 22 57 41.5t14 48.5q0 27 -16 43.5t-40 16.5q-12 0 -39 -8l-22 -72h-49v55l141 46q44 0 65.5 -20.5t21.5 -46.5q0 -60 -109 -95q54 -1 88 -26t34 -59t-24.5 -58.5
t-75.5 -49.5l-87 -41h-53z" />
    <glyph glyph-name="uni2463" unicode="&#x2463;" horiz-adv-x="812" 
d="M407 -15q-154 2 -260.5 102t-106.5 269q0 153 97.5 243.5t267.5 115.5q154 -2 260.5 -102t106.5 -269q0 -153 -97.5 -243.5t-267.5 -115.5zM405 0q133 0 227 93.5t94 250.5q0 87 -31.5 158t-80 112.5t-102.5 63.5t-105 22q-133 0 -227 -94t-94 -250q0 -87 31.5 -158
t80 -112.5t102.5 -63.5t105 -22zM397 164v124h-166l-5 7l181 254h74v-6l-244 -246h160v92l58 33v-126h81v-8h-81v-124h-58z" />
    <glyph glyph-name="uni2464" unicode="&#x2464;" horiz-adv-x="812" 
d="M407 -15q-154 2 -260.5 102t-106.5 269q0 153 97.5 243.5t267.5 115.5q154 -2 260.5 -102t106.5 -269q0 -153 -97.5 -243.5t-267.5 -115.5zM405 0q133 0 227 93.5t94 250.5q0 87 -31.5 158t-80 112.5t-102.5 63.5t-105 22q-133 0 -227 -94t-94 -250q0 -87 31.5 -158
t80 -112.5t102.5 -63.5t105 -22zM290 158v53h112q63 39 63 98q0 27 -16 46t-48 19q-29 0 -72 -20l-25 -12l-3 3l23 199h204l-8 -51h-193l-16 -142l120 61q47 0 71.5 -23t24.5 -57q0 -45 -29.5 -73.5t-86.5 -56.5l-88 -44h-33z" />
    <glyph glyph-name="uni2465" unicode="&#x2465;" horiz-adv-x="812" 
d="M405 715q154 -2 260.5 -102t106.5 -269q0 -153 -97.5 -243.5t-267.5 -115.5q-154 2 -260.5 102t-106.5 269q0 153 97.5 243.5t267.5 115.5zM405 0q133 0 227 93.5t94 250.5q0 87 -31.5 158t-80 112.5t-102.5 63.5t-105 22q-133 0 -227 -94t-94 -250q0 -87 31.5 -158
t80 -112.5t102.5 -63.5t105 -22zM432 411q50 0 75.5 -31.5t25.5 -73.5q0 -118 -144 -150q-62 0 -96 44t-34 109q0 84 54 152.5t167 98.5l2 -5q-93 -33 -126 -85t-33 -134zM402 169q68 0 68 112q0 45 -16 69.5t-41 24.5q-20 0 -73 -35l-17 -11q1 -77 23 -118.5t56 -41.5z" />
    <glyph glyph-name="uni2466" unicode="&#x2466;" horiz-adv-x="812" 
d="M407 -15q-154 2 -260.5 102t-106.5 269q0 153 97.5 243.5t267.5 115.5q154 -2 260.5 -102t106.5 -269q0 -153 -97.5 -243.5t-267.5 -115.5zM405 0q133 0 227 93.5t94 250.5q0 87 -31.5 158t-80 112.5t-102.5 63.5t-105 22q-133 0 -227 -94t-94 -250q0 -87 31.5 -158
t80 -112.5t102.5 -63.5t105 -22zM335 150v5l191 327h-233v53h256l4 -5l-172 -380h-46z" />
    <glyph glyph-name="uni2467" unicode="&#x2467;" horiz-adv-x="812" 
d="M405 715q154 -2 260.5 -102t106.5 -269q0 -153 -97.5 -243.5t-267.5 -115.5q-154 2 -260.5 102t-106.5 269q0 153 97.5 243.5t267.5 115.5zM405 0q133 0 227 93.5t94 250.5q0 87 -31.5 158t-80 112.5t-102.5 63.5t-105 22q-133 0 -227 -94t-94 -250q0 -87 31.5 -158
t80 -112.5t102.5 -63.5t105 -22zM482 340q55 -41 55 -87q0 -41 -34 -65.5t-106 -38.5q-54 2 -89.5 26t-35.5 71q0 58 97 97l-32 24q-57 44 -57 86q0 37 31 60t96 38q122 -3 122 -82q0 -55 -94 -94zM399 539q-26 0 -42.5 -13t-16.5 -37q0 -25 17.5 -47t55.5 -50l15 -11
q42 33 42 84q0 34 -19.5 54t-51.5 20zM410 161q27 0 46.5 14.5t19.5 47.5q0 24 -13.5 41.5t-47.5 43.5l-40 30q-45 -37 -45 -81q0 -46 24.5 -71t55.5 -25z" />
    <glyph glyph-name="uni2468" unicode="&#x2468;" horiz-adv-x="812" 
d="M405 715q154 -2 260.5 -102t106.5 -269q0 -153 -97.5 -243.5t-267.5 -115.5q-154 2 -260.5 102t-106.5 269q0 153 97.5 243.5t267.5 115.5zM405 0q133 0 227 93.5t94 250.5q0 87 -31.5 158t-80 112.5t-102.5 63.5t-105 22q-133 0 -227 -94t-94 -250q0 -87 31.5 -158
t80 -112.5t102.5 -63.5t105 -22zM419 547q62 0 96 -44t34 -109q0 -83 -55 -151t-166 -98l-2 5q158 59 158 211v5l-105 -74q-51 0 -77.5 32.5t-26.5 74.5q0 113 144 148zM463 359l21 14q-1 76 -23 118t-55 42q-68 0 -68 -106q0 -48 17 -73t44 -25h6t5.5 0.5t5.5 1.5l4.5 1.5
t5 2.5t5 2.5t6.5 4t7 5t8.5 6t10.5 6.5z" />
    <glyph glyph-name="lozenge" unicode="&#x25ca;" 
d="M277 -20l-230 350l247 365l48 21l231 -350l-242 -362zM319 16l210 311l-227 353l-209 -315z" />
    <glyph glyph-name="circle" unicode="&#x25cb;" horiz-adv-x="812" 
d="M407 -15q-154 2 -260.5 102t-106.5 269q0 153 97.5 243.5t267.5 115.5q154 -2 260.5 -102t106.5 -269q0 -153 -97.5 -243.5t-267.5 -115.5zM405 0q133 0 227 93.5t94 250.5q0 87 -31.5 158t-80 112.5t-102.5 63.5t-105 22q-133 0 -227 -94t-94 -250q0 -87 31.5 -158
t80 -112.5t102.5 -63.5t105 -22z" />
    <glyph glyph-name="uniF8FF" unicode="&#xf8ff;" horiz-adv-x="685" 
d="M492 -29l-30 1l-24 18h-14l-8 8l7 76l-4 47l-61 1l-3 -52l-2 -56v-20l-15 -6l-8 6l-30 -10h-32l-1 11l11 11l50 21l-6 96l-98 -6l-147 140l-4 115l-13 10l-10 36v26l15 8l-3 78l92 -62l9 47l10 36l22 35l28 35l39 29l78 29h22l-68 22l4 17h7l79 -20l-4 51l16 12h32l19 -5
l29 -25l32 -8l32 -10l15 -13v-20l-20 -31l30 -28l28 -32l18 -34l15 -41l9 -54l-3 -41l-8 -35l-12 -31l-3 -156l-21 -7l-50 70l-27 -7l-19 -140l-32 4l-7 -4l-4 -94l30 -19l16 -14zM238 540h5l36 24h32l18 -12l8 3l4 14l7 5l10 -4v-18h8l10 22l11 8l-5 6l-3 8l1 21l-30 -10
l-10 -8l-8 5l4 21l14 10l11 11l38 -2l12 13l-4 8h-49l-45 -13l-53 -26l-29 -23l-25 -34l29 12l13 -15l-17 -20l-10 -3zM418 608l3 17l-7 17l-8 -9v-19zM466 564h13l6 6l-9 18l17 28l-15 9v5l-25 7v-20l-13 -5v-9l-9 -6l-3 -12l5 -6l19 11l8 -2zM545 406l18 12h23l6 11l-18 6
l-5 9l9 42h7l14 -20l17 -1l-8 37l-19 50l-20 36l-23 28l-34 21h-11l17 -19l25 -10l11 -11l3 -33l-25 13l-15 -29l12 -8v-19l15 3l-12 26l15 -5l10 -20l-5 -12l-8 -7h-23l-3 11l-12 2l1 -22h-14l14 -18l-7 -10l-21 5l-3 -27l41 6l8 17l22 -2l6 -28l-16 -13v-15zM491 514l2 7
l-2 9l-8 -4v-9zM214 498l59 12l-4 12zM396 491l3 4l-48 25l-4 -12zM102 254v180l57 -32l7 10l-68 38v18l59 -34l43 -28l28 -14l3 10l-103 64l-13 7l-41 33l2 -78l19 -17v-5h-21l19 -14l1 -11l-20 7l18 -18l-4 -7l3 -97zM257 432l11 5l16 12l6 12l2 13l-22 -4l6 -10l-12 -13
l-14 -1l-6 8l1 4l14 2l-13 6l2 7l-20 -1l3 -19l14 -15zM359 430l18 10l6 9l5 20l-30 2l7 -5l1 -11l-7 -11h-12l-5 7l11 8l-15 2v6l-23 4l3 -17l8 -14l20 -9zM231 130l18 4l2 40l41 -3l3 9l-44 6v16l48 -6l1 9l-47 7l1 22l43 -3l3 6l-45 9l3 94h74l11 10h-79l2 9h74l8 7h-82
l2 22l117 4l140 -4v11l-4 7h-205l-66 -3l-7 -9l-6 -44l-48 20l-11 -4l57 -27l1 -45l-5 -73v-91zM559 386h5l5 7v7l-10 -4v-10zM380 336h53l4 30l-54 5zM203 231l-1 60l4 40l-66 39v-7l-2 -13l1 -27v-48zM540 300l8 2l20 15l13 13l11 18l-7 5h-14l-10 3l-14 7l-17 -3l-6 -48z
M467 346l44 4l4 9h-48v-13zM479 142l12 79l4 36l-15 3l-1 8l20 1l5 3l-28 16l2 5l30 -6l-30 15l5 5l21 -5l4 10l3 19l-54 1l-1 -24v-6l-2 -31l19 -3l-8 -61l-48 3l-8 -6l51 -5l-2 -9h-49l-4 -5l53 -7l-6 -35zM321 302h73v10h-73v-10zM589 234v78l-6 -3l-33 -27zM394 271v10
l-72 7l-6 -13zM316 250h68v6l-68 4v-10zM202 189l4 14l-74 50l20 -23zM380 161v53l-64 4v-51z" />
    <glyph glyph-name="uni00A40301" horiz-adv-x="315" 
d="M160 767l47 133h77l-119 -133h-5zM0 -175v70h117l4 19q7 31 7 174v602l-107 5v5h269v-5l-92 -5v-609q0 -54 -8.5 -83.5t-33.5 -59.5l-94 -113h-62z" />
    <glyph glyph-name="uni006A0301" horiz-adv-x="239" 
d="M129 542l65 168h72l-132 -168h-5zM-20 -236v63h114l2 12q9 58 9 98v509l-73 -19l-1 4l129 39h5v-518q0 -37 -26 -72l-88 -116h-71z" />
    <glyph glyph-name="zero.zero" horiz-adv-x="539" 
d="M289 475q97 0 153.5 -66t56.5 -172q0 -108 -60 -171t-190 -81q-97 0 -153 66t-56 172q0 107 59 168t190 84zM259 456q-73 0 -111 -60t-38 -152q0 -106 37 -170l237 322q-45 60 -125 60zM279 2q74 0 112 60t38 154q0 106 -38 169l-236 -323q44 -60 124 -60z" />
    <glyph glyph-name="zero.tf" 
d="M289 -15q-97 0 -153 66t-56 172q0 107 59 168t190 84q97 0 153.5 -66t56.5 -172q0 -108 -60 -171t-190 -81zM319 2q74 0 112 60t38 154q0 109 -42 174.5t-128 65.5q-73 0 -111 -60t-38 -152q0 -111 41.5 -176.5t127.5 -65.5z" />
    <glyph glyph-name="one.tf" 
d="M130 0v5l153 5v423l-142 -54l-2 5l199 88h5v-462l145 -5v-5h-358z" />
    <glyph glyph-name="two.tf" 
d="M128 0l-4 5l84 63q109 82 147.5 146.5t38.5 124.5q0 117 -99 117q-27 0 -76 -20l-25 -111h-53v78l170 82q81 0 117.5 -35.5t35.5 -90.5q-1 -127 -213 -268l-39 -26h283v-4l-22 -61h-345z" />
    <glyph glyph-name="three.tf" 
d="M131 -230v65h214q43 36 61.5 69t18.5 73q0 70 -57 113.5t-147 43.5v9l43 20q73 32 104.5 72.5t31.5 99.5q0 52 -28.5 85.5t-72.5 33.5q-42 0 -83 -22l-34 -117h-52v95l209 75q53 0 89.5 -36t36.5 -88q0 -109 -168 -189q83 -5 138 -48.5t55 -105.5q0 -113 -154 -192
l-107 -56h-98z" />
    <glyph glyph-name="four.tf" 
d="M355 -234v234h-283l-6 9l302 457h78v-5l-366 -451h275v199l60 33v-232h139v-10h-139v-234h-60z" />
    <glyph glyph-name="five.tf" 
d="M122 -230v65h172q68 41 99 91.5t31 122.5q0 125 -104 125q-33 0 -59 -8.5t-72 -33.5l-44 -24l-3 3l35 359h320l-4 -60h-310l-28 -289l181 99q72 0 112.5 -37.5t40.5 -104.5q0 -79 -46 -137t-154 -114l-110 -57h-57z" />
    <glyph glyph-name="six.tf" 
d="M348 447q85 0 129 -60.5t44 -137.5q0 -91 -54 -163.5t-172 -100.5q-94 0 -145.5 82.5t-51.5 193.5q0 71 18.5 138.5t56.5 131.5t106 114t159 75l3 -7q-68 -20 -118 -51.5t-80 -68t-48.5 -84t-25 -93.5t-6.5 -101v-18zM322 11q67 0 100 47.5t33 148.5q0 90 -31.5 142
t-81.5 52q-10 0 -19 -2t-20.5 -7.5t-18.5 -9t-21.5 -14t-20 -15t-23.5 -19.5t-24 -19l-32 -26q5 -127 50 -202.5t109 -75.5z" />
    <glyph glyph-name="seven.tf" 
d="M181 -230v5l305 630h-383v65h408l5 -5l-279 -695h-56z" />
    <glyph glyph-name="eight.tf" 
d="M425 315q85 -71 85 -145q0 -72 -53.5 -116.5t-162.5 -68.5q-78 0 -131 46.5t-53 129.5q0 107 162 192l-60 51q-83 71 -83 145q0 59 43 96.5t140 69.5q184 0 184 -144q0 -55 -39 -100t-113 -88zM195 592q0 -48 29 -90.5t100 -101.5l15 -13q53 43 72 83t19 90
q0 59 -34 97.5t-94 38.5q-49 0 -78 -27.5t-29 -76.5zM319 5q50 0 87.5 30.5t37.5 100.5q0 45 -23 77.5t-85 85.5l-59 50q-101 -72 -101 -167q0 -76 44.5 -126.5t98.5 -50.5z" />
    <glyph glyph-name="nine.tf" 
d="M323 485q86 0 141.5 -79.5t55.5 -204.5q0 -159 -92.5 -280t-247.5 -165l-3 7q131 40 204.5 143.5t73.5 250.5v12l-180 -146q-76 0 -127 57.5t-51 146.5q0 92 59 161t167 97zM413 146l42 33q-2 49 -12 96t-29 89t-51.5 68t-73.5 26q-58 0 -92 -50t-34 -142
q0 -88 32.5 -140t91.5 -52q8 0 15 1t12.5 2.5t13 6t12.5 7t15 10l16 12t20 15.5t22 18z" />
    <glyph glyph-name="zero.tf.zero" 
d="M329 475q97 0 153.5 -66t56.5 -172q0 -108 -60 -171t-190 -81q-97 0 -153 66t-56 172q0 107 59 168t190 84zM299 456q-73 0 -111 -60t-38 -152q0 -106 37 -170l237 322q-45 60 -125 60zM319 2q74 0 112 60t38 154q0 106 -38 169l-236 -323q44 -60 124 -60z" />
    <glyph glyph-name="dollar.tf" 
d="M520 196q0 -139 -190 -200v-76h-10v72q-3 -1 -12 -3.5t-14 -3.5q-108 0 -194 57v149h5l39 -101q75 -77 171 -77h5v314l-94 51q-58 32 -87 64t-29 86q0 73 56.5 120.5t153.5 66.5v66h10v-66q105 -4 173 -44v-147h-5l-44 114q-56 51 -124 58v-294l60 -32q66 -36 98 -77
t32 -97zM277 431l43 -23v289h-11q-65 0 -104.5 -36.5t-39.5 -91.5q0 -45 27 -76t85 -62zM330 14q62 4 98.5 41t36.5 97q0 51 -29.5 89.5t-96.5 75.5l-9 5v-308z" />
    <glyph glyph-name="cent.tf" 
d="M491 85q-56 -53 -144 -98v-67h-10v65q-91 2 -149.5 63.5t-58.5 165.5q0 107 60 173t148 85v68h10v-66q1 0 4 0.5t5 0.5q27 0 65.5 -16.5t60.5 -34.5v-76h-48l-43 102q-23 8 -47 8q-71 0 -114 -49t-43 -150q0 -95 48 -159.5t123 -64.5q68 0 130 54z" />
    <glyph glyph-name="sterling.tf" 
d="M532 155h5v-155h-457v5l92 10v348h-92v5h92v112q0 101 40.5 151.5t159.5 83.5q101 0 142 -49v-141h-5l-44 119q-25 28 -47.5 39.5t-58.5 11.5q-62 0 -94.5 -39.5t-32.5 -115.5v-172h186v-5h-186v-220q0 -66 -6.5 -89.5t-28.5 -43.5h278z" />
    <glyph glyph-name="florin.tf" 
d="M156 -235v59h97l4 11q9 26 9 110v19v491h-70v5h70v13q0 60 4.5 85t24.5 49l89 103h80v-59h-125l-4 -11q-9 -26 -9 -110v-19v-51h99v-5h-99v-453q0 -60 -4.5 -85t-24.5 -49l-89 -103h-52z" />
    <glyph glyph-name="yen.tf" 
d="M622 700v-5l-77 -5l-194 -397v-20h109v-5h-109v-89h109v-5h-109v-164l115 -5v-5h-300v5l115 5v164h-102v5h102v89h-102v5h102v1l-207 416l-77 5v5h251v-5l-94 -5l191 -387l188 387l-104 5v5h193z" />
    <glyph glyph-name="Euro.tf" 
d="M586 100l6 -9q-93 -82 -207 -106q-124 0 -204.5 82.5t-94.5 222.5h-58v10h57q-2 28 -2 44q0 29 3 56h-58v10h59q18 130 100.5 212.5t210.5 95.5q56 0 108 -15.5t82 -40.5v-163h-5l-61 144q-48 60 -133 60q-93 0 -155 -81t-70 -212h325l-5 -10h-320q-1 -9 -1 -27
q0 -42 4 -73h257l-5 -10h-251q17 -121 80 -189t161 -68q40 0 89.5 19t87.5 48z" />
    <glyph glyph-name="percent.tf" 
d="M146 358q-54 0 -86.5 46t-32.5 122t34.5 119t107.5 60q54 0 87 -46.5t33 -122.5q0 -152 -143 -178zM110 -5l394 710h20l-391 -710h-23zM163 370q34 0 53.5 40t19.5 111q0 81 -22 126t-62 45q-34 0 -53.5 -40.5t-19.5 -110.5q0 -82 22 -126.5t62 -44.5zM450 -6
q-53 0 -86 46t-33 122t34.5 119t107.5 60q54 0 87 -46.5t33 -122.5q0 -152 -143 -178zM467 6q35 0 54.5 40.5t19.5 110.5q0 81 -22.5 126t-62.5 45q-34 0 -53.5 -40.5t-19.5 -110.5q0 -82 22 -126.5t62 -44.5z" />
    <glyph glyph-name="perthousand.tf" horiz-adv-x="600" 
d="M123 397q-47 0 -76 41.5t-29 107.5q0 130 126 159q48 0 77.5 -41.5t29.5 -108.5q0 -134 -128 -158zM129 693q-30 0 -47.5 -36t-17.5 -97q0 -73 19.5 -112.5t54.5 -39.5q31 0 48 35.5t17 98.5q0 72 -19.5 111.5t-54.5 39.5zM468 521h24l-436 -288h-24zM476 301
q48 0 77 -41t29 -109q0 -135 -126 -157q-58 0 -86 58q-31 -46 -100 -58q-47 0 -76 41t-29 108t30.5 105.5t94.5 52.5q59 0 87 -58q31 43 99 58zM285 5q30 0 48 36t18 97q0 71 -20 111t-56 40q-30 0 -47 -35.5t-17 -97.5q0 -72 19.5 -111.5t54.5 -39.5zM471 5q30 0 47.5 36
t17.5 97q0 71 -20 111t-55 40q-30 0 -47.5 -36t-17.5 -97q0 -72 19.5 -111.5t55.5 -39.5z" />
    <glyph glyph-name="Aogonek.ss01" horiz-adv-x="692" 
d="M536 0l-69 -85v-21q0 -34 22 -49.5t72 -15.5l-1 -5q-79 0 -105 19.5t-26 64.5v23l101 79l-83 249h-260l-88 -249l90 -6v-4h-184v5l82 5l242 673l40 27l238 -700l80 -5v-5h-151zM191 269h253l-122 367z" />
    <glyph glyph-name="Ccedilla.ss01" horiz-adv-x="664" 
d="M381 705q-111 0 -186 -92t-75 -260q0 -89 23.5 -162.5t79.5 -127t138 -63.5h2q22 -2 33 -2q47 0 90.5 20t71.5 49l51 134h5v-150q-109 -51 -237 -66q-15 0 -23 1l-18 -29q33 -2 56 -16t23 -38q0 -36 -76 -60l-68 -19h-23l18 23h77q35 15 35 43q0 18 -20 28.5t-48 11.5
l37 56q-129 11 -218 105t-89 248q0 162 95.5 262t249.5 114q127 0 229 -53v-150h-5l-51 123q-72 70 -177 70z" />
    <glyph glyph-name="Eogonek.ss01" horiz-adv-x="599" 
d="M512 0l-69 -85v-21q0 -34 22 -49.5t72 -15.5l-1 -5q-79 0 -105 19.5t-26 64.5v23l88 69h-463v5l92 5v680l-92 5v5h530v-176h-5l-61 166h-302v-319h184l40 114h5v-237h-5l-40 113h-184v-351h311l61 170h5v-180h-57z" />
    <glyph glyph-name="Gcommaaccent.ss01" horiz-adv-x="716" 
d="M381 -15q-147 0 -244 94.5t-97 261.5q0 159 96 261t255 113q68 0 129 -16.5t94 -37.5v-149h-5l-51 123q-70 70 -170 70q-124 0 -196 -102t-72 -263q0 -142 70.5 -244.5t196.5 -102.5q56 0 101 22t69 53v229l-85 7v5h219v-5l-64 -7v-249q-124 -63 -246 -63zM354 -183l-4 2
l38 70l-28 20v34h65v-55z" />
    <glyph glyph-name="Iogonek.ss01" horiz-adv-x="314" 
d="M284 695l-92 -5v-680l92 -5v-5h-117l-69 -85v-21q0 -34 22 -49.5t72 -15.5l-1 -5q-79 0 -105 19.5t-26 64.5v23l88 69h-118v5l92 5v680l-92 5v5h254v-5z" />
    <glyph glyph-name="Kcommaaccent.ss01" horiz-adv-x="672" 
d="M591 10l71 -5v-5h-153l-317 355v-345l92 -5v-5h-254v5l92 5v680l-92 5v5h254v-5l-92 -5v-321l351 321l-90 5v5h183v-5l-80 -5l-349 -325l56 11zM308 -91v34h65v-55l-71 -71l-4 2l38 70z" />
    <glyph glyph-name="Lcommaaccent.ss01" horiz-adv-x="549" 
d="M30 0v5l92 5v680l-92 5v5h254v-5l-92 -5v-680h281l61 175h5v-185h-509zM263 -183l-4 2l38 70l-28 20v34h65v-55z" />
    <glyph glyph-name="Ncommaaccent.ss01" horiz-adv-x="695" 
d="M563 -5l-431 687v-672l92 -5v-5h-194v5l92 5v680l-92 5v5h172l381 -605v595l-91 5v5h193v-5l-92 -5v-695h-30zM318 -183l-4 2l38 70l-28 20v34h65v-55z" />
    <glyph glyph-name="Eng.ss01" horiz-adv-x="695" 
d="M391 -176v5l66 5l76 126l55 35h-25l-431 687v-672l92 -5v-5h-194v5l92 5v680l-92 5v5h172l381 -605v595l-91 5v5h193v-5l-92 -5v-695l-83 -171h-119z" />
    <glyph glyph-name="Rcommaaccent.ss01" horiz-adv-x="640" 
d="M30 0v5l92 5v680l-92 5v5h302q87 0 147.5 -41.5t60.5 -131.5q0 -153 -257 -194h-91v-323l86 -5v-5h-248zM192 343h70q97 0 149 47.5t52 129.5q0 85 -45 129t-119 46l-107 -5v-347zM504 0l-221 333l98 -23l200 -300l54 -5v-5h-131zM319 -183l-4 2l38 70l-28 20v34h65v-55z
" />
    <glyph glyph-name="Scedilla.ss01" horiz-adv-x="510" 
d="M239 -15l-18 -28q33 -2 56 -16t23 -38q0 -36 -76 -60l-68 -19h-23l18 23h77q35 15 35 43q0 18 -20 28.5t-48 11.5l36 55q-101 1 -186 57v149h5l39 -101q75 -77 171 -77q68 0 109 38t41 101q0 51 -29.5 89.5t-96.5 75.5l-113 61q-58 32 -87 64t-29 86q0 73 56.5 120.5
t153.5 66.5q106 0 183 -44v-147h-5l-44 114q-64 59 -145 59q-65 0 -104.5 -36.5t-39.5 -91.5q0 -45 27 -76t85 -62l113 -61q66 -36 98 -77t32 -97q0 -152 -226 -211z" />
    <glyph glyph-name="Scommaaccent.ss01" horiz-adv-x="510" 
d="M239 -15q-108 0 -194 57v149h5l39 -101q75 -77 171 -77q68 0 109 38t41 101q0 51 -29.5 89.5t-96.5 75.5l-113 61q-58 32 -87 64t-29 86q0 73 56.5 120.5t153.5 66.5q106 0 183 -44v-147h-5l-44 114q-64 59 -145 59q-65 0 -104.5 -36.5t-39.5 -91.5q0 -45 27 -76t85 -62
l113 -61q66 -36 98 -77t32 -97q0 -152 -226 -211zM211 -183l-4 2l38 70l-28 20v34h65v-55z" />
    <glyph glyph-name="uni0162.ss01" horiz-adv-x="566" 
d="M556 700v-191h-5l-61 181h-172v-680l92 -5v-5h-124l-27 -43q33 -2 56 -16t23 -38q0 -36 -76 -60l-68 -19h-23l18 23h77q35 15 35 43q0 18 -20 28.5t-48 11.5l46 70h-123v5l92 5v680h-172l-61 -181h-5v191h546z" />
    <glyph glyph-name="uni021A.ss01" horiz-adv-x="566" 
d="M156 0v5l92 5v680h-172l-61 -181h-5v191h546v-191h-5l-61 181h-172v-680l92 -5v-5h-254zM249 -183l-4 2l38 70l-28 20v34h65v-55z" />
    <glyph glyph-name="Uogonek.ss01" horiz-adv-x="664" 
d="M654 700v-5l-92 -5v-448q0 -164 -113 -224l-84 -103v-21q0 -34 22 -49.5t72 -15.5l-1 -5q-79 0 -105 19.5t-26 64.5v23l97 76q-34 -14 -84 -22q-239 0 -239 264v441l-91 5v5h253v-5l-92 -5v-451q0 -98 51 -162t147 -64q80 0 129 65t49 161v451l-92 5v5h199z" />
    <glyph glyph-name="Aacute.ss02" horiz-adv-x="692" 
d="M337 741l37 109h65l-97 -109h-5zM5 0v5l82 5l242 673l40 27l238 -700l80 -5v-5h-245v4l88 6l-83 249h-260l-88 -249l90 -6v-4h-184zM191 269h253l-122 367z" />
    <glyph glyph-name="Abreve.ss02" horiz-adv-x="692" 
d="M357 749q-50 0 -81.5 30.5t-46.5 71.5l4 3q14 -23 43.5 -43t69.5 -20q64 0 112 64l4 -3q-25 -64 -105 -103zM5 0v5l82 5l242 673l40 27l238 -700l80 -5v-5h-245v4l88 6l-83 249h-260l-88 -249l90 -6v-4h-184zM191 269h253l-122 367z" />
    <glyph glyph-name="Acircumflex.ss02" horiz-adv-x="692" 
d="M219 735l125 125h4l125 -125h-5l-122 71l-122 -71h-5zM5 0v5l82 5l242 673l40 27l238 -700l80 -5v-5h-245v4l88 6l-83 249h-260l-88 -249l90 -6v-4h-184zM191 269h253l-122 367z" />
    <glyph glyph-name="Adieresis.ss02" horiz-adv-x="692" 
d="M223 775l-18 4l-4 39l7 30l47 4l19 -4l4 -36l-7 -33zM435 775l-18 4l-4 39l7 30l47 4l19 -4l4 -36l-7 -33zM5 0v5l82 5l242 673l40 27l238 -700l80 -5v-5h-245v4l88 6l-83 249h-260l-88 -249l90 -6v-4h-184zM191 269h253l-122 367z" />
    <glyph glyph-name="Agrave.ss02" horiz-adv-x="692" 
d="M343 741l-97 109h65l37 -109h-5zM5 0v5l82 5l242 673l40 27l238 -700l80 -5v-5h-245v4l88 6l-83 249h-260l-88 -249l90 -6v-4h-184zM191 269h253l-122 367z" />
    <glyph glyph-name="Amacron.ss02" horiz-adv-x="692" 
d="M206 800v20h280v-20h-280zM5 0v5l82 5l242 673l40 27l238 -700l80 -5v-5h-245v4l88 6l-83 249h-260l-88 -249l90 -6v-4h-184zM191 269h253l-122 367z" />
    <glyph glyph-name="Aring.ss02" horiz-adv-x="692" 
d="M345 718q-31 0 -53.5 16.5t-22.5 49.5q0 20 11 33.5t21 18t36 13.5q5 2 8 3q32 0 55 -16t23 -49q0 -7 -1 -13.5t-4.5 -12t-5.5 -9t-8.5 -8t-9 -6.5t-11.5 -5.5t-11.5 -4.5t-13 -5t-13.5 -5zM345 734q22 0 37 14.5t15 36.5t-15 37t-37 15t-36.5 -15t-14.5 -37t14.5 -36.5
t36.5 -14.5zM5 0v5l82 5l242 673l40 27l238 -700l80 -5v-5h-245v4l88 6l-83 249h-260l-88 -249l90 -6v-4h-184zM191 269h253l-122 367z" />
    <glyph glyph-name="Atilde.ss02" horiz-adv-x="692" 
d="M189 752l26 85l69 22l184 -77l29 80h5l-26 -85l-69 -22l-184 78l-29 -81h-5zM5 0v5l82 5l242 673l40 27l238 -700l80 -5v-5h-245v4l88 6l-83 249h-260l-88 -249l90 -6v-4h-184zM191 269h253l-122 367z" />
    <glyph glyph-name="AEacute.ss02" horiz-adv-x="940" 
d="M653 741l37 109h65l-97 -109h-5zM5 0v5l82 5l416 690h403v-176h-5l-61 166h-266v-348h148l40 114h5v-237h-5l-40 113h-148v-322h275l61 170h5v-180h-503v5l92 5v322h-210l-194 -322l90 -6v-4h-185zM300 342h204v344z" />
    <glyph glyph-name="Cacute.ss02" horiz-adv-x="664" 
d="M367 741l37 109h65l-97 -109h-5zM377 -15q-139 0 -238 95.5t-99 258.5q0 162 95.5 262t249.5 114q127 0 229 -53v-150h-5l-51 123q-72 70 -177 70q-111 0 -186 -92t-75 -260q0 -70 16 -131.5t48 -112.5t86.5 -81t125.5 -30q47 0 90.5 20t71.5 49l51 134h5v-150
q-109 -51 -237 -66z" />
    <glyph glyph-name="Ccaron.ss02" horiz-adv-x="664" 
d="M370 747l-125 125h5l122 -71l122 71h5l-125 -125h-4zM377 -15q-139 0 -238 95.5t-99 258.5q0 162 95.5 262t249.5 114q127 0 229 -53v-150h-5l-51 123q-72 70 -177 70q-111 0 -186 -92t-75 -260q0 -70 16 -131.5t48 -112.5t86.5 -81t125.5 -30q47 0 90.5 20t71.5 49
l51 134h5v-150q-109 -51 -237 -66z" />
    <glyph glyph-name="Ccircumflex.ss02" horiz-adv-x="664" 
d="M245 735l125 125h4l125 -125h-5l-122 71l-122 -71h-5zM377 -15q-139 0 -238 95.5t-99 258.5q0 162 95.5 262t249.5 114q127 0 229 -53v-150h-5l-51 123q-72 70 -177 70q-111 0 -186 -92t-75 -260q0 -70 16 -131.5t48 -112.5t86.5 -81t125.5 -30q47 0 90.5 20t71.5 49
l51 134h5v-150q-109 -51 -237 -66z" />
    <glyph glyph-name="Cdotaccent.ss02" horiz-adv-x="664" 
d="M353 767l-20 4l-4 43l7 34l53 4l21 -4l4 -40l-7 -37zM377 -15q-139 0 -238 95.5t-99 258.5q0 162 95.5 262t249.5 114q127 0 229 -53v-150h-5l-51 123q-72 70 -177 70q-111 0 -186 -92t-75 -260q0 -70 16 -131.5t48 -112.5t86.5 -81t125.5 -30q47 0 90.5 20t71.5 49
l51 134h5v-150q-109 -51 -237 -66z" />
    <glyph glyph-name="Dcaron.ss02" horiz-adv-x="718" 
d="M317 747l-125 125h5l122 -71l122 71h5l-125 -125h-4zM30 0v5l102 5v680l-102 5v5h309q154 0 246.5 -89.5t92.5 -249.5q0 -159 -89 -260t-248 -101h-311zM346 5q113 0 182.5 96.5t69.5 255.5q0 158 -65 248t-202 90l-129 -5v-680z" />
    <glyph glyph-name="Eacute.ss02" horiz-adv-x="599" 
d="M311 741l37 109h65l-97 -109h-5zM30 0v5l92 5v680l-92 5v5h530v-176h-5l-61 166h-302v-319h184l40 114h5v-237h-5l-40 113h-184v-351h311l61 170h5v-180h-539z" />
    <glyph glyph-name="Ebreve.ss02" horiz-adv-x="599" 
d="M331 749q-50 0 -81.5 30.5t-46.5 71.5l4 3q14 -23 43.5 -43t69.5 -20q64 0 112 64l4 -3q-25 -64 -105 -103zM30 0v5l92 5v680l-92 5v5h530v-176h-5l-61 166h-302v-319h184l40 114h5v-237h-5l-40 113h-184v-351h311l61 170h5v-180h-539z" />
    <glyph glyph-name="Ecaron.ss02" horiz-adv-x="599" 
d="M318 747l-125 125h5l122 -71l122 71h5l-125 -125h-4zM30 0v5l92 5v680l-92 5v5h530v-176h-5l-61 166h-302v-319h184l40 114h5v-237h-5l-40 113h-184v-351h311l61 170h5v-180h-539z" />
    <glyph glyph-name="Ecircumflex.ss02" horiz-adv-x="599" 
d="M193 735l125 125h4l125 -125h-5l-122 71l-122 -71h-5zM30 0v5l92 5v680l-92 5v5h530v-176h-5l-61 166h-302v-319h184l40 114h5v-237h-5l-40 113h-184v-351h311l61 170h5v-180h-539z" />
    <glyph glyph-name="Edieresis.ss02" horiz-adv-x="599" 
d="M197 775l-18 4l-4 39l7 30l47 4l19 -4l4 -36l-7 -33zM409 775l-18 4l-4 39l7 30l47 4l19 -4l4 -36l-7 -33zM30 0v5l92 5v680l-92 5v5h530v-176h-5l-61 166h-302v-319h184l40 114h5v-237h-5l-40 113h-184v-351h311l61 170h5v-180h-539z" />
    <glyph glyph-name="Edotaccent.ss02" horiz-adv-x="599" 
d="M301 767l-20 4l-4 43l7 34l53 4l21 -4l4 -40l-7 -37zM30 0v5l92 5v680l-92 5v5h530v-176h-5l-61 166h-302v-319h184l40 114h5v-237h-5l-40 113h-184v-351h311l61 170h5v-180h-539z" />
    <glyph glyph-name="Egrave.ss02" horiz-adv-x="599" 
d="M317 741l-97 109h65l37 -109h-5zM30 0v5l92 5v680l-92 5v5h530v-176h-5l-61 166h-302v-319h184l40 114h5v-237h-5l-40 113h-184v-351h311l61 170h5v-180h-539z" />
    <glyph glyph-name="Emacron.ss02" horiz-adv-x="599" 
d="M180 800v20h280v-20h-280zM30 0v5l92 5v680l-92 5v5h530v-176h-5l-61 166h-302v-319h184l40 114h5v-237h-5l-40 113h-184v-351h311l61 170h5v-180h-539z" />
    <glyph glyph-name="Gbreve.ss02" horiz-adv-x="716" 
d="M401 749q-50 0 -81.5 30.5t-46.5 71.5l4 3q14 -23 43.5 -43t69.5 -20q64 0 112 64l4 -3q-25 -64 -105 -103zM381 -15q-147 0 -244 94.5t-97 261.5q0 159 96 261t255 113q68 0 129 -16.5t94 -37.5v-149h-5l-51 123q-70 70 -170 70q-124 0 -196 -102t-72 -263
q0 -142 70.5 -244.5t196.5 -102.5q56 0 101 22t69 53v229l-85 7v5h219v-5l-64 -7v-249q-124 -63 -246 -63z" />
    <glyph glyph-name="Gcircumflex.ss02" horiz-adv-x="716" 
d="M263 735l125 125h4l125 -125h-5l-122 71l-122 -71h-5zM381 -15q-147 0 -244 94.5t-97 261.5q0 159 96 261t255 113q68 0 129 -16.5t94 -37.5v-149h-5l-51 123q-70 70 -170 70q-124 0 -196 -102t-72 -263q0 -142 70.5 -244.5t196.5 -102.5q56 0 101 22t69 53v229l-85 7v5
h219v-5l-64 -7v-249q-124 -63 -246 -63z" />
    <glyph glyph-name="Gdotaccent.ss02" horiz-adv-x="716" 
d="M371 767l-20 4l-4 43l7 34l53 4l21 -4l4 -40l-7 -37zM381 -15q-147 0 -244 94.5t-97 261.5q0 159 96 261t255 113q68 0 129 -16.5t94 -37.5v-149h-5l-51 123q-70 70 -170 70q-124 0 -196 -102t-72 -263q0 -142 70.5 -244.5t196.5 -102.5q56 0 101 22t69 53v229l-85 7v5
h219v-5l-64 -7v-249q-124 -63 -246 -63z" />
    <glyph glyph-name="Hcircumflex.ss02" horiz-adv-x="743" 
d="M245 735l125 125h4l125 -125h-5l-122 71l-122 -71h-5zM30 0v5l92 5v680l-92 5v5h254v-5l-92 -5v-321h359v321l-92 5v5h254v-5l-92 -5v-680l92 -5v-5h-254v5l92 5v349h-359v-349l92 -5v-5h-254z" />
    <glyph glyph-name="Iacute.ss02" horiz-adv-x="314" 
d="M148 741l37 109h65l-97 -109h-5zM30 0v5l92 5v680l-92 5v5h254v-5l-92 -5v-680l92 -5v-5h-254z" />
    <glyph glyph-name="Ibreve.ss02" horiz-adv-x="314" 
d="M168 749q-50 0 -81.5 30.5t-46.5 71.5l4 3q14 -23 43.5 -43t69.5 -20q64 0 112 64l4 -3q-25 -64 -105 -103zM30 0v5l92 5v680l-92 5v5h254v-5l-92 -5v-680l92 -5v-5h-254z" />
    <glyph glyph-name="Icircumflex.ss02" horiz-adv-x="314" 
d="M30 735l125 125h4l125 -125h-5l-122 71l-122 -71h-5zM30 0v5l92 5v680l-92 5v5h254v-5l-92 -5v-680l92 -5v-5h-254z" />
    <glyph glyph-name="Idieresis.ss02" horiz-adv-x="314" 
d="M34 775l-18 4l-4 39l7 30l47 4l19 -4l4 -36l-7 -33zM246 775l-18 4l-4 39l7 30l47 4l19 -4l4 -36l-7 -33zM30 0v5l92 5v680l-92 5v5h254v-5l-92 -5v-680l92 -5v-5h-254z" />
    <glyph glyph-name="Idotaccent.ss02" horiz-adv-x="314" 
d="M138 767l-20 4l-4 43l7 34l53 4l21 -4l4 -40l-7 -37zM30 0v5l92 5v680l-92 5v5h254v-5l-92 -5v-680l92 -5v-5h-254z" />
    <glyph glyph-name="Igrave.ss02" horiz-adv-x="314" 
d="M154 741l-97 109h65l37 -109h-5zM30 0v5l92 5v680l-92 5v5h254v-5l-92 -5v-680l92 -5v-5h-254z" />
    <glyph glyph-name="Imacron.ss02" horiz-adv-x="314" 
d="M17 800v20h280v-20h-280zM30 0v5l92 5v680l-92 5v5h254v-5l-92 -5v-680l92 -5v-5h-254z" />
    <glyph glyph-name="Itilde.ss02" horiz-adv-x="314" 
d="M0 752l26 85l69 22l184 -77l29 80h5l-26 -85l-69 -22l-184 78l-29 -81h-5zM30 0v5l92 5v680l-92 5v5h254v-5l-92 -5v-680l92 -5v-5h-254z" />
    <glyph glyph-name="Jcircumflex.ss02" horiz-adv-x="315" 
d="M31 735l125 125h4l125 -125h-5l-122 71l-122 -71h-5zM0 -175v70h117l4 19q7 31 7 174v602l-107 5v5h269v-5l-92 -5v-609q0 -54 -8.5 -83.5t-33.5 -59.5l-94 -113h-62z" />
    <glyph glyph-name="Lacute.ss02" horiz-adv-x="549" 
d="M145 741l37 109h65l-97 -109h-5zM30 0v5l92 5v680l-92 5v5h254v-5l-92 -5v-680h281l61 175h5v-185h-509z" />
    <glyph glyph-name="Nacute.ss02" horiz-adv-x="695" 
d="M369 741l37 109h65l-97 -109h-5zM563 -5l-431 687v-672l92 -5v-5h-194v5l92 5v680l-92 5v5h172l381 -605v595l-91 5v5h193v-5l-92 -5v-695h-30z" />
    <glyph glyph-name="Ncaron.ss02" horiz-adv-x="695" 
d="M376 747l-125 125h5l122 -71l122 71h5l-125 -125h-4zM563 -5l-431 687v-672l92 -5v-5h-194v5l92 5v680l-92 5v5h172l381 -605v595l-91 5v5h193v-5l-92 -5v-695h-30z" />
    <glyph glyph-name="Ntilde.ss02" horiz-adv-x="695" 
d="M221 752l26 85l69 22l184 -77l29 80h5l-26 -85l-69 -22l-184 78l-29 -81h-5zM563 -5l-431 687v-672l92 -5v-5h-194v5l92 5v680l-92 5v5h172l381 -605v595l-91 5v5h193v-5l-92 -5v-695h-30z" />
    <glyph glyph-name="Oacute.ss02" horiz-adv-x="752" 
d="M372 741l37 109h65l-97 -109h-5zM366 -15q-141 0 -233.5 102t-92.5 249q0 162 87 260t258 119q141 0 234 -102t93 -249q0 -162 -87.5 -260t-258.5 -119zM397 3q107 0 171 92.5t64 241.5q0 155 -79 257.5t-198 102.5q-107 0 -171 -92.5t-64 -241.5q0 -155 79 -257.5
t198 -102.5z" />
    <glyph glyph-name="Obreve.ss02" horiz-adv-x="752" 
d="M392 749q-50 0 -81.5 30.5t-46.5 71.5l4 3q14 -23 43.5 -43t69.5 -20q64 0 112 64l4 -3q-25 -64 -105 -103zM366 -15q-141 0 -233.5 102t-92.5 249q0 162 87 260t258 119q141 0 234 -102t93 -249q0 -162 -87.5 -260t-258.5 -119zM397 3q107 0 171 92.5t64 241.5
q0 155 -79 257.5t-198 102.5q-107 0 -171 -92.5t-64 -241.5q0 -155 79 -257.5t198 -102.5z" />
    <glyph glyph-name="Ocircumflex.ss02" horiz-adv-x="752" 
d="M254 735l125 125h4l125 -125h-5l-122 71l-122 -71h-5zM366 -15q-141 0 -233.5 102t-92.5 249q0 162 87 260t258 119q141 0 234 -102t93 -249q0 -162 -87.5 -260t-258.5 -119zM397 3q107 0 171 92.5t64 241.5q0 155 -79 257.5t-198 102.5q-107 0 -171 -92.5t-64 -241.5
q0 -155 79 -257.5t198 -102.5z" />
    <glyph glyph-name="Odieresis.ss02" horiz-adv-x="752" 
d="M258 775l-18 4l-4 39l7 30l47 4l19 -4l4 -36l-7 -33zM470 775l-18 4l-4 39l7 30l47 4l19 -4l4 -36l-7 -33zM366 -15q-141 0 -233.5 102t-92.5 249q0 162 87 260t258 119q141 0 234 -102t93 -249q0 -162 -87.5 -260t-258.5 -119zM397 3q107 0 171 92.5t64 241.5
q0 155 -79 257.5t-198 102.5q-107 0 -171 -92.5t-64 -241.5q0 -155 79 -257.5t198 -102.5z" />
    <glyph glyph-name="Ograve.ss02" horiz-adv-x="752" 
d="M378 741l-97 109h65l37 -109h-5zM366 -15q-141 0 -233.5 102t-92.5 249q0 162 87 260t258 119q141 0 234 -102t93 -249q0 -162 -87.5 -260t-258.5 -119zM397 3q107 0 171 92.5t64 241.5q0 155 -79 257.5t-198 102.5q-107 0 -171 -92.5t-64 -241.5q0 -155 79 -257.5
t198 -102.5z" />
    <glyph glyph-name="Ohungarumlaut.ss02" horiz-adv-x="752" 
d="M290 752l58 98h84l-137 -98h-5zM441 752l58 98h84l-137 -98h-5zM366 -15q-141 0 -233.5 102t-92.5 249q0 162 87 260t258 119q141 0 234 -102t93 -249q0 -162 -87.5 -260t-258.5 -119zM397 3q107 0 171 92.5t64 241.5q0 155 -79 257.5t-198 102.5q-107 0 -171 -92.5
t-64 -241.5q0 -155 79 -257.5t198 -102.5z" />
    <glyph glyph-name="Omacron.ss02" horiz-adv-x="752" 
d="M241 800v20h280v-20h-280zM366 -15q-141 0 -233.5 102t-92.5 249q0 162 87 260t258 119q141 0 234 -102t93 -249q0 -162 -87.5 -260t-258.5 -119zM397 3q107 0 171 92.5t64 241.5q0 155 -79 257.5t-198 102.5q-107 0 -171 -92.5t-64 -241.5q0 -155 79 -257.5t198 -102.5z
" />
    <glyph glyph-name="Oslashacute.ss02" horiz-adv-x="752" 
d="M469 850l-97 -109h-5l37 109h65zM603 630q109 -104 109 -266t-87.5 -260t-258.5 -119q-117 0 -205 74l-57 -74h-12l62 80q-54 49 -84 119.5t-30 151.5q0 162 87 260t258 119q122 0 212 -80l62 80h10zM120 363q0 -147 72 -249l367 472q-80 111 -204 111q-107 0 -171 -92.5
t-64 -241.5zM397 3q107 0 171 92.5t64 241.5q0 142 -68 242l-366 -472q80 -104 199 -104z" />
    <glyph glyph-name="Otilde.ss02" horiz-adv-x="752" 
d="M224 752l26 85l69 22l184 -77l29 80h5l-26 -85l-69 -22l-184 78l-29 -81h-5zM366 -15q-141 0 -233.5 102t-92.5 249q0 162 87 260t258 119q141 0 234 -102t93 -249q0 -162 -87.5 -260t-258.5 -119zM397 3q107 0 171 92.5t64 241.5q0 155 -79 257.5t-198 102.5
q-107 0 -171 -92.5t-64 -241.5q0 -155 79 -257.5t198 -102.5z" />
    <glyph glyph-name="Racute.ss02" horiz-adv-x="640" 
d="M281 741l37 109h65l-97 -109h-5zM30 0v5l92 5v680l-92 5v5h302q87 0 147.5 -41.5t60.5 -131.5q0 -153 -257 -194h-91v-323l86 -5v-5h-248zM192 343h70q97 0 149 47.5t52 129.5q0 85 -45 129t-119 46l-107 -5v-347zM504 0l-221 333l98 -23l200 -300l54 -5v-5h-131z" />
    <glyph glyph-name="Rcaron.ss02" horiz-adv-x="640" 
d="M288 747l-125 125h5l122 -71l122 71h5l-125 -125h-4zM30 0v5l92 5v680l-92 5v5h302q87 0 147.5 -41.5t60.5 -131.5q0 -153 -257 -194h-91v-323l86 -5v-5h-248zM192 343h70q97 0 149 47.5t52 129.5q0 85 -45 129t-119 46l-107 -5v-347zM504 0l-221 333l98 -23l200 -300
l54 -5v-5h-131z" />
    <glyph glyph-name="Sacute.ss02" horiz-adv-x="510" 
d="M256 741l37 109h65l-97 -109h-5zM239 -15q-108 0 -194 57v149h5l39 -101q75 -77 171 -77q68 0 109 38t41 101q0 51 -29.5 89.5t-96.5 75.5l-113 61q-58 32 -87 64t-29 86q0 73 56.5 120.5t153.5 66.5q106 0 183 -44v-147h-5l-44 114q-64 59 -145 59q-65 0 -104.5 -36.5
t-39.5 -91.5q0 -45 27 -76t85 -62l113 -61q66 -36 98 -77t32 -97q0 -152 -226 -211z" />
    <glyph glyph-name="Scaron.ss02" horiz-adv-x="510" 
d="M263 747l-125 125h5l122 -71l122 71h5l-125 -125h-4zM239 -15q-108 0 -194 57v149h5l39 -101q75 -77 171 -77q68 0 109 38t41 101q0 51 -29.5 89.5t-96.5 75.5l-113 61q-58 32 -87 64t-29 86q0 73 56.5 120.5t153.5 66.5q106 0 183 -44v-147h-5l-44 114q-64 59 -145 59
q-65 0 -104.5 -36.5t-39.5 -91.5q0 -45 27 -76t85 -62l113 -61q66 -36 98 -77t32 -97q0 -152 -226 -211z" />
    <glyph glyph-name="Scircumflex.ss02" horiz-adv-x="510" 
d="M138 735l125 125h4l125 -125h-5l-122 71l-122 -71h-5zM239 -15q-108 0 -194 57v149h5l39 -101q75 -77 171 -77q68 0 109 38t41 101q0 51 -29.5 89.5t-96.5 75.5l-113 61q-58 32 -87 64t-29 86q0 73 56.5 120.5t153.5 66.5q106 0 183 -44v-147h-5l-44 114q-64 59 -145 59
q-65 0 -104.5 -36.5t-39.5 -91.5q0 -45 27 -76t85 -62l113 -61q66 -36 98 -77t32 -97q0 -152 -226 -211z" />
    <glyph glyph-name="Tcaron.ss02" horiz-adv-x="566" 
d="M281 747l-125 125h5l122 -71l122 71h5l-125 -125h-4zM156 0v5l92 5v680h-172l-61 -181h-5v191h546v-191h-5l-61 181h-172v-680l92 -5v-5h-254z" />
    <glyph glyph-name="Uacute.ss02" horiz-adv-x="664" 
d="M346 741l37 109h65l-97 -109h-5zM340 -15q-239 0 -239 264v441l-91 5v5h253v-5l-92 -5v-451q0 -98 51 -162t147 -64q80 0 129 65t49 161v451l-92 5v5h199v-5l-92 -5v-448q0 -106 -49.5 -172.5t-172.5 -84.5z" />
    <glyph glyph-name="Ubreve.ss02" horiz-adv-x="664" 
d="M366 749q-50 0 -81.5 30.5t-46.5 71.5l4 3q14 -23 43.5 -43t69.5 -20q64 0 112 64l4 -3q-25 -64 -105 -103zM340 -15q-239 0 -239 264v441l-91 5v5h253v-5l-92 -5v-451q0 -98 51 -162t147 -64q80 0 129 65t49 161v451l-92 5v5h199v-5l-92 -5v-448q0 -106 -49.5 -172.5
t-172.5 -84.5z" />
    <glyph glyph-name="Ucircumflex.ss02" horiz-adv-x="664" 
d="M228 735l125 125h4l125 -125h-5l-122 71l-122 -71h-5zM340 -15q-239 0 -239 264v441l-91 5v5h253v-5l-92 -5v-451q0 -98 51 -162t147 -64q80 0 129 65t49 161v451l-92 5v5h199v-5l-92 -5v-448q0 -106 -49.5 -172.5t-172.5 -84.5z" />
    <glyph glyph-name="Udieresis.ss02" horiz-adv-x="664" 
d="M232 775l-18 4l-4 39l7 30l47 4l19 -4l4 -36l-7 -33zM444 775l-18 4l-4 39l7 30l47 4l19 -4l4 -36l-7 -33zM340 -15q-239 0 -239 264v441l-91 5v5h253v-5l-92 -5v-451q0 -98 51 -162t147 -64q80 0 129 65t49 161v451l-92 5v5h199v-5l-92 -5v-448q0 -106 -49.5 -172.5
t-172.5 -84.5z" />
    <glyph glyph-name="Ugrave.ss02" horiz-adv-x="664" 
d="M352 741l-97 109h65l37 -109h-5zM340 -15q-239 0 -239 264v441l-91 5v5h253v-5l-92 -5v-451q0 -98 51 -162t147 -64q80 0 129 65t49 161v451l-92 5v5h199v-5l-92 -5v-448q0 -106 -49.5 -172.5t-172.5 -84.5z" />
    <glyph glyph-name="Uhungarumlaut.ss02" horiz-adv-x="664" 
d="M264 752l58 98h84l-137 -98h-5zM415 752l58 98h84l-137 -98h-5zM340 -15q-239 0 -239 264v441l-91 5v5h253v-5l-92 -5v-451q0 -98 51 -162t147 -64q80 0 129 65t49 161v451l-92 5v5h199v-5l-92 -5v-448q0 -106 -49.5 -172.5t-172.5 -84.5z" />
    <glyph glyph-name="Umacron.ss02" horiz-adv-x="664" 
d="M215 800v20h280v-20h-280zM340 -15q-239 0 -239 264v441l-91 5v5h253v-5l-92 -5v-451q0 -98 51 -162t147 -64q80 0 129 65t49 161v451l-92 5v5h199v-5l-92 -5v-448q0 -106 -49.5 -172.5t-172.5 -84.5z" />
    <glyph glyph-name="Uring.ss02" horiz-adv-x="664" 
d="M354 718q-31 0 -53.5 16.5t-22.5 49.5q0 20 11 33.5t21 18t36 13.5q5 2 8 3q32 0 55 -16t23 -49q0 -7 -1 -13.5t-4.5 -12t-5.5 -9t-8.5 -8t-9 -6.5t-11.5 -5.5t-11.5 -4.5t-13 -5t-13.5 -5zM354 734q22 0 37 14.5t15 36.5t-15 37t-37 15t-36.5 -15t-14.5 -37t14.5 -36.5
t36.5 -14.5zM340 -15q-239 0 -239 264v441l-91 5v5h253v-5l-92 -5v-451q0 -98 51 -162t147 -64q80 0 129 65t49 161v451l-92 5v5h199v-5l-92 -5v-448q0 -106 -49.5 -172.5t-172.5 -84.5z" />
    <glyph glyph-name="Utilde.ss02" horiz-adv-x="664" 
d="M198 752l26 85l69 22l184 -77l29 80h5l-26 -85l-69 -22l-184 78l-29 -81h-5zM340 -15q-239 0 -239 264v441l-91 5v5h253v-5l-92 -5v-451q0 -98 51 -162t147 -64q80 0 129 65t49 161v451l-92 5v5h199v-5l-92 -5v-448q0 -106 -49.5 -172.5t-172.5 -84.5z" />
    <glyph glyph-name="Wacute.ss02" horiz-adv-x="975" 
d="M479 741l37 109h65l-97 -109h-5zM305 -1l-227 691l-68 5v5h231v-5l-88 -5l189 -581l139 433l-48 148l-68 5v5h231v-5l-88 -5l189 -581l187 581l-94 5v5h175v-5l-70 -5l-221 -686l-14 -5l-173 526l-168 -521z" />
    <glyph glyph-name="Wcircumflex.ss02" horiz-adv-x="975" 
d="M361 735l125 125h4l125 -125h-5l-122 71l-122 -71h-5zM305 -1l-227 691l-68 5v5h231v-5l-88 -5l189 -581l139 433l-48 148l-68 5v5h231v-5l-88 -5l189 -581l187 581l-94 5v5h175v-5l-70 -5l-221 -686l-14 -5l-173 526l-168 -521z" />
    <glyph glyph-name="Wdieresis.ss02" horiz-adv-x="975" 
d="M365 775l-18 4l-4 39l7 30l47 4l19 -4l4 -36l-7 -33zM577 775l-18 4l-4 39l7 30l47 4l19 -4l4 -36l-7 -33zM305 -1l-227 691l-68 5v5h231v-5l-88 -5l189 -581l139 433l-48 148l-68 5v5h231v-5l-88 -5l189 -581l187 581l-94 5v5h175v-5l-70 -5l-221 -686l-14 -5l-173 526
l-168 -521z" />
    <glyph glyph-name="Wgrave.ss02" horiz-adv-x="975" 
d="M485 741l-97 109h65l37 -109h-5zM305 -1l-227 691l-68 5v5h231v-5l-88 -5l189 -581l139 433l-48 148l-68 5v5h231v-5l-88 -5l189 -581l187 581l-94 5v5h175v-5l-70 -5l-221 -686l-14 -5l-173 526l-168 -521z" />
    <glyph glyph-name="Yacute.ss02" horiz-adv-x="679" 
d="M361 741l37 109h65l-97 -109h-5zM196 0v5l115 5v263l-229 417l-77 5v5h251v-5l-94 -5l212 -387l211 387l-104 5v5h193v-5l-77 -5l-216 -397v-283l115 -5v-5h-300z" />
    <glyph glyph-name="Ycircumflex.ss02" horiz-adv-x="679" 
d="M243 735l125 125h4l125 -125h-5l-122 71l-122 -71h-5zM196 0v5l115 5v263l-229 417l-77 5v5h251v-5l-94 -5l212 -387l211 387l-104 5v5h193v-5l-77 -5l-216 -397v-283l115 -5v-5h-300z" />
    <glyph glyph-name="Ydieresis.ss02" horiz-adv-x="679" 
d="M247 775l-18 4l-4 39l7 30l47 4l19 -4l4 -36l-7 -33zM459 775l-18 4l-4 39l7 30l47 4l19 -4l4 -36l-7 -33zM196 0v5l115 5v263l-229 417l-77 5v5h251v-5l-94 -5l212 -387l211 387l-104 5v5h193v-5l-77 -5l-216 -397v-283l115 -5v-5h-300z" />
    <glyph glyph-name="Ygrave.ss02" horiz-adv-x="679" 
d="M367 741l-97 109h65l37 -109h-5zM196 0v5l115 5v263l-229 417l-77 5v5h251v-5l-94 -5l212 -387l211 387l-104 5v5h193v-5l-77 -5l-216 -397v-283l115 -5v-5h-300z" />
    <glyph glyph-name="Zacute.ss02" horiz-adv-x="548" 
d="M265 741l37 109h65l-97 -109h-5zM20 0v5l414 685h-309l-74 -176h-5v186h472v-5l-414 -685h322l76 180h5v-190h-487z" />
    <glyph glyph-name="Zcaron.ss02" horiz-adv-x="548" 
d="M272 747l-125 125h5l122 -71l122 71h5l-125 -125h-4zM20 0v5l414 685h-309l-74 -176h-5v186h472v-5l-414 -685h322l76 180h5v-190h-487z" />
    <glyph glyph-name="Zdotaccent.ss02" horiz-adv-x="548" 
d="M255 767l-20 4l-4 43l7 34l53 4l21 -4l4 -40l-7 -37zM20 0v5l414 685h-309l-74 -176h-5v186h472v-5l-414 -685h322l76 180h5v-190h-487z" />
    <glyph glyph-name="aogonek.ss01" horiz-adv-x="439" 
d="M259 -106q0 -34 22 -49.5t72 -15.5l-1 -5q-79 0 -105 19.5t-26 64.5v23l92 71l-17 82l-140 -99q-59 0 -92.5 30.5t-33.5 83.5q0 57 53 99l212 72v51q0 30 -2 45.5t-11 35.5t-31 28.5t-59 8.5q-26 0 -70 -13l-25 -101h-54v67l171 83q48 0 77 -9.5t42.5 -32t17.5 -45.5
t4 -62v-219q0 -42 20 -94l58 8l1 -4l-108 -20l-67 -82v-21zM295 90v175l-150 -58q-50 -38 -50 -91q0 -38 21.5 -61.5t55.5 -23.5q41 0 90 35z" />
    <glyph glyph-name="ccedilla.ss01" horiz-adv-x="422" 
d="M233 -43q33 -2 56 -16t23 -38q0 -36 -76 -60l-68 -19h-23l18 23h77q35 15 35 43q0 18 -20 28.5t-48 11.5l36 55q-91 2 -149.5 63.5t-58.5 165.5q0 114 66 180.5t161 80.5q27 0 65.5 -16.5t60.5 -34.5v-76h-48l-43 102q-23 8 -47 8q-71 0 -114 -49t-43 -150
q0 -95 48 -159.5t123 -64.5q69 0 130 54l3 -4q-57 -55 -146 -99z" />
    <glyph glyph-name="eogonek.ss01" horiz-adv-x="448" 
d="M206 -106q0 -34 22 -49.5t72 -15.5l-1 -5q-79 0 -105 19.5t-26 64.5v23l70 55q-85 6 -144 65t-59 162q0 110 57.5 175.5t149.5 86.5q164 0 164 -180v-21h-312q-1 -8 -1 -26q0 -98 52.5 -155.5t134.5 -57.5q56 0 130 49l3 -3q-80 -62 -146 -91l-61 -75v-21zM223 454
q-58 0 -91 -45.5t-38 -129.5h242q0 82 -24 128.5t-89 46.5z" />
    <glyph glyph-name="g.ss01" horiz-adv-x="468" 
d="M203 -181q-95 0 -139 28t-44 89v17l113 80q-48 9 -69 32.5t-21 52.5v10l96 69q-45 14 -71.5 45t-26.5 73q0 112 177 159q51 0 91.5 -20t59.5 -55l55 75h39v-74h-85l-6 -7q10 -25 10 -48q0 -114 -177 -158q-30 0 -59 8l-48 -48q0 -59 72 -59h161q50 0 78.5 -25t28.5 -60
q0 -55 -65.5 -106t-169.5 -78zM221 205q45 0 70.5 30t25.5 85q0 51 -27 93.5t-88 42.5q-45 0 -70.5 -30.5t-25.5 -85.5q0 -50 27 -92.5t88 -42.5zM198 -161q70 1 125 40.5t55 89.5q0 64 -93 64h-146q-54 -42 -54 -103q0 -41 30.5 -66.5t82.5 -24.5z" />
    <glyph glyph-name="gbreve.ss01" horiz-adv-x="468" 
d="M238 566q-58 0 -96 39.5t-54 92.5l4 3q18 -31 52 -56t81 -26q25 0 46.5 7.5t38.5 22.5t26 26t21 27l4 -3q-11 -32 -41.5 -68.5t-81.5 -64.5zM203 -181q-95 0 -139 28t-44 89v17l113 80q-48 9 -69 32.5t-21 52.5v10l96 69q-45 14 -71.5 45t-26.5 73q0 112 177 159
q51 0 91.5 -20t59.5 -55l55 75h39v-74h-85l-6 -7q10 -25 10 -48q0 -114 -177 -158q-30 0 -59 8l-48 -48q0 -59 72 -59h161q50 0 78.5 -25t28.5 -60q0 -55 -65.5 -106t-169.5 -78zM221 205q45 0 70.5 30t25.5 85q0 51 -27 93.5t-88 42.5q-45 0 -70.5 -30.5t-25.5 -85.5
q0 -50 27 -92.5t88 -42.5zM198 -161q70 1 125 40.5t55 89.5q0 64 -93 64h-146q-54 -42 -54 -103q0 -41 30.5 -66.5t82.5 -24.5z" />
    <glyph glyph-name="gcircumflex.ss01" horiz-adv-x="468" 
d="M105 542l127 168h4l127 -168h-5l-124 98l-124 -98h-5zM203 -181q-95 0 -139 28t-44 89v17l113 80q-48 9 -69 32.5t-21 52.5v10l96 69q-45 14 -71.5 45t-26.5 73q0 112 177 159q51 0 91.5 -20t59.5 -55l55 75h39v-74h-85l-6 -7q10 -25 10 -48q0 -114 -177 -158
q-30 0 -59 8l-48 -48q0 -59 72 -59h161q50 0 78.5 -25t28.5 -60q0 -55 -65.5 -106t-169.5 -78zM221 205q45 0 70.5 30t25.5 85q0 51 -27 93.5t-88 42.5q-45 0 -70.5 -30.5t-25.5 -85.5q0 -50 27 -92.5t88 -42.5zM198 -161q70 1 125 40.5t55 89.5q0 64 -93 64h-146
q-54 -42 -54 -103q0 -41 30.5 -66.5t82.5 -24.5z" />
    <glyph glyph-name="gcommaaccent.ss01" horiz-adv-x="468" 
d="M192 542v75l78 95l5 -2l-51 -96l38 -22v-50h-70zM203 -181q-95 0 -139 28t-44 89v17l113 80q-48 9 -69 32.5t-21 52.5v10l96 69q-45 14 -71.5 45t-26.5 73q0 112 177 159q51 0 91.5 -20t59.5 -55l55 75h39v-74h-85l-6 -7q10 -25 10 -48q0 -114 -177 -158q-30 0 -59 8
l-48 -48q0 -59 72 -59h161q50 0 78.5 -25t28.5 -60q0 -55 -65.5 -106t-169.5 -78zM221 205q45 0 70.5 30t25.5 85q0 51 -27 93.5t-88 42.5q-45 0 -70.5 -30.5t-25.5 -85.5q0 -50 27 -92.5t88 -42.5zM198 -161q70 1 125 40.5t55 89.5q0 64 -93 64h-146q-54 -42 -54 -103
q0 -41 30.5 -66.5t82.5 -24.5z" />
    <glyph glyph-name="gdotaccent.ss01" horiz-adv-x="468" 
d="M215 598l-20 4l-4 43l7 34l53 4l21 -4l4 -40l-7 -37zM203 -181q-95 0 -139 28t-44 89v17l113 80q-48 9 -69 32.5t-21 52.5v10l96 69q-45 14 -71.5 45t-26.5 73q0 112 177 159q51 0 91.5 -20t59.5 -55l55 75h39v-74h-85l-6 -7q10 -25 10 -48q0 -114 -177 -158q-30 0 -59 8
l-48 -48q0 -59 72 -59h161q50 0 78.5 -25t28.5 -60q0 -55 -65.5 -106t-169.5 -78zM221 205q45 0 70.5 30t25.5 85q0 51 -27 93.5t-88 42.5q-45 0 -70.5 -30.5t-25.5 -85.5q0 -50 27 -92.5t88 -42.5zM198 -161q70 1 125 40.5t55 89.5q0 64 -93 64h-146q-54 -42 -54 -103
q0 -41 30.5 -66.5t82.5 -24.5z" />
    <glyph glyph-name="ij.ss01" horiz-adv-x="493" 
d="M115 609l-20 4l-4 43l7 34l53 4l21 -4l4 -40l-7 -37zM369 609l-20 4l-4 43l7 34l53 4l21 -4l4 -40l-7 -37zM34 0v5l70 5v436l-73 -19l-1 4l129 39h5v-460l70 -5v-5h-200zM234 -176v63h114l2 12q9 59 9 98v449l-73 -19l-1 4l129 39h5v-458q0 -37 -26 -72l-88 -116h-71z
" />
    <glyph glyph-name="iogonek.ss01" horiz-adv-x="254" 
d="M115 609l-20 4l-4 43l7 34l53 4l21 -4l4 -40l-7 -37zM142 0l-69 -85v-21q0 -34 22 -49.5t72 -15.5l-1 -5q-79 0 -105 19.5t-26 64.5v23l88 69h-89v5l70 5v436l-73 -19l-1 4l129 39h5v-460l70 -5v-5h-92z" />
    <glyph glyph-name="j.ss01" horiz-adv-x="239" 
d="M115 609l-20 4l-4 43l7 34l53 4l21 -4l4 -40l-7 -37zM-20 -176v63h114l2 12q9 59 9 98v449l-73 -19l-1 4l129 39h5v-458q0 -37 -26 -72l-88 -116h-71z" />
    <glyph glyph-name="uni0237.ss01" horiz-adv-x="239" 
d="M-20 -176v63h114l2 12q9 59 9 98v449l-73 -19l-1 4l129 39h5v-458q0 -37 -26 -72l-88 -116h-71z" />
    <glyph glyph-name="kcommaaccent.ss01" horiz-adv-x="502" 
d="M31 0v5l70 5v679l-69 -14l-2 5l126 35h5v-460l231 195l-72 5v5h152v-5l-67 -5l-229 -192l52 7l220 -256l49 -4v-5h-123l-213 249v-239l70 -5v-5h-200zM217 -183l-4 2l38 70l-28 20v34h65v-55z" />
    <glyph glyph-name="lcommaaccent.ss01" horiz-adv-x="246" 
d="M31 0v5l70 5v679l-69 -14l-2 5l126 35h5v-705l70 -5v-5h-200zM89 -183l-4 2l38 70l-28 20v34h65v-55z" />
    <glyph glyph-name="ncommaaccent.ss01" horiz-adv-x="555" 
d="M34 0v5l70 5v436l-73 -19l-1 4l129 39h5v-109l184 114q63 0 85.5 -35t22.5 -112v-318l82 -5v-5h-196v5l54 5v324q0 54 -17 74.5t-54 20.5q-7 0 -13.5 -0.5t-13 -2.5t-11.5 -3t-12.5 -4.5t-11.5 -5t-13 -7t-12.5 -7.5t-14.5 -9t-15 -9l-44 -26v-345l55 -5v-5h-185z
M244 -183l-4 2l38 70l-28 20v34h65v-55z" />
    <glyph glyph-name="eng.ss01" horiz-adv-x="516" 
d="M271 -175v75h115l3 12q7 30 7 98v324q0 54 -17 74.5t-54 20.5q-7 0 -13.5 -0.5t-13 -2.5t-11.5 -3t-12.5 -4.5t-11.5 -5t-13 -7t-12.5 -7.5t-14.5 -9t-15 -9l-44 -26v-345l55 -5v-5h-185v5l70 5v436l-73 -19l-1 4l129 39h5v-109l184 114q63 0 85.5 -35t22.5 -112v-310
q0 -12 -3 -21.5t-7 -15.5t-14.5 -21t-18.5 -27l-69 -108h-73z" />
    <glyph glyph-name="p.ss01" horiz-adv-x="509" 
d="M17 -170v5l72 5v606l-73 -19l-1 4l129 39h5v-94l149 99q76 0 126 -62.5t50 -149.5q0 -107 -57 -179.5t-169 -98.5q-63 0 -99 31v-176l107 -5v-5h-239zM255 -2q68 1 111 64t43 167q0 84 -35.5 142t-97.5 58q-13 0 -22.5 -1.5t-21 -7t-17 -8.5t-21.5 -13.5t-23 -15.5
l-22 -14v-314q35 -58 106 -57z" />
    <glyph glyph-name="thorn.ss01" horiz-adv-x="509" 
d="M17 -170v5l72 5v850l-73 -19l-1 4l129 39h5v-338l149 99q76 0 126 -62.5t50 -149.5q0 -107 -57 -179.5t-169 -98.5q-63 0 -99 31v-176l107 -5v-5h-239zM255 -2q68 1 111 64t43 167q0 84 -35.5 142t-97.5 58q-13 0 -22.5 -1.5t-21 -7t-17 -8.5t-21.5 -13.5t-23 -15.5
l-22 -14v-314q35 -58 106 -57z" />
    <glyph glyph-name="q.ss01" horiz-adv-x="497" 
d="M253 -170v5l107 5v241l-145 -96q-74 0 -127 59.5t-53 155.5q0 111 67.5 186t166.5 89q43 0 69 -7.5t58 -26.5l19 29h5v-630l72 -5v-5h-239zM233 35q29 0 48 7.5t51 27.5l28 18v310q-33 64 -102 64q-64 0 -111 -57.5t-47 -168.5q0 -84 33.5 -142.5t99.5 -58.5z" />
    <glyph glyph-name="rcommaaccent.ss01" horiz-adv-x="343" 
d="M34 0v5l70 5v436l-73 -19l-1 4l129 39h5v-147l108 147h56v-73h-103l-61 -82v-305l96 -5v-5h-226zM98 -183l-4 2l38 70l-28 20v34h65v-55z" />
    <glyph glyph-name="scedilla.ss01" horiz-adv-x="358" 
d="M241 244q49 -29 68 -55.5t18 -65.5q-1 -97 -154 -137l-18 -29q33 -2 56 -16t23 -38q0 -36 -76 -60l-68 -19h-23l18 23h77q35 15 35 43q0 18 -20.5 28.5t-47.5 11.5l36 55q-66 3 -135 46v118h5l46 -98q50 -46 101 -46q46 0 69.5 22.5t23.5 55.5q0 40 -18.5 62t-69.5 53
l-71 43q-48 30 -62 48q-20 25 -20 61q0 44 35.5 72.5t109.5 52.5q76 0 136 -37v-119h-5l-41 99q-42 40 -102 40q-37 0 -60 -20.5t-23 -52.5q0 -23 12.5 -41.5t26 -27.5t42.5 -27z" />
    <glyph glyph-name="scommaaccent.ss01" horiz-adv-x="358" 
d="M170 -15q-68 0 -140 46v118h5l46 -98q50 -46 101 -46q46 0 69.5 22.5t23.5 55.5q0 40 -18.5 62t-69.5 53l-71 43q-48 30 -62 48q-20 25 -20 61q0 44 35.5 72.5t109.5 52.5q76 0 136 -37v-119h-5l-41 99q-42 40 -102 40q-37 0 -60 -20.5t-23 -52.5q0 -23 12.5 -41.5
t26 -27.5t42.5 -27l76 -45q49 -29 68 -55.5t18 -65.5q-1 -98 -157 -138zM145 -183l-4 2l38 70l-28 20v34h65v-55z" />
    <glyph glyph-name="uni0163.ss01" horiz-adv-x="313" 
d="M155 -43q33 -2 56 -16t23 -38q0 -36 -76 -60l-68 -19h-23l18 23h77q35 15 35 43q0 18 -20.5 28.5t-47.5 11.5l37 56q-50 5 -65.5 34.5t-15.5 84.5v350h-80v5h80v83l60 38v-121h151v-5h-151v-353q0 -72 63 -72q47 0 95 28l3 -4l-120 -69h-13z" />
    <glyph glyph-name="uni021B.ss01" horiz-adv-x="313" 
d="M186 -15q-62 0 -81.5 30t-19.5 90v350h-80v5h80v83l60 38v-121h151v-5h-151v-353q0 -72 63 -72q47 0 95 28l3 -4zM145 -183l-4 2l38 70l-28 20v34h65v-55z" />
    <glyph glyph-name="uogonek.ss01" horiz-adv-x="527" 
d="M325 -106q0 -34 22 -49.5t72 -15.5l-1 -5q-79 0 -105 19.5t-26 64.5v23l94 74l-14 87l-172 -107q-66 0 -88 33.5t-22 111.5v318l-74 -10l-1 5l130 22h5v-341q0 -97 66 -97q39 0 100 39l56 33v349l-74 -10l-1 5l130 22h5v-341q0 -49 15 -109l59 7l1 -5l-111 -20l-66 -82
v-21z" />
    <glyph glyph-name="y.ss01" horiz-adv-x="516" 
d="M94 -175v70h93l97 175l-55 -27l-163 407l-61 5v5h192v-5l-60 -5l151 -371l144 371l-75 5v5h154v-5l-67 -5l-149 -381l-116 -244h-85z" />
    <glyph glyph-name="yacute.ss01" horiz-adv-x="516" 
d="M256 542l65 168h72l-132 -168h-5zM94 -175v70h93l97 175l-55 -27l-163 407l-61 5v5h192v-5l-60 -5l151 -371l144 371l-75 5v5h154v-5l-67 -5l-149 -381l-116 -244h-85z" />
    <glyph glyph-name="ycircumflex.ss01" horiz-adv-x="516" 
d="M132 542l127 168h4l127 -168h-5l-124 98l-124 -98h-5zM94 -175v70h93l97 175l-55 -27l-163 407l-61 5v5h192v-5l-60 -5l151 -371l144 371l-75 5v5h154v-5l-67 -5l-149 -381l-116 -244h-85z" />
    <glyph glyph-name="ydieresis.ss01" horiz-adv-x="516" 
d="M164 597l-18 4l-4 39l7 30l47 4l19 -4l4 -36l-7 -33zM324 597l-18 4l-4 39l7 30l47 4l19 -4l4 -36l-7 -33zM94 -175v70h93l97 175l-55 -27l-163 407l-61 5v5h192v-5l-60 -5l151 -371l144 371l-75 5v5h154v-5l-67 -5l-149 -381l-116 -244h-85z" />
    <glyph glyph-name="ygrave.ss01" horiz-adv-x="516" 
d="M258 542l-132 168h72l65 -168h-5zM94 -175v70h93l97 175l-55 -27l-163 407l-61 5v5h192v-5l-60 -5l151 -371l144 371l-75 5v5h154v-5l-67 -5l-149 -381l-116 -244h-85z" />
    <glyph glyph-name="hcircumflex.ss02" horiz-adv-x="552" 
d="M3 735l125 125h4l125 -125h-5l-122 71l-122 -71h-5zM31 0v5l70 5v679l-69 -14l-2 5l126 35h5v-354l184 114q31 0 52.5 -10t32 -23t16 -36t6.5 -38t1 -40v-318l82 -5v-5h-196v5l54 5v324q0 54 -17 74.5t-54 20.5q-7 0 -13.5 -0.5t-13 -2.5t-11.5 -3t-12.5 -4.5t-11.5 -5
t-13 -7t-12.5 -7.5t-14.5 -9t-15 -9l-44 -26v-345l55 -5v-5h-185z" />
    <glyph glyph-name="lacute.ss02" horiz-adv-x="246" 
d="M114 741l37 109h65l-97 -109h-5zM31 0v5l70 5v679l-69 -14l-2 5l126 35h5v-705l70 -5v-5h-200z" />
    <glyph glyph-name="f_f_j.ss01.liga" horiz-adv-x="777" 
d="M522 -176v63h114l2 12q9 59 9 98v458h-216v-445l116 -5v-5h-246v5l70 5v445h-216v-445l116 -5v-5h-246v5l70 5v445h-70v5h70v4q0 58 4.5 81.5t24.5 46.5l89 103h121l-51 -59h-115l-4 -11q-9 -26 -9 -110v-19v-36h216v13q0 44 1 60.5t7.5 37t20.5 36.5l89 103h228v-85h-5
l-65 26h-203l-4 -11q-9 -26 -9 -110v-19v-51h217l54 10h5v-458q0 -37 -26 -72l-88 -116h-71z" />
    <glyph glyph-name="f_j.ss01.liga" horiz-adv-x="501" 
d="M246 -176v63h114l2 12q9 59 9 98v458h-216v-445l116 -5v-5h-246v5l70 5v445h-70v5h70v13q0 44 1 60.5t7.5 37t20.5 36.5l89 103h228v-85h-5l-65 26h-203l-4 -11q-9 -26 -9 -110v-19v-51h217l54 10h5v-460q0 -34 -26 -70l-88 -116h-71z" />
    <glyph glyph-name="f_y.ss01.liga" horiz-adv-x="785" 
d="M363 -175v70h93l97 175l-55 -27l-165 412h-178v-445l116 -5v-5h-246v5l70 5v445h-70v5h70v13q0 44 1 60.5t7.5 37t20.5 36.5l89 103h105v-59h-150l-4 -11q-9 -26 -9 -110v-19v-51h311v-5l-60 -5l151 -370l144 370l-75 5v5h154v-5l-67 -5l-149 -381l-116 -244h-85z" />
    <glyph glyph-name="g_g.ss01.liga" horiz-adv-x="906" 
d="M203 -180q-95 0 -139 27.5t-44 85.5v17l113 85q-90 20 -90 96v10l96 60q-98 34 -98 110q0 114 177 163q49 0 88.5 -21t59.5 -57l58 78h29v-74h-75l-9 -10q13 -20 13 -47q0 -54 -42 -91t-135 -62q-33 0 -60 9l-47 -35q0 -74 72 -74h144q50 0 78.5 -26t28.5 -63
q0 -55 -60.5 -104t-157.5 -77zM642 -180q-89 0 -131 27.5t-42 85.5v17l103 85q-90 20 -90 96v10l96 60q-98 34 -98 110q0 114 177 163q49 0 88.5 -21t59.5 -57l58 78h39v-74h-85l-9 -10q13 -20 13 -47q0 -54 -42 -91t-135 -62q-33 0 -60 9l-47 -35q0 -74 72 -74h161
q50 0 78.5 -26t28.5 -63q0 -55 -65.5 -104t-169.5 -77zM221 208q45 0 70.5 29t25.5 79q0 52 -27 96t-88 44q-45 0 -70.5 -31.5t-25.5 -86.5q0 -48 27 -89t88 -41zM660 208q45 0 70.5 29t25.5 79q0 52 -27 96t-88 44q-45 0 -70.5 -31.5t-25.5 -86.5q0 -48 27 -89t88 -41z
M198 -160q63 1 113 38.5t50 83.5q0 73 -93 73h-129q-54 -42 -54 -108q0 -39 30.5 -63t82.5 -24zM637 -160q70 1 125 38t55 84q0 73 -93 73h-146q-44 -42 -44 -108q0 -39 28 -63t75 -24z" />
    <glyph glyph-name="k_y.ss01.liga" horiz-adv-x="936" 
d="M514 -175v70h93l97 175l-55 -27l-163 407h-80l-230 -192l52 7l220 -256l49 -4v-5h-123l-213 249v-239l70 -5v-5h-200v5l70 5v679l-69 -14l-2 5l126 35h5v-459l231 194l-72 5v5h297v-5l-60 -5l151 -370l144 370l-75 5v5h154v-5l-67 -5l-149 -381l-116 -244h-85z" />
    <glyph glyph-name="t_y.ss01.liga" horiz-adv-x="714" 
d="M292 -175v70h87l104 178l-53 -30l-168 412h-117v-353q0 -72 63 -72q49 0 85 23l3 -4l-110 -64q-62 0 -81.5 30t-19.5 90v350h-80v5h80v83l60 38v-121h250v-5l-60 -5l151 -366l144 366l-75 5v5h154v-5l-67 -5l-149 -378l-116 -247h-85z" />
    <glyph glyph-name="a.sc" horiz-adv-x="585" 
d="M19 0v6l63 4l192 479l40 23l190 -502l62 -4v-6h-203v5l70 5l-65 174h-206l-69 -174l71 -5v-5h-145zM166 193h199l-96 258z" />
    <glyph glyph-name="aacute.sc" horiz-adv-x="585" 
d="M289 562l65 148h72l-132 -148h-5zM19 0v6l63 4l192 479l40 23l190 -502l62 -4v-6h-203v5l70 5l-65 174h-206l-69 -174l71 -5v-5h-145zM166 193h199l-96 258z" />
    <glyph glyph-name="abreve.sc" horiz-adv-x="585" 
d="M304 566q-58 0 -96 39.5t-54 92.5l4 3q18 -31 52 -56t81 -26q25 0 46.5 7.5t38.5 22.5t26 26t21 27l4 -3q-11 -32 -41.5 -68.5t-81.5 -64.5zM19 0v6l63 4l192 479l40 23l190 -502l62 -4v-6h-203v5l70 5l-65 174h-206l-69 -174l71 -5v-5h-145zM166 193h199l-96 258z" />
    <glyph glyph-name="acircumflex.sc" horiz-adv-x="585" 
d="M163 562l127 150h4l127 -150h-5l-124 80l-124 -80h-5zM19 0v6l63 4l192 479l40 23l190 -502l62 -4v-6h-203v5l70 5l-65 174h-206l-69 -174l71 -5v-5h-145zM166 193h199l-96 258z" />
    <glyph glyph-name="adieresis.sc" horiz-adv-x="585" 
d="M195 598l-18 4l-4 39l7 30l47 4l19 -4l4 -36l-7 -33zM355 598l-18 4l-4 39l7 30l47 4l19 -4l4 -36l-7 -33zM19 0v6l63 4l192 479l40 23l190 -502l62 -4v-6h-203v5l70 5l-65 174h-206l-69 -174l71 -5v-5h-145zM166 193h199l-96 258z" />
    <glyph glyph-name="agrave.sc" horiz-adv-x="585" 
d="M289 562l-132 148h72l65 -148h-5zM19 0v6l63 4l192 479l40 23l190 -502l62 -4v-6h-203v5l70 5l-65 174h-206l-69 -174l71 -5v-5h-145zM166 193h199l-96 258z" />
    <glyph glyph-name="amacron.sc" horiz-adv-x="585" 
d="M152 640v20h280v-20h-280zM19 0v6l63 4l192 479l40 23l190 -502l62 -4v-6h-203v5l70 5l-65 174h-206l-69 -174l71 -5v-5h-145zM166 193h199l-96 258z" />
    <glyph glyph-name="aogonek.sc" horiz-adv-x="585" 
d="M443 0l-62 -131v-43q0 -64 120 -64v-5q-85 0 -122.5 25t-37.5 76v34l92 112l-65 180h-206l-69 -174l71 -5v-5h-145v6l63 4l192 479l40 23l190 -502l62 -4v-6h-123zM166 193h199l-96 258z" />
    <glyph glyph-name="aring.sc" horiz-adv-x="585" 
d="M291 539q-41 0 -69.5 22.5t-28.5 68.5q0 21 5.5 35.5t21.5 25.5t25.5 15.5t35.5 14.5q7 3 10 4q41 0 70 -23t29 -68q0 -27 -13.5 -45.5t-29 -26.5t-45.5 -19q-7 -3 -11 -4zM291 555q33 0 53.5 21t20.5 56t-20.5 56t-53.5 21t-53 -21t-20 -56t20 -56t53 -21zM19 0v6l63 4
l192 479l40 23l190 -502l62 -4v-6h-203v5l70 5l-65 174h-206l-69 -174l71 -5v-5h-145zM166 193h199l-96 258z" />
    <glyph glyph-name="atilde.sc" horiz-adv-x="585" 
d="M362 578l-196 88l-27 -91h-5l24 95l63 22l196 -87l27 90h5l-24 -95zM19 0v6l63 4l192 479l40 23l190 -502l62 -4v-6h-203v5l70 5l-65 174h-206l-69 -174l71 -5v-5h-145zM166 193h199l-96 258z" />
    <glyph glyph-name="ae.sc" horiz-adv-x="786" 
d="M19 0v6l63 4l334 494h329v-129h-5l-51 120h-208v-248h115l32 84h6v-176h-6l-32 83h-115v-229h215l50 123h5v-132h-405v6l70 4v228h-167l-155 -228l71 -5v-5h-146zM254 247h162v242z" />
    <glyph glyph-name="aeacute.sc" horiz-adv-x="786" 
d="M542 562l65 148h72l-132 -148h-5zM19 0v6l63 4l334 494h329v-129h-5l-51 120h-208v-248h115l32 84h6v-176h-6l-32 83h-115v-229h215l50 123h5v-132h-405v6l70 4v228h-167l-155 -228l71 -5v-5h-146zM254 247h162v242z" />
    <glyph glyph-name="b.sc" horiz-adv-x="522" 
d="M38 0v6l70 4v484l-70 4v6h251q73 0 113.5 -32t40.5 -79q0 -53 -49 -88.5t-110 -37.5q94 -1 143 -35t49 -88q0 -69 -56.5 -106.5t-152.5 -37.5h-229zM173 270h91q54 0 82.5 34t28.5 88q0 48 -29 77t-81 29l-92 -4v-224zM254 6q153 0 153 133q0 59 -38.5 91t-99.5 32h-96
v-252z" />
    <glyph glyph-name="c.sc" horiz-adv-x="564" 
d="M319 -11q-113 0 -193 68t-80 186t76.5 189.5t203.5 82.5q102 0 183 -38v-114h-5l-43 95q-55 48 -137 48q-87 0 -145.5 -65.5t-58.5 -186.5q0 -108 53.5 -181t161.5 -73q75 0 126 47l43 103h6v-115q-87 -35 -191 -46z" />
    <glyph glyph-name="cacute.sc" horiz-adv-x="564" 
d="M312 562l65 148h72l-132 -148h-5zM319 -11q-113 0 -193 68t-80 186t76.5 189.5t203.5 82.5q102 0 183 -38v-114h-5l-43 95q-55 48 -137 48q-87 0 -145.5 -65.5t-58.5 -186.5q0 -108 53.5 -181t161.5 -73q75 0 126 47l43 103h6v-115q-87 -35 -191 -46z" />
    <glyph glyph-name="ccaron.sc" horiz-adv-x="564" 
d="M186 712h5l124 -80l124 80h5l-127 -150h-4zM319 -11q-113 0 -193 68t-80 186t76.5 189.5t203.5 82.5q102 0 183 -38v-114h-5l-43 95q-55 48 -137 48q-87 0 -145.5 -65.5t-58.5 -186.5q0 -108 53.5 -181t161.5 -73q75 0 126 47l43 103h6v-115q-87 -35 -191 -46z" />
    <glyph glyph-name="ccedilla.sc" horiz-adv-x="564" 
d="M319 -11h-16l-26 -42q34 -2 58.5 -21.5t24.5 -51.5q0 -58 -76 -89l-68 -26h-23l21 30h74q35 23 35 71q0 54 -70 60l44 70q-106 6 -178.5 73.5t-72.5 179.5q0 118 76.5 189.5t203.5 82.5q102 0 183 -38v-114h-5l-43 95q-55 48 -137 48q-87 0 -145.5 -65.5t-58.5 -186.5
q0 -108 53.5 -181t161.5 -73q75 0 126 47l43 103h6v-115q-87 -35 -191 -46z" />
    <glyph glyph-name="ccircumflex.sc" horiz-adv-x="564" 
d="M186 562l127 150h4l127 -150h-5l-124 80l-124 -80h-5zM319 -11q-113 0 -193 68t-80 186t76.5 189.5t203.5 82.5q102 0 183 -38v-114h-5l-43 95q-55 48 -137 48q-87 0 -145.5 -65.5t-58.5 -186.5q0 -108 53.5 -181t161.5 -73q75 0 126 47l43 103h6v-115q-87 -35 -191 -46z
" />
    <glyph glyph-name="cdotaccent.sc" horiz-adv-x="539" 
d="M295 572l-17 3l-3 35l6 27l46 4l18 -4l3 -32l-6 -30zM308 -11q-113 0 -193 68t-80 186t77 189.5t203 82.5q101 0 184 -37v-116h-5l-44 97q-54 47 -137 47q-87 0 -145 -65.5t-58 -186.5q0 -108 53.5 -181t160.5 -73q74 0 126 46l44 104h5v-115q-91 -37 -191 -46z" />
    <glyph glyph-name="d.sc" horiz-adv-x="605" 
d="M38 0v6l78 4v484l-78 4v6h249q124 0 198 -64t74 -179t-71 -188t-200 -73h-250zM290 6q88 0 142 69t54 183q0 112 -51 176t-157 64l-97 -4v-484z" />
    <glyph glyph-name="eth.sc" horiz-adv-x="586" 
d="M287 504q124 0 198 -64t74 -179t-71 -188t-200 -73h-250v6l78 4v251h-85v5h85v228l-78 4v6h249zM290 6q88 0 142 69t54 183q0 112 -51 176t-157 64l-97 -4v-228h101v-5h-101v-251z" />
    <glyph glyph-name="dcaron.sc" horiz-adv-x="605" 
d="M142 712h5l124 -80l124 80h5l-127 -150h-4zM38 0v6l78 4v484l-78 4v6h249q124 0 198 -64t74 -179t-71 -188t-200 -73h-250zM290 6q88 0 142 69t54 183q0 112 -51 176t-157 64l-97 -4v-484z" />
    <glyph glyph-name="dcroat.sc" horiz-adv-x="586" 
d="M287 504q124 0 198 -64t74 -179t-71 -188t-200 -73h-250v6l78 4v251h-85v5h85v228l-78 4v6h249zM290 6q88 0 142 69t54 183q0 112 -51 176t-157 64l-97 -4v-228h101v-5h-101v-251z" />
    <glyph glyph-name="e.sc" horiz-adv-x="509" 
d="M38 0v6l70 4v484l-70 4v6h426v-129h-5l-51 120h-235v-227h141l33 84h6v-176h-6l-33 83h-141v-250h242l50 123h5v-132h-432z" />
    <glyph glyph-name="eacute.sc" horiz-adv-x="509" 
d="M268 562l65 148h72l-132 -148h-5zM38 0v6l70 4v484l-70 4v6h426v-129h-5l-51 120h-235v-227h141l33 84h6v-176h-6l-33 83h-141v-250h242l50 123h5v-132h-432z" />
    <glyph glyph-name="ebreve.sc" horiz-adv-x="509" 
d="M283 566q-58 0 -96 39.5t-54 92.5l4 3q18 -31 52 -56t81 -26q25 0 46.5 7.5t38.5 22.5t26 26t21 27l4 -3q-11 -32 -41.5 -68.5t-81.5 -64.5zM38 0v6l70 4v484l-70 4v6h426v-129h-5l-51 120h-235v-227h141l33 84h6v-176h-6l-33 83h-141v-250h242l50 123h5v-132h-432z" />
    <glyph glyph-name="ecaron.sc" horiz-adv-x="509" 
d="M142 712h5l124 -80l124 80h5l-127 -150h-4zM38 0v6l70 4v484l-70 4v6h426v-129h-5l-51 120h-235v-227h141l33 84h6v-176h-6l-33 83h-141v-250h242l50 123h5v-132h-432z" />
    <glyph glyph-name="ecircumflex.sc" horiz-adv-x="509" 
d="M142 562l127 150h4l127 -150h-5l-124 80l-124 -80h-5zM38 0v6l70 4v484l-70 4v6h426v-129h-5l-51 120h-235v-227h141l33 84h6v-176h-6l-33 83h-141v-250h242l50 123h5v-132h-432z" />
    <glyph glyph-name="edieresis.sc" horiz-adv-x="509" 
d="M174 598l-18 4l-4 39l7 30l47 4l19 -4l4 -36l-7 -33zM334 598l-18 4l-4 39l7 30l47 4l19 -4l4 -36l-7 -33zM38 0v6l70 4v484l-70 4v6h426v-129h-5l-51 120h-235v-227h141l33 84h6v-176h-6l-33 83h-141v-250h242l50 123h5v-132h-432z" />
    <glyph glyph-name="edotaccent.sc" horiz-adv-x="509" 
d="M252 598l-20 4l-4 43l7 34l53 4l21 -4l4 -40l-7 -37zM38 0v6l70 4v484l-70 4v6h426v-129h-5l-51 120h-235v-227h141l33 84h6v-176h-6l-33 83h-141v-250h242l50 123h5v-132h-432z" />
    <glyph glyph-name="egrave.sc" horiz-adv-x="509" 
d="M268 562l-132 148h72l65 -148h-5zM38 0v6l70 4v484l-70 4v6h426v-129h-5l-51 120h-235v-227h141l33 84h6v-176h-6l-33 83h-141v-250h242l50 123h5v-132h-432z" />
    <glyph glyph-name="emacron.sc" horiz-adv-x="509" 
d="M131 640v20h280v-20h-280zM38 0v6l70 4v484l-70 4v6h426v-129h-5l-51 120h-235v-227h141l33 84h6v-176h-6l-33 83h-141v-250h242l50 123h5v-132h-432z" />
    <glyph glyph-name="eogonek.sc" horiz-adv-x="509" 
d="M364 -171q0 -65 120 -65v-5q-85 0 -122.5 25t-37.5 77v34l87 105h-373v6l70 4v484l-70 4v6h426v-129h-5l-51 120h-235v-227h141l33 84h6v-176h-6l-33 83h-141v-250h242l50 123h5v-132h-45l-61 -128v-43z" />
    <glyph glyph-name="f.sc" horiz-adv-x="491" 
d="M38 0v6l70 4v484l-70 4v6h426v-133h-6l-51 124h-234v-237h141l33 94h6v-196h-6l-33 94h-141v-240l72 -4v-6h-207z" />
    <glyph glyph-name="g.sc" horiz-adv-x="603" 
d="M319 -11q-117 0 -195 68t-78 187q0 117 77.5 190t207.5 81q110 0 178 -38v-114h-5l-44 95q-52 48 -131 48q-97 0 -153 -72t-56 -187q0 -104 54 -177t152 -73q42 0 76 14t52 34v168l-66 6v6h181v-6l-50 -6v-179q-98 -45 -200 -45z" />
    <glyph glyph-name="gbreve.sc" horiz-adv-x="603" 
d="M341 566q-58 0 -96 39.5t-54 92.5l4 3q18 -31 52 -56t81 -26q25 0 46.5 7.5t38.5 22.5t26 26t21 27l4 -3q-11 -32 -41.5 -68.5t-81.5 -64.5zM319 -11q-117 0 -195 68t-78 187q0 117 77.5 190t207.5 81q110 0 178 -38v-114h-5l-44 95q-52 48 -131 48q-97 0 -153 -72
t-56 -187q0 -104 54 -177t152 -73q42 0 76 14t52 34v168l-66 6v6h181v-6l-50 -6v-179q-98 -45 -200 -45z" />
    <glyph glyph-name="gcircumflex.sc" horiz-adv-x="603" 
d="M200 562l127 150h4l127 -150h-5l-124 80l-124 -80h-5zM319 -11q-117 0 -195 68t-78 187q0 117 77.5 190t207.5 81q110 0 178 -38v-114h-5l-44 95q-52 48 -131 48q-97 0 -153 -72t-56 -187q0 -104 54 -177t152 -73q42 0 76 14t52 34v168l-66 6v6h181v-6l-50 -6v-179
q-98 -45 -200 -45z" />
    <glyph glyph-name="gcommaaccent.sc" horiz-adv-x="603" 
d="M319 -11q-117 0 -195 68t-78 187q0 117 77.5 190t207.5 81q110 0 178 -38v-114h-5l-44 95q-52 48 -131 48q-97 0 -153 -72t-56 -187q0 -104 54 -177t152 -73q42 0 76 14t52 34v168l-66 6v6h181v-6l-50 -6v-179q-98 -45 -200 -45zM289 -233l-5 2l46 107l-33 22v45h70v-70z
" />
    <glyph glyph-name="gdotaccent.sc" horiz-adv-x="603" 
d="M310 598l-20 4l-4 43l7 34l53 4l21 -4l4 -40l-7 -37zM319 -11q-117 0 -195 68t-78 187q0 117 77.5 190t207.5 81q110 0 178 -38v-114h-5l-44 95q-52 48 -131 48q-97 0 -153 -72t-56 -187q0 -104 54 -177t152 -73q42 0 76 14t52 34v168l-66 6v6h181v-6l-50 -6v-179
q-98 -45 -200 -45z" />
    <glyph glyph-name="h.sc" horiz-adv-x="623" 
d="M38 0v6l70 4v484l-70 4v6h206v-6l-71 -4v-227h276v227l-70 4v6h206v-6l-71 -4v-484l71 -4v-6h-206v6l70 4v247h-276v-247l71 -4v-6h-206z" />
    <glyph glyph-name="hbar.sc" horiz-adv-x="623" 
d="M585 498l-71 -4v-484l71 -4v-6h-206v6l70 4v247h-276v-247l71 -4v-6h-206v6l70 4v484l-70 4v6h206v-6l-71 -4v-140h276v140l-70 4v6h206v-6zM173 267h276v82h-276v-82z" />
    <glyph glyph-name="hcircumflex.sc" horiz-adv-x="623" 
d="M183 562l127 150h4l127 -150h-5l-124 80l-124 -80h-5zM38 0v6l70 4v484l-70 4v6h206v-6l-71 -4v-227h276v227l-70 4v6h206v-6l-71 -4v-484l71 -4v-6h-206v6l70 4v247h-276v-247l71 -4v-6h-206z" />
    <glyph glyph-name="i.sc" horiz-adv-x="282" 
d="M38 0v6l70 4v484l-70 4v6h206v-6l-71 -4v-484l71 -4v-6h-206z" />
    <glyph glyph-name="iacute.sc" horiz-adv-x="282" 
d="M138 562l65 148h72l-132 -148h-5zM38 0v6l70 4v484l-70 4v6h206v-6l-71 -4v-484l71 -4v-6h-206z" />
    <glyph glyph-name="ibreve.sc" horiz-adv-x="282" 
d="M153 566q-58 0 -96 39.5t-54 92.5l4 3q18 -31 52 -56t81 -26q25 0 46.5 7.5t38.5 22.5t26 26t21 27l4 -3q-11 -32 -41.5 -68.5t-81.5 -64.5zM38 0v6l70 4v484l-70 4v6h206v-6l-71 -4v-484l71 -4v-6h-206z" />
    <glyph glyph-name="icircumflex.sc" horiz-adv-x="282" 
d="M12 562l127 150h4l127 -150h-5l-124 80l-124 -80h-5zM38 0v6l70 4v484l-70 4v6h206v-6l-71 -4v-484l71 -4v-6h-206z" />
    <glyph glyph-name="idieresis.sc" horiz-adv-x="282" 
d="M44 598l-18 4l-4 39l7 30l47 4l19 -4l4 -36l-7 -33zM204 598l-18 4l-4 39l7 30l47 4l19 -4l4 -36l-7 -33zM38 0v6l70 4v484l-70 4v6h206v-6l-71 -4v-484l71 -4v-6h-206z" />
    <glyph glyph-name="i.sc.loclTRK" horiz-adv-x="282" 
d="M122 598l-20 4l-4 43l7 34l53 4l21 -4l4 -40l-7 -37zM38 0v6l70 4v484l-70 4v6h206v-6l-71 -4v-484l71 -4v-6h-206z" />
    <glyph glyph-name="igrave.sc" horiz-adv-x="282" 
d="M138 562l-132 148h72l65 -148h-5zM38 0v6l70 4v484l-70 4v6h206v-6l-71 -4v-484l71 -4v-6h-206z" />
    <glyph glyph-name="ij.sc" horiz-adv-x="568" 
d="M38 0v6l70 4v484l-70 4v6h206v-6l-71 -4v-484l71 -4v-6h-206zM297 -126v59h93l3 15q5 27 5 116v430l-83 4v6h219v-6l-71 -4v-423q0 -76 -41 -120l-74 -77h-51z" />
    <glyph glyph-name="imacron.sc" horiz-adv-x="282" 
d="M1 640v20h280v-20h-280zM38 0v6l70 4v484l-70 4v6h206v-6l-71 -4v-484l71 -4v-6h-206z" />
    <glyph glyph-name="iogonek.sc" horiz-adv-x="282" 
d="M244 498l-71 -4v-484l71 -4v-6h-94l-61 -128v-43q0 -65 120 -65v-5q-85 0 -122.5 25t-37.5 77v34l87 105h-98v6l70 4v484l-70 4v6h206v-6z" />
    <glyph glyph-name="itilde.sc" horiz-adv-x="282" 
d="M211 578l-196 88l-27 -91h-5l24 95l63 22l196 -87l27 90h5l-24 -95zM38 0v6l70 4v484l-70 4v6h206v-6l-71 -4v-484l71 -4v-6h-206z" />
    <glyph glyph-name="j.sc" horiz-adv-x="286" 
d="M15 -126v59h93l3 15q5 27 5 116v430l-83 4v6h219v-6l-71 -4v-423q0 -76 -41 -120l-74 -77h-51z" />
    <glyph glyph-name="uni006A0301.sc" horiz-adv-x="239" 
d="M131 562l65 148h72l-132 -148h-5zM-20 -236v63h114l2 12q9 58 9 98v509l-73 -19l-1 4l129 39h5v-518q0 -37 -26 -72l-88 -116h-71z" />
    <glyph glyph-name="jcircumflex.sc" horiz-adv-x="286" 
d="M21 562l127 150h4l127 -150h-5l-124 80l-124 -80h-5zM15 -126v59h93l3 15q5 27 5 116v430l-83 4v6h219v-6l-71 -4v-423q0 -76 -41 -120l-74 -77h-51z" />
    <glyph glyph-name="k.sc" horiz-adv-x="573" 
d="M496 10l54 -4v-6h-129l-248 254v-244l71 -4v-6h-206v6l70 4v484l-70 4v6h206v-6l-71 -4v-229l278 229l-72 5v5h149v-5l-65 -5l-276 -230l51 13z" />
    <glyph glyph-name="kcommaaccent.sc" horiz-adv-x="573" 
d="M496 10l54 -4v-6h-129l-248 254v-244l71 -4v-6h-206v6l70 4v484l-70 4v6h206v-6l-71 -4v-229l278 229l-72 5v5h149v-5l-65 -5l-276 -230l51 13zM257 -102v45h70v-70l-78 -106l-5 2l46 107z" />
    <glyph glyph-name="l.sc" horiz-adv-x="471" 
d="M38 0v6l70 4v484l-70 4v6h206v-6l-71 -4v-484h219l51 126h5v-136h-410z" />
    <glyph glyph-name="lacute.sc" horiz-adv-x="471" 
d="M226 562l65 148h72l-132 -148h-5zM38 0v6l70 4v484l-70 4v6h206v-6l-71 -4v-484h219l51 126h5v-136h-410z" />
    <glyph glyph-name="lcaron.sc" horiz-adv-x="471" 
d="M329 286l-3 1q11 28 30.5 80t23.5 62l-33 -1l-21 3l-3 43l6 34l54 4l23 -4l4 -40l-8 -37zM38 0v6l70 4v484l-70 4v6h206v-6l-71 -4v-484h219l51 126h5v-136h-410z" />
    <glyph glyph-name="lcommaaccent.sc" horiz-adv-x="471" 
d="M38 0v6l70 4v484l-70 4v6h206v-6l-71 -4v-484h219l51 126h5v-136h-410zM199 -233l-5 2l46 107l-33 22v45h70v-70z" />
    <glyph glyph-name="ldot.sc" horiz-adv-x="456" 
d="M38 0v6l70 4v484l-70 4v6h206v-6l-71 -4v-484h219l51 126h5v-136h-410zM301 232l-22 4l-4 47l7 38l59 4l23 -4l4 -44l-7 -41z" />
    <glyph glyph-name="lslash.sc" horiz-adv-x="456" 
d="M443 136h5v-136h-410v6l70 4v247l-76 -35v8l76 35v229l-70 4v6h206v-6l-71 -4v-199l128 59v-8l-128 -59v-277h219z" />
    <glyph glyph-name="m.sc" horiz-adv-x="743" 
d="M38 0v6l70 4v484l-70 4v6h141l201 -441l185 441h140v-6l-71 -4v-484l71 -4v-6h-197v6l61 4v476l-203 -490h-33l-215 492v-478l64 -4v-6h-144z" />
    <glyph glyph-name="n.sc" horiz-adv-x="584" 
d="M462 -4l-344 490v-476l71 -4v-6h-151v6l70 4v484l-70 4v6h145l298 -415v405l-70 4v6h150v-6l-71 -4v-498h-28z" />
    <glyph glyph-name="nacute.sc" horiz-adv-x="584" 
d="M289 606l65 148h72l-132 -148h-5zM462 -4l-344 490v-476l71 -4v-6h-151v6l70 4v484l-70 4v6h145l298 -415v405l-70 4v6h150v-6l-71 -4v-498h-28z" />
    <glyph glyph-name="ncaron.sc" horiz-adv-x="584" 
d="M163 756h5l124 -80l124 80h5l-127 -150h-4zM462 -4l-344 490v-476l71 -4v-6h-151v6l70 4v484l-70 4v6h145l298 -415v405l-70 4v6h150v-6l-71 -4v-498h-28z" />
    <glyph glyph-name="ncommaaccent.sc" horiz-adv-x="584" 
d="M462 -4l-344 490v-476l71 -4v-6h-151v6l70 4v484l-70 4v6h145l298 -415v405l-70 4v6h150v-6l-71 -4v-498h-28zM255 -233l-5 2l46 107l-33 22v45h70v-70z" />
    <glyph glyph-name="eng.sc" horiz-adv-x="578" 
d="M561 504v-6l-71 -4v-498l-114 -165h-68v55h55l79 87l42 23h-22l-344 490v-476l71 -4v-6h-151v6l70 4v484l-70 4v6h145l298 -415v405l-70 4v6h150z" />
    <glyph glyph-name="ntilde.sc" horiz-adv-x="584" 
d="M362 622l-196 88l-27 -91h-5l24 95l63 22l196 -87l27 90h5l-24 -95zM462 -4l-344 490v-476l71 -4v-6h-151v6l70 4v484l-70 4v6h145l298 -415v405l-70 4v6h150v-6l-71 -4v-498h-28z" />
    <glyph glyph-name="o.sc" horiz-adv-x="633" 
d="M308 -11q-114 0 -188 72.5t-74 180.5q0 116 69.5 185.5t208.5 87.5q114 0 188.5 -72.5t74.5 -180.5q0 -237 -279 -273zM333 3q82 0 131 67t49 171q0 112 -60.5 186t-152.5 74q-82 0 -131 -67t-49 -171q0 -112 60.5 -186t152.5 -74z" />
    <glyph glyph-name="oacute.sc" horiz-adv-x="633" 
d="M310 562l65 148h72l-132 -148h-5zM308 -11q-114 0 -188 72.5t-74 180.5q0 116 69.5 185.5t208.5 87.5q114 0 188.5 -72.5t74.5 -180.5q0 -237 -279 -273zM333 3q82 0 131 67t49 171q0 112 -60.5 186t-152.5 74q-82 0 -131 -67t-49 -171q0 -112 60.5 -186t152.5 -74z" />
    <glyph glyph-name="obreve.sc" horiz-adv-x="633" 
d="M325 566q-58 0 -96 39.5t-54 92.5l4 3q18 -31 52 -56t81 -26q25 0 46.5 7.5t38.5 22.5t26 26t21 27l4 -3q-11 -32 -41.5 -68.5t-81.5 -64.5zM308 -11q-114 0 -188 72.5t-74 180.5q0 116 69.5 185.5t208.5 87.5q114 0 188.5 -72.5t74.5 -180.5q0 -237 -279 -273zM333 3
q82 0 131 67t49 171q0 112 -60.5 186t-152.5 74q-82 0 -131 -67t-49 -171q0 -112 60.5 -186t152.5 -74z" />
    <glyph glyph-name="ocircumflex.sc" horiz-adv-x="633" 
d="M184 562l127 150h4l127 -150h-5l-124 80l-124 -80h-5zM308 -11q-114 0 -188 72.5t-74 180.5q0 116 69.5 185.5t208.5 87.5q114 0 188.5 -72.5t74.5 -180.5q0 -237 -279 -273zM333 3q82 0 131 67t49 171q0 112 -60.5 186t-152.5 74q-82 0 -131 -67t-49 -171
q0 -112 60.5 -186t152.5 -74z" />
    <glyph glyph-name="odieresis.sc" horiz-adv-x="633" 
d="M216 598l-18 4l-4 39l7 30l47 4l19 -4l4 -36l-7 -33zM376 598l-18 4l-4 39l7 30l47 4l19 -4l4 -36l-7 -33zM308 -11q-114 0 -188 72.5t-74 180.5q0 116 69.5 185.5t208.5 87.5q114 0 188.5 -72.5t74.5 -180.5q0 -237 -279 -273zM333 3q82 0 131 67t49 171
q0 112 -60.5 186t-152.5 74q-82 0 -131 -67t-49 -171q0 -112 60.5 -186t152.5 -74z" />
    <glyph glyph-name="ograve.sc" horiz-adv-x="633" 
d="M310 562l-132 148h72l65 -148h-5zM308 -11q-114 0 -188 72.5t-74 180.5q0 116 69.5 185.5t208.5 87.5q114 0 188.5 -72.5t74.5 -180.5q0 -237 -279 -273zM333 3q82 0 131 67t49 171q0 112 -60.5 186t-152.5 74q-82 0 -131 -67t-49 -171q0 -112 60.5 -186t152.5 -74z" />
    </font>
</defs>
</svg>
