<svg width="20" height="20" viewBox="0 0 20 20" fill="none" xmlns="http://www.w3.org/2000/svg">
<mask id="mask0_86_3572" style="mask-type:alpha" maskUnits="userSpaceOnUse" x="0" y="0" width="20" height="20">
<rect width="20" height="20" fill="#D9D9D9"/>
</mask>
<g mask="url(#mask0_86_3572)">
<path d="M9.89572 16.6667C9.95128 16.6667 10.0068 16.6528 10.0624 16.625C10.1179 16.5972 10.1596 16.5694 10.1874 16.5417L17.0207 9.70834C17.1874 9.54167 17.3089 9.35417 17.3853 9.14584C17.4617 8.93751 17.4999 8.72917 17.4999 8.52084C17.4999 8.29862 17.4617 8.08681 17.3853 7.88542C17.3089 7.68403 17.1874 7.50695 17.0207 7.35417L13.4791 3.81251C13.3263 3.64584 13.1492 3.52431 12.9478 3.44792C12.7464 3.37153 12.5346 3.33334 12.3124 3.33334C12.1041 3.33334 11.8957 3.37153 11.6874 3.44792C11.4791 3.52431 11.2916 3.64584 11.1249 3.81251L10.8957 4.04167L12.4374 5.60417C12.6457 5.79862 12.7985 6.02084 12.8957 6.27084C12.9929 6.52084 13.0416 6.78473 13.0416 7.0625C13.0416 7.64584 12.8436 8.13542 12.4478 8.53126C12.052 8.92709 11.5624 9.125 10.9791 9.125C10.7013 9.125 10.4339 9.07639 10.177 8.97917C9.92003 8.88195 9.69433 8.73612 9.49989 8.54167L7.93739 7.00001L4.29156 10.6458C4.24989 10.6875 4.21864 10.7326 4.19781 10.7813C4.17697 10.8299 4.16656 10.8819 4.16656 10.9375C4.16656 11.0486 4.20822 11.1493 4.29156 11.2396C4.37489 11.3299 4.47211 11.375 4.58322 11.375C4.63878 11.375 4.69433 11.3611 4.74989 11.3333C4.80544 11.3056 4.84711 11.2778 4.87489 11.25L7.12489 9.00001C7.27767 8.84723 7.46864 8.76737 7.69781 8.76042C7.92697 8.75348 8.12489 8.83334 8.29156 9.00001C8.44433 9.15278 8.52072 9.34723 8.52072 9.58334C8.52072 9.81945 8.44433 10.0139 8.29156 10.1667L6.06239 12.4167C6.02072 12.4583 5.98947 12.5035 5.96864 12.5521C5.94781 12.6007 5.93739 12.6528 5.93739 12.7083C5.93739 12.8194 5.97906 12.9167 6.06239 13C6.14572 13.0833 6.24294 13.125 6.35405 13.125C6.40961 13.125 6.46517 13.1111 6.52072 13.0833C6.57628 13.0556 6.61794 13.0278 6.64572 13L8.89572 10.7708C9.0485 10.6181 9.23947 10.5382 9.46864 10.5313C9.69781 10.5243 9.89572 10.6042 10.0624 10.7708C10.2152 10.9236 10.2916 11.1181 10.2916 11.3542C10.2916 11.5903 10.2152 11.7847 10.0624 11.9375L7.83322 14.1875C7.79156 14.2153 7.7603 14.2569 7.73947 14.3125C7.71864 14.3681 7.70822 14.4236 7.70822 14.4792C7.70822 14.5903 7.74989 14.6875 7.83322 14.7708C7.91656 14.8542 8.01378 14.8958 8.12489 14.8958C8.18044 14.8958 8.23253 14.8854 8.28114 14.8646C8.32975 14.8438 8.37489 14.8125 8.41655 14.7708L10.6666 12.5417C10.8193 12.3889 11.0103 12.309 11.2395 12.3021C11.4686 12.2951 11.6666 12.375 11.8332 12.5417C11.986 12.6944 12.0624 12.8889 12.0624 13.125C12.0624 13.3611 11.986 13.5556 11.8332 13.7083L9.58322 15.9583C9.54156 16 9.51031 16.0451 9.48947 16.0938C9.46864 16.1424 9.45822 16.1944 9.45822 16.25C9.45822 16.3611 9.50336 16.4583 9.59364 16.5417C9.68392 16.625 9.78461 16.6667 9.89572 16.6667ZM9.87489 18.3333C9.361 18.3333 8.90614 18.1632 8.51031 17.8229C8.11447 17.4826 7.88183 17.0556 7.81239 16.5417C7.34017 16.4722 6.94433 16.2778 6.62489 15.9583C6.30544 15.6389 6.111 15.2431 6.04156 14.7708C5.56933 14.7014 5.17697 14.5035 4.86447 14.1771C4.55197 13.8507 4.361 13.4583 4.29156 13C3.76378 12.9306 3.33322 12.7014 2.99989 12.3125C2.66656 11.9236 2.49989 11.4653 2.49989 10.9375C2.49989 10.6597 2.55197 10.3924 2.65614 10.1354C2.76031 9.87848 2.90961 9.65278 3.10406 9.45834L6.74989 5.8125C7.06933 5.49306 7.46169 5.33334 7.92697 5.33334C8.39225 5.33334 8.78461 5.49306 9.10406 5.8125L10.6666 7.375C10.6943 7.41667 10.736 7.44792 10.7916 7.46876C10.8471 7.48959 10.9027 7.5 10.9582 7.5C11.0832 7.5 11.1874 7.46181 11.2707 7.38542C11.3541 7.30903 11.3957 7.20834 11.3957 7.08334C11.3957 7.02778 11.3853 6.97223 11.3645 6.91667C11.3436 6.86112 11.3124 6.81945 11.2707 6.79167L8.29156 3.81251C8.13878 3.64584 7.96169 3.52431 7.76031 3.44792C7.55892 3.37153 7.34711 3.33334 7.12489 3.33334C6.91656 3.33334 6.70822 3.37153 6.49989 3.44792C6.29156 3.52431 6.10406 3.64584 5.93739 3.81251L2.99989 6.77084C2.80544 6.96528 2.66656 7.19445 2.58322 7.45834C2.49989 7.72223 2.47906 7.98612 2.52072 8.25001C2.56239 8.48612 2.51378 8.69445 2.37489 8.87501C2.236 9.05556 2.0485 9.15973 1.81239 9.18751C1.57628 9.21528 1.36794 9.1632 1.18739 9.03126C1.00683 8.89931 0.902666 8.71528 0.874888 8.47917C0.791555 7.95139 0.82975 7.43403 0.989472 6.92709C1.14919 6.42014 1.4235 5.97223 1.81239 5.58334L4.74989 2.64584C5.08322 2.32639 5.45475 2.08334 5.86447 1.91667C6.27419 1.75001 6.69433 1.66667 7.12489 1.66667C7.55544 1.66667 7.97558 1.75001 8.38531 1.91667C8.79503 2.08334 9.15961 2.32639 9.47906 2.64584L9.70822 2.87501L9.93739 2.64584C10.2707 2.32639 10.6422 2.08334 11.052 1.91667C11.4617 1.75001 11.8818 1.66667 12.3124 1.66667C12.7429 1.66667 13.1631 1.75001 13.5728 1.91667C13.9825 2.08334 14.3471 2.32639 14.6666 2.64584L18.1874 6.16667C18.5068 6.48612 18.7499 6.85417 18.9166 7.27084C19.0832 7.6875 19.1666 8.11112 19.1666 8.54167C19.1666 8.97223 19.0832 9.39237 18.9166 9.80209C18.7499 10.2118 18.5068 10.5764 18.1874 10.8958L11.3541 17.7083C11.1596 17.9028 10.9339 18.0556 10.677 18.1667C10.42 18.2778 10.1527 18.3333 9.87489 18.3333Z" fill="#EAEEED"/>
</g>
</svg>
