<svg width="20" height="20" viewBox="0 0 20 20" fill="none" xmlns="http://www.w3.org/2000/svg">
<mask id="mask0_56_2205" style="mask-type:alpha" maskUnits="userSpaceOnUse" x="0" y="0" width="20" height="20">
<rect width="20" height="20" transform="matrix(-1 0 0 1 20 0)" fill="#D9D9D9"/>
</mask>
<g mask="url(#mask0_56_2205)">
<path d="M13.459 10.8334L11.084 13.2084C10.9173 13.3751 10.8375 13.5695 10.8444 13.7918C10.8513 14.014 10.9312 14.2084 11.084 14.3751C11.2507 14.5418 11.4486 14.6286 11.6777 14.6355C11.9069 14.6425 12.1048 14.5626 12.2715 14.3959L16.084 10.5834C16.2507 10.4168 16.334 10.2223 16.334 10.0001C16.334 9.77787 16.2507 9.58343 16.084 9.41676L12.2715 5.60426C12.1048 5.43759 11.9069 5.35773 11.6777 5.36467C11.4486 5.37162 11.2507 5.45842 11.084 5.62509C10.9312 5.79176 10.8513 5.9862 10.8444 6.20842C10.8375 6.43065 10.9173 6.62509 11.084 6.79176L13.459 9.16676H4.16732C3.93121 9.16676 3.73329 9.24662 3.57357 9.40634C3.41385 9.56606 3.33398 9.76398 3.33398 10.0001C3.33398 10.2362 3.41385 10.4341 3.57357 10.5938C3.73329 10.7536 3.93121 10.8334 4.16732 10.8334H13.459Z" fill="white"/>
</g>
</svg>
