<svg width="21" height="20" viewBox="0 0 21 20" fill="none" xmlns="http://www.w3.org/2000/svg">
<mask id="mask0_679_29" style="mask-type:alpha" maskUnits="userSpaceOnUse" x="0" y="0" width="21" height="20">
<rect x="0.5" width="20" height="20" fill="#D9D9D9"/>
</mask>
<g mask="url(#mask0_679_29)">
<path d="M3.83377 15.8334V9.68754L3.00043 10.3334C2.80599 10.4723 2.59766 10.5278 2.37543 10.5C2.15321 10.4723 1.97266 10.3612 1.83377 10.1667C1.69488 9.97226 1.63932 9.76393 1.6671 9.54171C1.69488 9.31948 1.79905 9.13893 1.9796 9.00004L3.83377 7.58337V5.83337C3.83377 5.59726 3.91363 5.39935 4.07335 5.23962C4.23307 5.0799 4.43099 5.00004 4.6671 5.00004C4.90321 5.00004 5.10113 5.0799 5.26085 5.23962C5.42057 5.39935 5.50043 5.59726 5.50043 5.83337V6.31254L9.4796 3.27087C9.78516 3.03476 10.1254 2.91671 10.5004 2.91671C10.8754 2.91671 11.2157 3.03476 11.5213 3.27087L19.0213 9.00004C19.2018 9.13893 19.306 9.31948 19.3338 9.54171C19.3615 9.76393 19.306 9.97226 19.1671 10.1667C19.0282 10.3473 18.8477 10.4514 18.6254 10.4792C18.4032 10.507 18.2018 10.4514 18.0213 10.3125L17.1671 9.68754V15.8334C17.1671 16.2917 17.0039 16.6841 16.6775 17.0105C16.3511 17.3368 15.9588 17.5 15.5004 17.5H5.50043C5.0421 17.5 4.64974 17.3368 4.32335 17.0105C3.99696 16.6841 3.83377 16.2917 3.83377 15.8334ZM5.50043 15.8334H9.6671V13.3334C9.6671 13.0973 9.74696 12.8993 9.90668 12.7396C10.0664 12.5799 10.2643 12.5 10.5004 12.5C10.7365 12.5 10.9345 12.5799 11.0942 12.7396C11.2539 12.8993 11.3338 13.0973 11.3338 13.3334V15.8334H15.5004V8.41671L10.5004 4.60421L5.50043 8.41671V15.8334ZM4.9171 4.16671C4.59766 4.16671 4.35113 4.03476 4.17752 3.77087C4.00391 3.50699 3.99349 3.23615 4.14627 2.95837C4.38238 2.5556 4.69141 2.23962 5.07335 2.01046C5.4553 1.78129 5.87543 1.66671 6.33377 1.66671C6.48654 1.66671 6.63238 1.62851 6.77127 1.55212C6.91016 1.47574 7.01432 1.3681 7.08377 1.22921C7.15321 1.10421 7.24696 1.00699 7.36502 0.937541C7.48307 0.868096 7.61849 0.833374 7.77127 0.833374C8.09071 0.833374 8.33377 0.965318 8.50043 1.22921C8.6671 1.4931 8.67405 1.76393 8.52127 2.04171C8.28516 2.44449 7.97613 2.76046 7.59418 2.98962C7.21224 3.21879 6.7921 3.33337 6.33377 3.33337C6.18099 3.33337 6.03516 3.3681 5.89627 3.43754C5.75738 3.50699 5.65321 3.6181 5.58377 3.77087C5.51432 3.89587 5.42404 3.9931 5.31293 4.06254C5.20182 4.13199 5.06988 4.16671 4.9171 4.16671Z" fill="#413936"/>
</g>
</svg>
