<svg width="33" height="33" viewBox="0 0 33 33" fill="none" xmlns="http://www.w3.org/2000/svg">
<path fill-rule="evenodd" clip-rule="evenodd" d="M30.4691 32.3052C30.9765 32.8126 31.7992 32.8126 32.3067 32.3052C32.8141 31.7978 32.8141 30.9751 32.3067 30.4676L18.5251 16.6861L32.3069 2.90434C32.8143 2.39691 32.8143 1.5742 32.3069 1.06677C31.7994 0.559342 30.9767 0.559342 30.4693 1.06677L16.6875 14.8485L2.90564 1.06661C2.39821 0.559178 1.5755 0.559178 1.06807 1.06661C0.560643 1.57404 0.560643 2.39674 1.06807 2.90417L14.85 16.6861L1.06827 30.4678C0.560838 30.9752 0.560838 31.7979 1.06827 32.3054C1.5757 32.8128 2.3984 32.8128 2.90583 32.3054L16.6875 18.5236L30.4691 32.3052Z" fill="#F6F6F6"/>
</svg>
