<svg width="18" height="18" viewBox="0 0 18 18" fill="none" xmlns="http://www.w3.org/2000/svg">
<mask id="mask0_386_903" style="mask-type:alpha" maskUnits="userSpaceOnUse" x="0" y="0" width="18" height="18">
<rect width="18" height="18" transform="matrix(-1 0 0 1 18 0)" fill="#D9D9D9"/>
</mask>
<g mask="url(#mask0_386_903)">
<path d="M8.15919 9.07371L4.45606 5.26087C4.28865 5.0885 4.09284 5.00347 3.86863 5.00579C3.64442 5.00791 3.44505 5.09294 3.27051 5.26087C3.09617 5.44038 3.00609 5.64672 3.00028 5.87989C2.99447 6.11306 3.07883 6.31939 3.25336 6.4989L8.29107 11.6861C8.49448 11.8954 8.73171 12 9.00279 12C9.27387 12 9.51111 11.8954 9.71451 11.6861L14.7522 6.4989C14.9194 6.32673 15.002 6.12222 15 5.88539C14.9977 5.64855 14.9094 5.44038 14.7351 5.26087C14.5605 5.09294 14.3629 5.00608 14.1423 5.00029C13.9217 4.99431 13.7241 5.08117 13.5495 5.26087L9.84639 9.07371C8.95172 9.97724 9.00279 9.92566 8.15919 9.07371Z" fill="#2D1420"/>
</g>
</svg>
