<svg width="20" height="20" viewBox="0 0 20 20" fill="none" xmlns="http://www.w3.org/2000/svg">
<mask id="mask0_172_447" style="mask-type:alpha" maskUnits="userSpaceOnUse" x="0" y="0" width="20" height="20">
<rect width="20" height="20" fill="#D9D9D9"/>
</mask>
<g mask="url(#mask0_172_447)">
<path d="M8.08612 10.0048L13.7129 15.4311C13.9043 15.6157 13.9968 15.8311 13.9904 16.0771C13.9841 16.3232 13.8852 16.5386 13.6938 16.7231C13.5024 16.9077 13.2791 17 13.0239 17C12.7687 17 12.5455 16.9077 12.3541 16.7231L6.45933 11.0568C6.30622 10.9092 6.19139 10.743 6.11483 10.5585C6.03828 10.3739 6 10.1893 6 10.0048C6 9.82019 6.03828 9.63562 6.11483 9.45105C6.19139 9.26648 6.30622 9.10037 6.45933 8.95271L12.3541 3.26793C12.5455 3.08335 12.7719 2.99415 13.0335 3.0003C13.2951 3.00645 13.5215 3.10181 13.7129 3.28638C13.9043 3.47095 14 3.68629 14 3.93238C14 4.17848 13.9043 4.39381 13.7129 4.57838L8.08612 10.0048Z" fill="#413936"/>
</g>
</svg>
