<svg width="21" height="20" viewBox="0 0 21 20" fill="none" xmlns="http://www.w3.org/2000/svg">
<mask id="mask0_679_35" style="mask-type:alpha" maskUnits="userSpaceOnUse" x="0" y="0" width="21" height="20">
<rect x="0.5" width="20" height="20" fill="#D9D9D9"/>
</mask>
<g mask="url(#mask0_679_35)">
<path d="M4.66667 18.3334C4.20833 18.3334 3.81597 18.1702 3.48958 17.8438C3.16319 17.5174 3 17.125 3 16.6667V5.00002C3 4.54169 3.16319 4.14933 3.48958 3.82294C3.81597 3.49655 4.20833 3.33335 4.66667 3.33335H5.5V2.50002C5.5 2.26391 5.57986 2.06599 5.73958 1.90627C5.89931 1.74655 6.09722 1.66669 6.33333 1.66669C6.56944 1.66669 6.76736 1.74655 6.92708 1.90627C7.08681 2.06599 7.16667 2.26391 7.16667 2.50002V3.33335H13.8333V2.50002C13.8333 2.26391 13.9132 2.06599 14.0729 1.90627C14.2326 1.74655 14.4306 1.66669 14.6667 1.66669C14.9028 1.66669 15.1007 1.74655 15.2604 1.90627C15.4201 2.06599 15.5 2.26391 15.5 2.50002V3.33335H16.3333C16.7917 3.33335 17.184 3.49655 17.5104 3.82294C17.8368 4.14933 18 4.54169 18 5.00002V16.6667C18 17.125 17.8368 17.5174 17.5104 17.8438C17.184 18.1702 16.7917 18.3334 16.3333 18.3334H4.66667ZM4.66667 16.6667H16.3333V8.33335H4.66667V16.6667ZM4.66667 6.66669H16.3333V5.00002H4.66667V6.66669ZM10.5 11.6667C10.2639 11.6667 10.066 11.5868 9.90625 11.4271C9.74653 11.2674 9.66667 11.0695 9.66667 10.8334C9.66667 10.5972 9.74653 10.3993 9.90625 10.2396C10.066 10.0799 10.2639 10 10.5 10C10.7361 10 10.934 10.0799 11.0938 10.2396C11.2535 10.3993 11.3333 10.5972 11.3333 10.8334C11.3333 11.0695 11.2535 11.2674 11.0938 11.4271C10.934 11.5868 10.7361 11.6667 10.5 11.6667ZM7.16667 11.6667C6.93056 11.6667 6.73264 11.5868 6.57292 11.4271C6.41319 11.2674 6.33333 11.0695 6.33333 10.8334C6.33333 10.5972 6.41319 10.3993 6.57292 10.2396C6.73264 10.0799 6.93056 10 7.16667 10C7.40278 10 7.60069 10.0799 7.76042 10.2396C7.92014 10.3993 8 10.5972 8 10.8334C8 11.0695 7.92014 11.2674 7.76042 11.4271C7.60069 11.5868 7.40278 11.6667 7.16667 11.6667ZM13.8333 11.6667C13.5972 11.6667 13.3993 11.5868 13.2396 11.4271C13.0799 11.2674 13 11.0695 13 10.8334C13 10.5972 13.0799 10.3993 13.2396 10.2396C13.3993 10.0799 13.5972 10 13.8333 10C14.0694 10 14.2674 10.0799 14.4271 10.2396C14.5868 10.3993 14.6667 10.5972 14.6667 10.8334C14.6667 11.0695 14.5868 11.2674 14.4271 11.4271C14.2674 11.5868 14.0694 11.6667 13.8333 11.6667ZM10.5 15C10.2639 15 10.066 14.9202 9.90625 14.7604C9.74653 14.6007 9.66667 14.4028 9.66667 14.1667C9.66667 13.9306 9.74653 13.7327 9.90625 13.5729C10.066 13.4132 10.2639 13.3334 10.5 13.3334C10.7361 13.3334 10.934 13.4132 11.0938 13.5729C11.2535 13.7327 11.3333 13.9306 11.3333 14.1667C11.3333 14.4028 11.2535 14.6007 11.0938 14.7604C10.934 14.9202 10.7361 15 10.5 15ZM7.16667 15C6.93056 15 6.73264 14.9202 6.57292 14.7604C6.41319 14.6007 6.33333 14.4028 6.33333 14.1667C6.33333 13.9306 6.41319 13.7327 6.57292 13.5729C6.73264 13.4132 6.93056 13.3334 7.16667 13.3334C7.40278 13.3334 7.60069 13.4132 7.76042 13.5729C7.92014 13.7327 8 13.9306 8 14.1667C8 14.4028 7.92014 14.6007 7.76042 14.7604C7.60069 14.9202 7.40278 15 7.16667 15ZM13.8333 15C13.5972 15 13.3993 14.9202 13.2396 14.7604C13.0799 14.6007 13 14.4028 13 14.1667C13 13.9306 13.0799 13.7327 13.2396 13.5729C13.3993 13.4132 13.5972 13.3334 13.8333 13.3334C14.0694 13.3334 14.2674 13.4132 14.4271 13.5729C14.5868 13.7327 14.6667 13.9306 14.6667 14.1667C14.6667 14.4028 14.5868 14.6007 14.4271 14.7604C14.2674 14.9202 14.0694 15 13.8333 15Z" fill="#413936"/>
</g>
</svg>
