<svg width="21" height="20" viewBox="0 0 21 20" fill="none" xmlns="http://www.w3.org/2000/svg">
<mask id="mask0_679_32" style="mask-type:alpha" maskUnits="userSpaceOnUse" x="0" y="0" width="21" height="20">
<rect x="0.5" width="20" height="20" fill="#D9D9D9"/>
</mask>
<g mask="url(#mask0_679_32)">
<path d="M14.666 16.6667V3.33335C15.1243 3.33335 15.5167 3.49655 15.8431 3.82294C16.1695 4.14933 16.3327 4.54169 16.3327 5.00002V15C16.3327 15.4584 16.1695 15.8507 15.8431 16.1771C15.5167 16.5035 15.1243 16.6667 14.666 16.6667ZM3.83268 18.3334C3.37435 18.3334 2.98199 18.1702 2.6556 17.8438C2.32921 17.5174 2.16602 17.125 2.16602 16.6667V3.33335C2.16602 2.87502 2.32921 2.48266 2.6556 2.15627C2.98199 1.82988 3.37435 1.66669 3.83268 1.66669H11.3327C11.791 1.66669 12.1834 1.82988 12.5098 2.15627C12.8362 2.48266 12.9993 2.87502 12.9993 3.33335V16.6667C12.9993 17.125 12.8362 17.5174 12.5098 17.8438C12.1834 18.1702 11.791 18.3334 11.3327 18.3334H3.83268ZM17.9993 15V5.00002C18.3466 5.00002 18.6417 5.12155 18.8848 5.3646C19.1278 5.60766 19.2493 5.9028 19.2493 6.25002V13.75C19.2493 14.0972 19.1278 14.3924 18.8848 14.6354C18.6417 14.8785 18.3466 15 17.9993 15ZM3.83268 16.6667H11.3327V3.33335H3.83268V16.6667Z" fill="#413936"/>
</g>
</svg>
