<svg width="20" height="20" viewBox="0 0 20 20" fill="none" xmlns="http://www.w3.org/2000/svg">
<mask id="mask0_468_5" style="mask-type:alpha" maskUnits="userSpaceOnUse" x="0" y="0" width="20" height="20">
<rect width="20" height="20" transform="matrix(-1 0 0 1 20 0)" fill="#D9D9D9"/>
</mask>
<g mask="url(#mask0_468_5)">
<path d="M11.9139 10.0048L6.28708 15.4311C6.09569 15.6157 6.00319 15.8311 6.00957 16.0771C6.01595 16.3232 6.11483 16.5386 6.30622 16.7231C6.49761 16.9077 6.72089 17 6.97608 17C7.23126 17 7.45455 16.9077 7.64593 16.7231L13.5407 11.0568C13.6938 10.9092 13.8086 10.743 13.8852 10.5585C13.9617 10.3739 14 10.1893 14 10.0048C14 9.82019 13.9617 9.63562 13.8852 9.45105C13.8086 9.26648 13.6938 9.10037 13.5407 8.95271L7.64593 3.26793C7.45455 3.08335 7.22807 2.99415 6.96651 3.0003C6.70494 3.00645 6.47847 3.10181 6.28708 3.28638C6.09569 3.47095 6 3.68629 6 3.93238C6 4.17848 6.09569 4.39381 6.28708 4.57838L11.9139 10.0048Z" fill="#0A0A0A"/>
</g>
</svg>
