<svg width="24" height="24" viewBox="0 0 24 24" fill="none" xmlns="http://www.w3.org/2000/svg">
<mask id="mask0_44_519" style="mask-type:alpha" maskUnits="userSpaceOnUse" x="0" y="0" width="24" height="24">
<rect width="24" height="24" transform="matrix(-1 0 0 1 24 0)" fill="#D9D9D9"/>
</mask>
<g mask="url(#mask0_44_519)">
<path d="M11.1592 13.0737L7.45606 9.26087C7.28865 9.0885 7.09284 9.00347 6.86863 9.00579C6.64442 9.00791 6.44505 9.09294 6.27051 9.26087C6.09617 9.44038 6.00609 9.64672 6.00028 9.87989C5.99447 10.1131 6.07883 10.3194 6.25336 10.4989L11.2911 15.6861C11.4945 15.8954 11.7317 16 12.0028 16C12.2739 16 12.5111 15.8954 12.7145 15.6861L17.7522 10.4989C17.9194 10.3267 18.002 10.1222 18 9.88539C17.9977 9.64855 17.9094 9.44038 17.7351 9.26087C17.5605 9.09294 17.3629 9.00608 17.1423 9.00029C16.9217 8.99431 16.7241 9.08117 16.5495 9.26087L12.8464 13.0737C11.9517 13.9772 12.0028 13.9257 11.1592 13.0737Z" fill="#EAEEED"/>
</g>
</svg>
