<svg width="20" height="20" viewBox="0 0 20 20" fill="none" xmlns="http://www.w3.org/2000/svg">
<mask id="mask0_679_44" style="mask-type:alpha" maskUnits="userSpaceOnUse" x="0" y="0" width="20" height="20">
<rect width="20" height="20" fill="#D9D9D9"/>
</mask>
<g mask="url(#mask0_679_44)">
<path d="M5.00065 16.6667C4.76454 16.6667 4.56662 16.5868 4.4069 16.4271C4.24718 16.2674 4.16732 16.0694 4.16732 15.8333C4.16732 15.5972 4.24718 15.3993 4.4069 15.2396C4.56662 15.0799 4.76454 15 5.00065 15H5.50065L7.14648 9.52083C7.2576 9.15972 7.46246 8.87153 7.76107 8.65625C8.05968 8.44097 8.38954 8.33333 8.75065 8.33333H11.2507C11.6118 8.33333 11.9416 8.44097 12.2402 8.65625C12.5388 8.87153 12.7437 9.15972 12.8548 9.52083L14.5007 15H15.0007C15.2368 15 15.4347 15.0799 15.5944 15.2396C15.7541 15.3993 15.834 15.5972 15.834 15.8333C15.834 16.0694 15.7541 16.2674 15.5944 16.4271C15.4347 16.5868 15.2368 16.6667 15.0007 16.6667H5.00065ZM7.25065 15H12.7507L11.2507 10H8.75065L7.25065 15ZM9.16732 5.83333V3.33333C9.16732 3.09722 9.24718 2.89931 9.4069 2.73958C9.56662 2.57986 9.76454 2.5 10.0007 2.5C10.2368 2.5 10.4347 2.57986 10.5944 2.73958C10.7541 2.89931 10.834 3.09722 10.834 3.33333V5.83333C10.834 6.06944 10.7541 6.26736 10.5944 6.42708C10.4347 6.58681 10.2368 6.66667 10.0007 6.66667C9.76454 6.66667 9.56662 6.58681 9.4069 6.42708C9.24718 6.26736 9.16732 6.06944 9.16732 5.83333ZM13.5423 6.95833L15.3132 5.1875C15.4659 5.03472 15.6569 4.95486 15.8861 4.94792C16.1152 4.94097 16.3132 5.02083 16.4798 5.1875C16.6326 5.34028 16.709 5.53472 16.709 5.77083C16.709 6.00694 16.6326 6.20139 16.4798 6.35417L14.709 8.14583C14.5423 8.3125 14.3479 8.39583 14.1257 8.39583C13.9034 8.39583 13.709 8.3125 13.5423 8.14583C13.3757 7.97917 13.2923 7.78125 13.2923 7.55208C13.2923 7.32292 13.3757 7.125 13.5423 6.95833ZM15.834 10.8333H18.334C18.5701 10.8333 18.768 10.9132 18.9277 11.0729C19.0875 11.2326 19.1673 11.4306 19.1673 11.6667C19.1673 11.9028 19.0875 12.1007 18.9277 12.2604C18.768 12.4201 18.5701 12.5 18.334 12.5H15.834C15.5979 12.5 15.4 12.4201 15.2402 12.2604C15.0805 12.1007 15.0007 11.9028 15.0007 11.6667C15.0007 11.4306 15.0805 11.2326 15.2402 11.0729C15.4 10.9132 15.5979 10.8333 15.834 10.8333ZM5.29232 8.125L3.52148 6.35417C3.36871 6.20139 3.28885 6.01042 3.2819 5.78125C3.27496 5.55208 3.35482 5.35417 3.52148 5.1875C3.67426 5.03472 3.86871 4.95833 4.10482 4.95833C4.34093 4.95833 4.53537 5.03472 4.68815 5.1875L6.47982 6.95833C6.64648 7.125 6.72982 7.31944 6.72982 7.54167C6.72982 7.76389 6.64648 7.95833 6.47982 8.125C6.31315 8.29167 6.11523 8.375 5.88607 8.375C5.6569 8.375 5.45898 8.29167 5.29232 8.125ZM1.66732 12.5C1.43121 12.5 1.23329 12.4201 1.07357 12.2604C0.913845 12.1007 0.833984 11.9028 0.833984 11.6667C0.833984 11.4306 0.913845 11.2326 1.07357 11.0729C1.23329 10.9132 1.43121 10.8333 1.66732 10.8333H4.16732C4.40343 10.8333 4.60135 10.9132 4.76107 11.0729C4.92079 11.2326 5.00065 11.4306 5.00065 11.6667C5.00065 11.9028 4.92079 12.1007 4.76107 12.2604C4.60135 12.4201 4.40343 12.5 4.16732 12.5H1.66732Z" fill="#413936"/>
</g>
</svg>
