<svg width="20" height="20" viewBox="0 0 20 20" fill="none" xmlns="http://www.w3.org/2000/svg">
<mask id="mask0_679_41" style="mask-type:alpha" maskUnits="userSpaceOnUse" x="0" y="0" width="20" height="20">
<rect width="20" height="20" fill="#D9D9D9"/>
</mask>
<g mask="url(#mask0_679_41)">
<path d="M19.1673 7.49999C19.1673 8.45833 18.9972 9.37152 18.6569 10.2396C18.3166 11.1076 17.8548 11.8958 17.2715 12.6042C17.1048 12.7986 16.8965 12.9028 16.6465 12.9167C16.3965 12.9305 16.1743 12.8403 15.9798 12.6458C15.7993 12.4653 15.7159 12.25 15.7298 12C15.7437 11.75 15.827 11.5208 15.9798 11.3125C16.3965 10.7847 16.7194 10.1944 16.9486 9.54166C17.1777 8.88888 17.2923 8.20833 17.2923 7.49999C17.2923 6.79166 17.1777 6.11805 16.9486 5.47916C16.7194 4.84027 16.3965 4.25694 15.9798 3.72916C15.8132 3.52083 15.7263 3.29166 15.7194 3.04166C15.7125 2.79166 15.7993 2.56944 15.9798 2.37499C16.1604 2.18055 16.3791 2.0868 16.6361 2.09374C16.893 2.10069 17.1048 2.20138 17.2715 2.39583C17.8548 3.10416 18.3166 3.89235 18.6569 4.76041C18.9972 5.62847 19.1673 6.54166 19.1673 7.49999ZM15.3757 7.49999C15.3757 7.94444 15.3062 8.37152 15.1673 8.78124C15.0284 9.19097 14.834 9.56944 14.584 9.91666C14.4312 10.125 14.2263 10.2326 13.9694 10.2396C13.7125 10.2465 13.4868 10.1528 13.2923 9.95833C13.1118 9.77777 13.018 9.55902 13.0111 9.30208C13.0041 9.04513 13.0632 8.7986 13.1882 8.56249C13.2715 8.40972 13.3375 8.24305 13.3861 8.06249C13.4347 7.88194 13.459 7.69444 13.459 7.49999C13.459 7.30555 13.4347 7.11805 13.3861 6.93749C13.3375 6.75694 13.2715 6.58333 13.1882 6.41666C13.0632 6.18055 13.0041 5.93749 13.0111 5.68749C13.018 5.43749 13.1118 5.22222 13.2923 5.04166C13.4868 4.84722 13.7125 4.75347 13.9694 4.76041C14.2263 4.76735 14.4312 4.87499 14.584 5.08333C14.834 5.43055 15.0284 5.80902 15.1673 6.21874C15.3062 6.62847 15.3757 7.05555 15.3757 7.49999ZM7.50065 10.8333C6.58398 10.8333 5.79926 10.5069 5.14648 9.85416C4.49371 9.20138 4.16732 8.41666 4.16732 7.49999C4.16732 6.58333 4.49371 5.7986 5.14648 5.14583C5.79926 4.49305 6.58398 4.16666 7.50065 4.16666C8.41732 4.16666 9.20204 4.49305 9.85482 5.14583C10.5076 5.7986 10.834 6.58333 10.834 7.49999C10.834 8.41666 10.5076 9.20138 9.85482 9.85416C9.20204 10.5069 8.41732 10.8333 7.50065 10.8333ZM0.833984 15.8333V15.1667C0.833984 14.7083 0.95204 14.2778 1.18815 13.875C1.42426 13.4722 1.75065 13.1667 2.16732 12.9583C2.87565 12.5972 3.67426 12.2917 4.56315 12.0417C5.45204 11.7917 6.43121 11.6667 7.50065 11.6667C8.5701 11.6667 9.54926 11.7917 10.4382 12.0417C11.327 12.2917 12.1257 12.5972 12.834 12.9583C13.2507 13.1667 13.577 13.4722 13.8132 13.875C14.0493 14.2778 14.1673 14.7083 14.1673 15.1667V15.8333C14.1673 16.2917 14.0041 16.684 13.6777 17.0104C13.3513 17.3368 12.959 17.5 12.5007 17.5H2.50065C2.04232 17.5 1.64996 17.3368 1.32357 17.0104C0.997179 16.684 0.833984 16.2917 0.833984 15.8333ZM2.50065 15.8333H12.5007V15.1667C12.5007 15.0139 12.4625 14.875 12.3861 14.75C12.3097 14.625 12.209 14.5278 12.084 14.4583C11.584 14.2083 10.9416 13.9583 10.1569 13.7083C9.37218 13.4583 8.48676 13.3333 7.50065 13.3333C6.51454 13.3333 5.62912 13.4583 4.8444 13.7083C4.05968 13.9583 3.41732 14.2083 2.91732 14.4583C2.79232 14.5278 2.69162 14.625 2.61523 14.75C2.53885 14.875 2.50065 15.0139 2.50065 15.1667V15.8333ZM7.50065 9.16666C7.95898 9.16666 8.35135 9.00347 8.67773 8.67708C9.00412 8.35069 9.16732 7.95833 9.16732 7.49999C9.16732 7.04166 9.00412 6.6493 8.67773 6.32291C8.35135 5.99652 7.95898 5.83333 7.50065 5.83333C7.04232 5.83333 6.64996 5.99652 6.32357 6.32291C5.99718 6.6493 5.83398 7.04166 5.83398 7.49999C5.83398 7.95833 5.99718 8.35069 6.32357 8.67708C6.64996 9.00347 7.04232 9.16666 7.50065 9.16666Z" fill="#413936"/>
</g>
</svg>
