<?xml version="1.0" standalone="no"?>
<!DOCTYPE svg PUBLIC "-//W3C//DTD SVG 20010904//EN"
 "http://www.w3.org/TR/2001/REC-SVG-20010904/DTD/svg10.dtd">
<svg version="1.0" xmlns="http://www.w3.org/2000/svg"
 width="1900.000000pt" height="450.000000pt" viewBox="0 0 1900.000000 450.000000"
 preserveAspectRatio="xMidYMid meet">

<g transform="translate(0.000000,450.000000) scale(0.100000,-0.100000)"
fill="#000000" stroke="none">
<path d="M3160 3941 c-261 -147 -906 -509 -1432 -805 -527 -296 -958 -541
-958 -545 0 -3 40 -27 88 -53 740 -394 1799 -961 1806 -968 8 -8 -70 -150 -84
-150 -4 0 -247 124 -540 275 -293 152 -534 275 -535 273 -2 -2 62 -80 143
-173 80 -94 269 -314 420 -490 151 -176 283 -328 292 -338 17 -18 41 -6 666
343 357 199 650 364 652 365 2 2 -596 325 -1546 835 -95 51 -169 96 -165 100
4 5 323 184 708 398 l700 390 132 403 c73 222 132 404 130 405 -1 1 -216 -118
-477 -265z"/>
<path d="M3150 3109 c-344 -193 -636 -356 -649 -363 -24 -13 -4 -25 1527 -846
95 -51 169 -96 165 -100 -4 -5 -323 -184 -708 -398 l-700 -390 -132 -403 c-73
-222 -132 -404 -130 -405 1 -1 216 118 477 265 261 147 906 509 1433 805 526
296 957 541 957 545 0 3 -40 27 -88 53 -740 394 -1799 961 -1806 968 -8 8 70
150 84 150 4 0 247 -124 540 -275 293 -152 534 -275 536 -273 1 2 -50 64 -114
139 -64 74 -261 303 -437 507 -176 205 -322 372 -325 372 -3 -1 -286 -159
-630 -351z"/>
<path d="M6470 3013 c-86 -9 -80 4 -80 -156 l0 -142 158 -1 c143 0 164 -2 237
-27 44 -15 85 -27 91 -27 7 0 26 59 44 131 27 108 30 133 19 140 -37 22 -204
69 -284 78 -89 11 -115 11 -185 4z"/>
<path d="M8330 3009 c-188 -13 -170 2 -170 -144 l0 -124 298 -3 297 -3 48 -28
c71 -42 99 -91 105 -182 3 -45 0 -93 -8 -120 -25 -91 -111 -155 -228 -171
l-53 -7 3 -136 3 -136 70 3 c155 8 291 50 394 122 135 95 201 233 201 423 0
141 -36 242 -117 328 -151 162 -376 209 -843 178z"/>
<path d="M17176 2990 c-82 -16 -150 -31 -153 -33 -3 -3 170 -512 267 -784 l12
-33 185 0 c144 0 184 3 181 13 -112 311 -324 867 -332 866 -6 0 -78 -14 -160
-29z"/>
<path d="M10450 2395 l0 -595 190 0 190 0 0 130 0 130 275 0 276 0 -3 143 -3
142 -272 3 -273 2 0 320 0 320 -190 0 -190 0 0 -595z"/>
<path d="M10920 2840 l0 -150 239 0 c132 0 242 3 244 8 3 4 8 71 12 150 l7
142 -251 0 -251 0 0 -150z"/>
<path d="M12526 2928 c-3 -35 -8 -105 -11 -155 l-7 -93 626 0 626 0 4 23 c3
12 8 82 11 155 l7 132 -625 0 -625 0 -6 -62z"/>
<path d="M14910 2200 l0 -790 185 0 185 0 0 790 0 790 -185 0 -185 0 0 -790z"/>
<path d="M6237 2955 c-171 -69 -264 -194 -275 -366 -6 -102 8 -170 50 -251 56
-105 151 -178 358 -272 177 -80 235 -120 266 -178 17 -32 18 -81 4 -109 -10
-18 -6 -19 168 -19 208 0 192 -11 192 123 0 52 -7 98 -21 139 -52 155 -148
233 -438 354 -223 93 -233 109 -240 396 l-6 207 -58 -24z"/>
<path d="M16906 2823 c-14 -37 -135 -363 -270 -723 -134 -360 -247 -663 -251
-672 -7 -17 6 -18 178 -18 l184 0 60 173 59 172 284 0 284 0 61 -172 60 -173
192 0 c106 0 193 3 193 8 0 4 -52 148 -116 320 l-117 312 -368 0 c-203 0 -369
4 -369 8 0 5 29 90 64 191 l63 182 -77 225 c-43 124 -80 227 -83 230 -3 3 -16
-25 -31 -63z"/>
<path d="M8160 2035 l0 -625 185 0 185 0 0 625 0 625 -185 0 -185 0 0 -625z"/>
<path d="M12960 2005 l0 -595 190 0 190 0 -2 593 -3 592 -187 3 -188 2 0 -595z"/>
<path d="M5951 1641 c-23 -71 -41 -132 -41 -136 0 -13 130 -66 226 -92 86 -23
119 -26 254 -27 120 0 170 4 220 18 144 39 262 120 313 214 l27 51 -342 3
c-373 5 -361 3 -542 72 -37 14 -70 26 -72 26 -1 0 -21 -58 -43 -129z"/>
<path d="M10450 1560 l0 -150 495 0 495 0 0 53 c0 28 3 96 7 150 l6 97 -501 0
-502 0 0 -150z"/>
</g>
</svg>
