<svg xmlns="http://www.w3.org/2000/svg" viewBox="0 0 500 113.15"><defs><style>.cls-1{fill:#f77908;}</style></defs><g id="Layer_2" data-name="Layer 2"><g id="Layer_1-2" data-name="Layer 1"><path class="cls-1" d="M192.83,50.62H143.35v2.32a9.59,9.59,0,0,0,9.58,9.58h37.59V65a3.21,3.21,0,0,1-3.21,3.21h-44v11.9h49.48a9.61,9.61,0,0,0,9.59-9.58V60.21A9.61,9.61,0,0,0,192.83,50.62Z"/><path class="cls-1" d="M202.42,39V33H152.93a9.6,9.6,0,0,0-9.58,9.59v2.32h53.11A6,6,0,0,0,202.42,39Z"/><path class="cls-1" d="M262.34,33H211.5c0,13.84.79,11.91,21.66,11.91H260L218,60.75a9.44,9.44,0,0,0-6.47,9.06V80.14h11.9V73.76a3.17,3.17,0,0,1,2.17-3l34.54-13.26,5.34-1.83a9.46,9.46,0,0,0,6.47-9.07v-4A9.6,9.6,0,0,0,262.34,33Z"/><path class="cls-1" d="M279.11,39a6,6,0,0,0,6,6h48.07a6.42,6.42,0,0,0,6.4-6.4V33H279.11Z"/><path class="cls-1" d="M291,62.52h33.9V50.62H279.11v3.87h0V73.06h0v.69a6.42,6.42,0,0,0,6.4,6.4h54V68.24H291Z"/><path class="cls-1" d="M348.82,39a6,6,0,0,0,5.95,6H375.1V80.15H387V44.91h20.33a6,6,0,0,0,5.95-6V33H348.82Z"/><rect class="cls-1" x="425.46" y="33" width="11.9" height="47.15"/><rect class="cls-1" x="449.54" y="33" width="11.9" height="47.15"/><path class="cls-1" d="M477.33,38.05a9.36,9.36,0,0,0-8.44-5h-7.45l18.9,35.75,6.14,11.4H500Z"/><polygon class="cls-1" points="62.24 62.41 73.74 68.52 40.47 87.73 31.19 76.67 26.55 71.13 17.28 60.08 32.07 67.95 39.48 71.88 46.45 75.59 48.58 71.25 44.41 69.03 37.01 65.1 14.8 53.29 0 45.42 0 45.41 78.66 0 73.54 14.62 71.47 20.57 29.32 44.9 51.53 56.71 54.86 58.48 57.69 59.98 58.93 60.65 59.74 61.07 62.24 62.41"/><polygon class="cls-1" points="46.3 92.57 88.41 68.26 81 64.33 66.19 56.45 62.88 54.69 60.06 53.19 58.79 52.52 58.01 52.1 55.54 50.79 43.98 44.65 77.28 25.42 91.21 42.01 100.49 53.07 100.46 53.09 85.65 45.22 78.25 41.29 71.3 37.59 69.16 41.92 73.31 44.14 80.72 48.07 95.52 55.94 117.73 67.75 39.1 113.15 46.3 92.57"/></g></g></svg>